<svg width="307" height="336" viewBox="0 0 307 336" fill="none" xmlns="http://www.w3.org/2000/svg">
<path d="M300.584 247.321C278.242 226.147 253.038 209.914 223.673 204.207C213.077 195.776 197.895 197.323 191.488 184.512C187.97 174.698 190.037 164.748 194.527 155.331C203.85 135.773 212.051 115.886 217.335 94.7809C222.031 76.0163 217.773 68.7349 198.908 64.7109C194.514 63.7802 189.846 64.6973 185.67 62.1926C164.766 49.6418 141.643 45.481 117.713 44.6187C113.935 44.4818 109.896 44.5229 107.213 48.0404C107.254 49.8881 107.528 51.38 109.691 51.4758C109.841 48.7658 111.156 47.5887 113.976 47.4245C137.988 46.0147 160.207 52.4613 181.659 62.4663C158.153 67.9547 135.483 67.2978 114.455 53.8984C112.976 52.954 111.922 51.1473 109.759 51.5442C110.54 55.5408 114.236 56.5262 117.042 58.0592C132.471 66.5176 149.008 69.5698 166.531 67.5989C173.281 66.8461 180.098 66.6271 186.793 66.1754C192.994 73.3884 196.266 80.834 195.239 90.6475C189.572 85.4739 185.643 97.094 180.577 90.6612C180.194 88.9093 183.521 88.1975 181.768 85.6381C176.156 82.2985 170.597 83.8451 165.176 87.828C161.411 80.2045 167.9 77.5903 172.268 72.9094C164.149 73.6074 159.864 77.645 156.88 83.1334C153.731 88.923 149.214 92.372 142.834 94.0692C113.456 101.884 87.8279 77.905 93.3039 47.6845C94.5497 40.8001 91.6474 35.558 85.1447 32.848C79.9288 30.6581 75.1373 33.7103 73.9326 39.582C87.5952 55.7187 88.4987 58.6888 83.0775 70.0351C80.1479 68.4612 77.2319 66.8872 74.6719 65.4911C74.973 60.468 81.996 60.2628 80.6818 55.1165C77.9575 53.1593 74.4939 55.3766 72.0708 53.0224C70.5649 50.0524 73.0565 45.96 69.1685 43.4279C65.6639 41.6897 61.242 44.386 57.1213 41.7445C55.8345 35.298 57.0392 28.3861 55.1774 21.7617C52.8638 13.5085 47.0592 9.1835 39.8172 11.2913C38.7494 18.1347 40.5839 25.8404 36.1346 32.9165C33.6567 29.3579 33.6841 25.9772 33.4103 22.5966C32.8627 15.8764 27.3046 13.4538 21.7191 17.3272C16.5032 20.9405 13.9158 32.6564 16.9961 38.8429C21.2126 39.0755 22.2256 32.9028 27.2909 33.9703C28.8789 35.9276 30.6997 38.1722 32.4383 40.2937C38.6946 39.2808 40.6797 40.1021 45.6081 45.6178C42.9522 47.2055 40.3237 48.7658 37.7363 50.3124C29.9468 41.5255 21.8012 39.4451 14.9562 44.3586C9.1517 48.5194 8.6178 55.8693 13.5462 63.7529C11.4927 70.61 11.2052 77.4397 16.2705 83.065C21.3768 88.7313 27.4826 85.8708 33.7252 83.4209C35.9566 91.1265 45.7176 95.8074 40.5017 106.661C34.8751 98.5722 33.821 86.0898 20.1311 86.9931C19.5287 96.9434 27.6879 99.1607 33.5335 103.992C28.8105 114.326 35.2311 123.646 36.4358 133.542C26.1273 141.138 29.9194 151.526 43.3492 156.426C43.4451 162.435 43.5956 168.43 50.8924 170.62L50.8239 170.579H50.8787C49.058 166.226 43.9653 163.037 46.2789 156.864C49.496 155.578 53.4524 155.167 55.8755 152.142C64.6919 157.48 69.1183 161.481 69.1548 164.146C66.0198 166.541 62.611 162.613 58.2439 165.159C68.0596 173.795 80.1478 181.405 74.6992 198.582C69.0316 192.751 66.4989 186.264 63.3776 180.173C60.7355 174.972 57.6826 170.332 50.8787 170.579C50.8787 170.592 50.8924 170.606 50.8924 170.62C58.4629 174.726 61.8991 182.007 65.527 189.247C68.0049 194.202 70.0036 199.855 76.917 201.155C76.2599 210.476 75.7123 219.564 74.9594 228.624C73.7136 243.543 66.718 254.711 53.5483 262.239C43.8694 267.782 34.5603 273.983 25.1416 279.964C18.4061 284.248 11.7117 288.614 6.41371 294.732C-2.86808 305.476 0.705003 328.374 12.8754 335.915C13.2861 336.175 14.1349 335.765 15.0795 335.614C15.2164 333.78 15.4354 331.987 15.4765 330.208C15.9146 313.592 24.197 301.904 38.2839 293.856C45.4986 289.722 53.6304 288.244 61.4063 285.74C79.2169 279.977 88.2112 268.439 89.4159 249.606C89.7856 243.694 89.7993 237.753 90.1278 231.841C90.2237 230.294 89.3201 228.145 92.1403 227.228C93.2765 229.473 94.6592 231.581 95.4669 233.907C100.217 247.663 104.762 261.486 109.54 275.242C110.581 278.266 110.896 282.099 115.591 282.975C118.069 280.484 119.082 277.322 119.561 273.914C120.971 263.964 119.726 254.534 115.139 245.404C109.212 233.565 110.731 224.381 118.685 216.005C126.694 207.574 134.552 211.16 142.547 215.731C137.344 207.944 128.706 206.205 120.821 211.352C110.389 218.168 106.241 232.251 111.963 243.872C117.302 254.711 119.726 265.675 116.344 277.514C116.111 278.321 115.632 279.06 114.578 281.25C105.83 261.404 103.215 240.299 91.8801 222.657C86.8833 225.422 87.8142 228.912 87.7868 231.882C87.6773 241.682 87.8005 251.468 84.7614 260.966C81.3389 271.642 74.8088 279.238 63.802 282.537C58.7915 284.029 53.7673 285.479 48.7568 286.971C27.3867 293.336 15.586 307.502 13.2861 329.51C13.2039 330.345 12.9028 331.139 12.629 332.234C1.32105 319.217 -1.81396 302.478 13.3408 290.995C24.6487 282.427 36.5864 274.735 49.0032 268.207C70.1952 257.079 77.7658 239.464 78.4914 216.799C79.5318 184.128 75.8218 151.732 74.0421 119.226C73.8642 116.119 74.2064 111.479 68.8263 111.561H68.8126C68.703 111.698 68.6072 111.821 68.4977 111.958C68.5388 111.862 68.5798 111.753 68.6209 111.657L68.5388 111.575H68.6072C67.8406 107.003 65.5133 109.207 63.3776 110.452C58.9695 113.025 54.5476 113.723 50.0436 110.466C49.8109 107.099 52.412 103.91 50.3722 100.215C44.5129 101.816 45.1426 106.565 45.2795 112.191C40.269 108.249 44.7456 104.8 44.5266 101.734C44.2391 97.6962 43.1439 94.3156 40.8713 91.0444C38.681 87.9101 36.8054 84.5431 34.7519 81.2172C35.7924 78.2335 36.7507 75.4962 37.8596 72.2935C41.4189 79.3559 41.3916 87.7048 48.1133 92.5636C46.3747 88.1975 44.6498 83.8314 42.8427 79.479C40.3785 73.58 40.269 67.4894 41.8023 61.4535C43.5683 54.5006 48.4145 50.9009 55.4922 50.0524C62.7205 49.1764 64.9931 54.09 66.7454 59.5237C69.1 66.8051 71.8517 74.0454 70.9345 83.4756C68.6209 75.3456 66.6632 68.6391 64.8014 61.9052C63.3776 56.8137 59.9278 54.2405 54.8077 54.3363C49.4686 54.4458 45.9366 57.1558 44.4034 62.5074C41.9802 70.9658 46.4842 84.0641 54.3697 90.0453C58.1755 86.6646 55.766 81.8742 57.4225 77.8366C56.6833 85.4465 59.3117 91.3045 65.5133 95.7527C68.4019 97.8331 70.2226 100.967 66.2662 104.444C58.107 103.801 54.1506 96.5465 48.127 92.5773H48.1133C52.3435 103.13 63.0217 108.7 70.7155 104.184C73.5493 108.427 74.5897 113.368 75.8629 118.144C79.0116 129.97 86.2809 138.182 97.2466 143.232C113.524 150.719 130.773 154.825 148.42 157.042C160.823 158.603 172.569 157.015 179.756 144.012C181.987 149.035 178.469 154.702 183.576 157.74C186.45 158.466 188.408 156.399 191.475 155.523C187.915 165.624 186.327 175.355 188.312 185.607C172.117 198.637 169.215 217.251 166.915 236.234C165.696 246.362 163.136 256.08 152.965 261.377C149.967 262.924 146.955 264.703 143.163 262.677C143.3 256.217 146.804 250.948 148.625 245.185C151.254 236.836 152.157 228.693 147.694 220.741C146.544 218.674 145.654 216.06 142.615 215.8C151.377 228.652 148.762 241.476 142.697 254.397C141.274 257.421 139.891 260.706 141.561 264.183C144.532 267.481 147.954 266.208 151.048 264.894C159.495 261.267 165.354 255.067 167.271 245.966C169.037 237.521 170.132 228.953 171.542 220.426C173.623 207.766 179.14 197.021 189.175 187.797C195.568 199.102 207.013 201.319 217.896 206.534C199.483 222.219 203.303 248.169 187.409 265.004C180.263 266.564 172.021 265.894 164.807 269.849C159.276 272.888 156.332 277.199 159.741 283.248C163.246 289.449 168.174 286.999 172.637 284.22C179.277 280.073 184.027 273.887 189.38 267.837C192.529 268.166 195.677 268.453 198.812 268.795C211.133 270.164 221.127 276.953 231.531 282.797C222.879 271.834 210.339 268.823 197.58 266.29C195.828 265.948 194.007 265.853 190.886 265.483C197.019 255.423 202.098 245.596 204.288 234.66C206.534 223.533 212.804 214.76 220.333 206.465C237.884 208.272 253.12 215.772 267.782 224.683C278.324 231.088 288.194 238.451 297.134 246.978C306.073 255.505 306.238 264.32 297.722 273.175C284.224 287.218 252.285 296.429 234.133 283.413C233.489 282.947 232.449 283.029 231.6 282.852C231.545 284.864 233.256 285.397 234.53 286.232C253.476 298.509 292.411 288.956 303.527 269.302C307.661 261.993 307.127 253.507 300.584 247.321ZM26.5516 31.1098C23.3482 30.8224 21.4864 33.5187 18.9674 35.1063C17.1056 24.499 20.2269 19.0517 29.1117 17.8883C33.1639 23.5684 30.4944 31.2877 35.943 37.9943C30.4807 36.4203 30.5765 31.3014 26.5516 31.1098ZM22.1024 89.5936C29.6182 91.0307 32.2056 93.3849 33.6978 100.269C28.304 98.1342 23.9506 95.6021 22.1024 89.5936ZM34.4508 119.335C34.2043 113.6 34.0401 109.686 36.4632 105.046C38.7905 110.247 38.3524 114.093 34.4508 119.335ZM53.3018 149.487C50.0847 154.811 43.8831 153.744 39.119 151.663C33.7936 149.35 31.4937 144.806 34.1906 138.976C36.8876 138.168 37.353 142.042 39.9131 141.083C46.1557 139.071 50.4954 132.611 59.1064 132.693C57.1213 138.716 56.1904 144.697 53.3018 149.487ZM38.325 137.429L38.5441 137.662H38.5578L38.5714 137.73C38.5304 137.703 38.503 137.662 38.4619 137.621C38.4756 137.621 38.4893 137.621 38.503 137.621L38.325 137.415V137.429ZM61.023 131.681C58.2165 127.78 55.0952 131.092 52.234 130.9C52.1108 130.928 51.9876 130.969 51.8781 130.996C51.9876 130.955 52.0834 130.928 52.1929 130.9C54.1643 129.436 56.1357 127.971 57.929 126.644C65.2121 131.01 64.952 139.674 57.5594 147.188C57.4088 141.535 61.5706 137.005 61.023 131.681ZM68.8263 132.584C66.8138 126.945 67.6352 121.566 71.5642 116.214C72.9196 136.279 74.2749 156.344 75.6439 176.806C72.3035 173.097 69.4697 169.963 66.5674 166.746C67.0465 166.473 69.6887 167.691 71.4273 165.268C73.9737 155.92 65.8829 154.455 59.7498 151.773C60.5438 148.584 63.1175 147.667 64.8562 146.024C68.7989 142.274 70.7839 138.004 68.8263 132.584ZM66.4579 116.037C66.5126 115.913 66.5811 115.776 66.6496 115.653C66.6359 115.708 66.6222 115.763 66.6085 115.818C66.8138 115.53 67.0055 115.256 67.1971 114.969C67.2382 114.846 67.2656 114.709 67.293 114.586L67.3888 114.695C67.3204 114.791 67.2656 114.873 67.1971 114.969C65.8692 120.512 64.8835 126.069 66.0198 131.776C66.0609 131.845 66.1156 131.927 66.1567 131.995C66.143 132.078 66.1293 132.146 66.1293 132.228C67.9638 136.211 67.334 139.852 64.6234 143.232L64.5824 143.287L64.3907 143.438L64.6234 143.232C65.1163 139.578 65.6091 135.896 66.1293 132.228C66.102 132.187 66.0883 132.132 66.0609 132.091C66.0335 131.982 66.0198 131.872 66.0061 131.776C65.7734 131.393 65.527 131.01 65.2806 130.627C65.3079 130.736 65.349 130.846 65.3901 130.969C65.2942 130.791 65.2258 130.627 65.171 130.449C63.8568 128.314 62.5152 126.151 61.0914 123.838C62.8027 121.347 64.5824 118.747 66.4031 116.119C66.4168 116.091 66.4305 116.064 66.4442 116.037H66.4579ZM64.4318 113.286C64.4318 113.286 64.4591 113.135 64.4728 113.067L64.8288 112.848L64.5824 113.176C64.5824 113.176 64.4865 113.244 64.4318 113.286C63.6377 117.747 60.3522 120.498 57.5457 123.687C52.015 123.332 47.8806 121.06 44.2254 116.009C50.5912 110.781 58.4766 117.501 64.4318 113.286ZM53.6304 126.397C49.9889 130.12 45.8134 133.268 40.5839 135.882C35.6281 125.877 36.0251 122.237 42.0213 118.829C45.786 121.279 49.5508 123.742 53.6304 126.397ZM12.9712 57.6896C11.3832 52.1191 12.8617 47.096 18.9263 44.9882C23.4303 43.4142 27.8933 44.167 31.7401 47.2602C36.8191 51.3663 36.5042 56.6084 34.6561 62.8085C32.452 61.4672 30.7545 60.427 28.8242 59.2499C26.9213 59.8248 25.0047 60.427 23.0744 60.9881C18.94 62.2063 14.5045 63.137 12.9712 57.6896ZM18.9126 82.2164C14.0938 78.2062 13.5188 72.444 15.3122 65.8606C25.2237 66.9008 29.3718 72.3756 31.439 80.4097C27.7153 84.6526 23.0059 85.6107 18.9126 82.2164ZM33.3282 76.9744C30.6449 71.308 27.2909 67.1883 21.2126 64.1635C24.5803 62.959 26.4558 62.2884 28.0849 61.7135C31.6443 62.5621 32.1645 66.9693 35.8882 67.2293C36.0114 70.5142 35.0531 73.3474 33.3282 76.9744ZM59.1748 68.7212C51.9328 73.6074 56.56 80.6561 53.2197 86.1719C47.7437 79.5201 45.5122 72.3756 46.4432 64.2182C46.9497 59.8385 49.3591 57.2653 53.959 56.8547C58.4903 56.4578 61.3789 58.3466 62.6521 62.6853C65.6912 73.0873 69.1274 83.4072 69.5929 94.7535C56.0261 90.1821 62.4193 77.7956 59.1748 68.7212ZM85.0762 89.7442C85.0762 89.7442 85.131 89.662 85.1447 89.621C85.1447 89.6894 85.1447 89.7715 85.1721 89.84C85.0899 89.9084 85.0215 89.9768 84.953 90.0453C84.9804 89.9631 85.0352 89.8537 85.0762 89.7442ZM84.9256 90.059H84.9393C84.9393 90.059 84.8983 90.1411 84.8846 90.1684C84.8846 90.1411 84.912 90.1 84.9256 90.059ZM58.9284 47.8214C51.3852 45.7136 45.0879 50.5588 39.9815 57.7444C38.2839 48.9985 46.1146 49.6828 49.5645 46.3295C48.127 40.7316 41.3231 40.8822 38.6946 35.6264C41.3642 28.6598 41.7201 20.571 41.8433 12.0441C50.0162 13.5086 52.5215 18.7643 53.3018 25.1834C54.0411 31.233 54.356 37.3236 54.8077 42.7573C59.1611 46.9318 63.8842 43.9344 67.9501 45.3989C70.7565 48.0541 67.0602 52.297 69.5518 54.2953C71.8517 56.6768 74.3022 56.581 76.7253 57.2927C75.9861 60.6597 71.0851 61.8778 72.8648 66.764C74.4391 70.0899 81.1472 69.1318 82.1603 74.7297C78.9705 75.7288 76.7254 71.0617 73.7409 74.018C69.1 64.6015 71.5095 51.3526 58.9284 47.8214ZM78.2997 81.2857C75.3701 80.0676 75.4796 78.1788 76.4653 75.6741C78.9021 77.0702 80.4353 78.4252 78.2997 81.2857ZM184.438 155.263C180.687 150.486 184.356 144.697 181.851 140.002C179.291 139.468 178.455 141.48 177.689 142.904C171.323 154.77 160.467 156.426 148.871 154.935C133.717 153.005 119 148.981 104.489 144.095C81.6127 136.361 75.7807 118.103 74.5897 96.8339C74.357 92.7416 74.5486 88.6355 74.5486 83.8862C76.9307 84.3926 79.4086 84.1052 81.3936 82.3122C83.8989 87.8691 80.0931 92.5226 80.6133 98.4079C89.3201 93.0153 89.1148 85.9118 87.0202 78.781C85.7881 74.5791 86.1167 70.87 87.1297 66.8598C89.7034 56.7315 88.3071 47.8214 78.7925 41.6076C77.8616 41.0054 77.1224 40.0747 76.3968 39.2124C76.1504 38.925 76.2188 38.3638 76.0546 37.4742C78.9705 34.4494 82.5847 33.6145 86.2399 35.996C90.1278 38.5144 91.976 42.3878 91.0314 47.1918C84.7066 79.6707 114.126 105.799 145.381 95.8348C153.759 93.1659 157.209 86.3635 161.713 80.2044L161.904 79.9991L161.699 80.2455C161.042 85.9255 161.932 90.6749 169.009 92.2352C169.187 86.1856 172.802 85.2412 177.908 86.4867C175.362 94.5756 181.974 94.0692 186.519 95.5474L186.464 95.4516C191.967 98.5722 196.636 95.5884 197.621 88.4713C198.703 80.5877 194.514 74.0865 191.653 66.9693C198.785 66.066 204.74 68.0916 210.394 71.1985C214.939 73.6895 218.238 77.9324 217.349 82.8734C213.666 103.472 207.245 123.236 197.704 142.904C187.518 127.26 173.445 129.641 159.153 132.707C162.849 122.51 170.105 121.744 186.094 129.504C196.718 125.823 198.155 112.368 190.763 104.772C175.252 97.7783 163.835 100.707 154.375 112.902C160.138 116.475 166.545 116.57 172.582 117.871C178.729 119.185 185.218 118.788 191.187 121.238C191.256 124.071 189.832 125.617 186.765 127.109C178.784 121.908 169.913 117.843 160.631 125.645C158.057 127.821 155.333 130.011 156.291 134.076C160.768 136.32 164.615 133.884 168.448 133.145C175.498 131.79 182.042 132.461 188.203 136.156C192.104 138.497 195.65 141.604 194.486 146.503C193.323 151.362 189.668 154.455 184.438 155.263ZM161.754 108.769C161.754 108.769 161.699 108.837 161.658 108.878C161.658 108.878 161.603 108.988 161.576 109.029L161.658 108.783C161.658 108.783 161.726 108.769 161.754 108.769C169.612 100.16 179.072 103.664 188.86 105.799C190.571 107.386 191.502 110.028 191.844 112.943C191.885 112.957 191.913 112.971 191.954 112.984C192.05 113.162 192.159 113.34 192.255 113.505C192.132 113.354 191.995 113.203 191.858 113.067C191.858 113.025 191.858 112.984 191.858 112.943C182.207 108.892 172.172 107.551 161.767 108.769H161.754ZM190.886 118.309C180.933 116.707 171.556 115.202 160.084 113.368C171.638 108.44 186.656 111.123 190.886 118.309ZM164.204 284.727C160.535 281.784 159.248 278.485 161.507 275.762C167.435 268.604 176.019 268.59 186.094 267.865C179.167 275.748 174.088 283.166 164.204 284.727Z" fill="white"/>
<path d="M194.201 120.701C202.5 118.147 207.885 110.8 206.229 104.291C204.573 97.7822 196.503 94.5769 188.205 97.1315C179.906 99.6861 174.521 107.033 176.177 113.542C177.833 120.051 185.902 123.256 194.201 120.701Z" fill="black" fill-opacity="0.65" stroke="#F07925" stroke-width="2" stroke-linecap="round" stroke-linejoin="round" stroke-dasharray="5 5"/>
<path d="M200.176 110.09C200.174 109.985 199.975 109.887 199.878 109.995C199.779 109.999 199.683 110.212 199.685 110.317C199.788 110.734 199.497 111.164 199.105 111.388L187.404 115.478C186.912 115.6 186.515 115.404 186.411 114.988C186.311 114.886 186.113 114.893 186.014 114.897C185.916 114.901 185.82 115.114 185.821 115.219C185.923 115.53 186.124 115.733 186.422 115.933L185.251 117.024C184.86 117.353 184.166 117.168 184.061 116.646L181.287 107.819C181.082 107.301 181.568 106.654 182.063 106.741L183.545 106.794C183.352 107.116 183.258 107.539 183.361 107.85C183.362 107.956 183.561 108.053 183.658 107.945C183.757 107.941 183.853 107.728 183.852 107.623C183.748 107.207 184.039 106.776 184.431 106.552L196.13 102.357C196.622 102.235 197.02 102.431 197.124 102.847C197.125 102.952 197.324 103.05 197.421 102.942C197.52 102.938 197.616 102.725 197.615 102.62C197.512 102.308 197.312 102.105 197.014 101.906L198.284 100.811C198.675 100.482 199.369 100.667 199.474 101.189L202.249 110.121C202.453 110.639 201.967 111.286 201.473 111.199L199.991 111.147C200.184 110.824 200.279 110.506 200.176 110.09Z" fill="#F7A902"/>
<path d="M238.826 102.301C231.88 101.957 224.874 101.527 218.009 101.119C217.586 101.056 217.021 100.971 216.634 101.144C214.333 102.032 213.95 99.8211 212.959 98.7502C211.992 97.5291 212.457 96.3677 213.347 95.2697C214.237 94.1717 214.985 93.0526 215.793 92.0191C219.747 86.9169 223.561 81.7935 227.575 76.7769C228.92 75.0546 230.531 75.3717 231.713 77.0863C233.189 79.2296 232.102 81.1444 231.039 82.9088C229.683 85.1682 228.068 87.2349 226.594 89.3226C226.654 89.4085 226.713 89.4943 226.854 89.5153C227.183 89.2566 227.488 89.1483 227.816 88.8895C239.247 80.6715 245.952 68.9027 249.301 55.0181C252.266 42.2298 251.625 29.9036 242.635 19.7938C242.021 19.0869 241.677 18.0355 241.108 17.0277C243.446 16.3763 245.069 17.08 246.579 18.536C253.63 25.2798 257.173 33.7311 257.772 43.9741C258.583 61.3254 249.546 85.5154 229.675 96.5513C230.827 96.5693 231.756 96.6308 232.684 96.6924C235.588 97.0487 238.516 97.2545 241.314 97.8257C242.079 98.0167 242.683 99.2606 243.356 100.053C242.616 100.635 241.974 101.539 241.117 101.95C240.483 102.317 239.614 102.341 238.826 102.301Z" fill="#F7A902"/>
</svg>
