<svg width="305" height="336" viewBox="0 0 305 336" fill="none" xmlns="http://www.w3.org/2000/svg">
<path d="M134 200.885C134 199.718 137 196 137 196C137 196 140 199.718 140 200.885C140 202.053 138.657 203 137 203C135.343 203 134 202.053 134 200.885Z" fill="#F7A902"/>
<path d="M56.9046 219.594C55.7841 218.614 55.5189 217.571 55.9496 216.354C56.3092 215.373 56.6277 214.315 56.9286 213.316C60.5027 203.368 64.9493 193.941 71.6131 185.699C71.7074 185.6 71.7016 185.405 71.8314 185.188C64.8847 188.598 58.3154 192.25 52.7368 197.742C52.4833 197.088 52.23 196.433 52.4127 196.04C53.1853 194.542 53.8164 192.874 54.9723 191.813C57.2839 189.692 59.7311 187.548 62.491 186.076C68.6 182.669 74.8743 179.569 81.1251 176.333C81.7382 176.006 82.5405 176.12 83.2185 176.006C83.301 178.724 82.0448 180.332 80.1166 181.607C79.8687 181.789 79.6035 182.029 79.397 182.287C71.9078 188.995 66.3762 197.324 62.1592 206.628C61.428 208.202 60.7556 209.795 60.0834 211.386C69.7309 202.639 81.0885 196.975 92.6109 191.618C90.5825 191.516 88.5777 191.549 86.5728 191.582C85.523 191.649 84.8449 191.123 84.7978 190.211C84.7331 189.357 84.7979 188.287 86.1189 188.174C89.3383 187.739 92.5936 187.187 95.8192 186.946C97.199 186.851 98.5727 187.204 99.9645 187.498C100.749 187.671 101.114 188.167 100.872 189.184C100.454 190.789 100.011 192.258 98.3366 192.905C98.0477 193.01 97.8826 193.344 97.6761 193.603C94.8808 197.758 92.0088 201.954 89.3315 206.145C88.6416 207.154 88.429 208.501 87.9396 209.7C87.8335 210.052 87.6094 210.369 87.4854 210.781C86.0879 209.651 85.917 208.509 86.8902 206.559C87.9577 204.51 89.1429 202.496 90.2694 200.464C91.2128 198.827 92.1387 197.247 93.3066 195.292C79.897 202.001 66.7881 208.353 56.9046 219.594Z" fill="#F7A902"/>
<path d="M140.488 181.377C140.493 181.307 140.355 181.228 140.279 181.293C140.208 181.289 140.127 181.424 140.122 181.493C140.174 181.777 139.942 182.043 139.647 182.163L131.006 184.047C130.645 184.094 130.37 183.935 130.318 183.651C130.251 183.577 130.109 183.567 130.038 183.563C129.967 183.558 129.886 183.693 129.881 183.763C129.938 183.977 130.071 184.126 130.275 184.28L129.372 184.921C129.073 185.112 128.584 184.939 128.537 184.586L127.022 178.524C126.904 178.166 127.288 177.77 127.64 177.863L128.703 178.004C128.546 178.204 128.456 178.478 128.512 178.693C128.508 178.763 128.645 178.842 128.721 178.777C128.793 178.781 128.873 178.646 128.878 178.576C128.826 178.293 129.059 178.027 129.353 177.907L137.999 175.953C138.36 175.906 138.636 176.065 138.688 176.349C138.683 176.419 138.82 176.498 138.896 176.433C138.967 176.437 139.048 176.303 139.053 176.233C138.996 176.019 138.864 175.87 138.66 175.716L139.633 175.079C139.932 174.888 140.421 175.061 140.468 175.414L141.978 181.546C142.097 181.904 141.712 182.3 141.361 182.206L140.298 182.066C140.454 181.866 140.54 181.661 140.488 181.377Z" fill="#F7A902" stroke="#F07925" stroke-linecap="round" stroke-linejoin="round" stroke-dasharray="3 3"/>
<path d="M71.6387 81.5452H73.7704C74.5141 81.5452 75.1171 80.9396 75.1171 80.1927C75.1171 79.4459 74.5141 78.8401 73.7704 78.8401H68.6531C67.9094 78.8401 67.3064 79.4459 67.3064 80.1927V85.3324C67.3064 86.0793 67.9094 86.6849 68.6531 86.6849C69.3968 86.6849 69.9998 86.0793 69.9998 85.3324V83.8441C74.0858 89.3385 76.307 96.0048 76.307 102.938C76.307 120.552 62.0397 134.881 44.5027 134.881C26.9657 134.881 12.6985 120.552 12.6985 102.938C12.6985 85.3247 26.9657 70.995 44.5027 70.995C45.7997 70.995 47.1051 71.0742 48.3828 71.2301C49.12 71.3197 49.7924 70.7923 49.8822 70.0507C49.972 69.3093 49.4462 68.6348 48.7078 68.5447C47.3226 68.3758 45.908 68.29 44.5027 68.29C35.288 68.29 26.625 71.894 20.1093 78.4383C13.5935 84.9823 10.0051 93.6833 10.0051 102.938C10.0051 112.193 13.5935 120.894 20.1093 127.438C26.625 133.982 35.288 137.587 44.5027 137.587C53.7173 137.587 62.3805 133.982 68.8962 127.438C75.4119 120.894 79.0002 112.193 79.0002 102.938C79.0002 95.1285 76.4026 87.6309 71.6387 81.5452Z" fill="#F7A902"/>
<path d="M24.6132 88.7159C23.9847 88.3164 23.1529 88.5043 22.7548 89.1352C19.6806 94.012 18.3197 99.877 18.9228 105.65C19.5348 111.508 22.1602 117.033 26.3152 121.206C31.3295 126.243 37.9164 128.761 44.5032 128.761C51.0901 128.761 57.6766 126.243 62.6912 121.206C72.7201 111.134 72.7201 94.7441 62.6912 84.6716C58.5424 80.505 53.0508 77.869 47.2275 77.2496C41.4904 76.639 35.6574 77.9952 30.8037 81.0678C30.1745 81.466 29.9861 82.3013 30.3825 82.9333C30.7791 83.5653 31.6106 83.7545 32.2399 83.3563C41.3888 77.5646 53.1274 78.8918 60.7866 86.5845C69.7653 95.6023 69.7653 110.276 60.7866 119.293C51.8081 128.311 37.1984 128.311 28.2199 119.293C20.6666 111.707 19.3253 99.6325 25.0307 90.5825C25.4283 89.9513 25.2415 89.1156 24.6132 88.7159Z" fill="#F7A902"/>
<path d="M62.0095 104.315H63.6703C64.414 104.315 65.017 103.709 65.017 102.962C65.017 102.215 64.414 101.609 63.6703 101.609H62.0095C61.2659 101.609 60.6628 102.215 60.6628 102.962C60.6628 103.709 61.2659 104.315 62.0095 104.315Z" fill="#F7A902"/>
<path d="M23.9885 102.915C23.9885 103.663 24.5916 104.268 25.3352 104.268H26.9959C27.7395 104.268 28.3426 103.663 28.3426 102.915C28.3426 102.168 27.7395 101.562 26.9959 101.562H25.3352C24.5916 101.562 23.9885 102.168 23.9885 102.915Z" fill="#F7A902"/>
<path d="M45.8708 85.3548V83.6867C45.8708 82.9398 45.2677 82.334 44.5242 82.334C43.7805 82.334 43.1775 82.9398 43.1775 83.6867V85.3548C43.1775 86.1019 43.7805 86.7075 44.5242 86.7075C45.2677 86.7075 45.8708 86.1019 45.8708 85.3548Z" fill="#F7A902"/>
<path d="M43.1345 120.521V122.189C43.1345 122.936 43.7376 123.542 44.4812 123.542C45.2249 123.542 45.8279 122.936 45.8279 122.189V120.521C45.8279 119.775 45.2249 119.169 44.4812 119.169C43.7376 119.169 43.1345 119.775 43.1345 120.521Z" fill="#F7A902"/>
<path d="M37.7521 94.2456C37.2262 93.7176 36.3737 93.7176 35.8476 94.2456C35.3216 94.7737 35.3216 95.6301 35.8476 96.1585L40.4116 100.743C40.0618 101.397 39.863 102.145 39.863 102.938C39.863 105.507 41.9442 107.598 44.5023 107.598C47.0604 107.598 49.1416 105.507 49.1416 102.938C49.1416 102.145 48.9426 101.397 48.5929 100.743L57.8019 91.4933C58.3279 90.9651 58.3279 90.1086 57.8019 89.5803C57.2759 89.0524 56.4235 89.0524 55.8973 89.5803L46.6884 98.8296C46.0366 98.4782 45.2923 98.2785 44.5023 98.2785C43.7123 98.2785 42.968 98.4784 42.3162 98.8296L37.7521 94.2456ZM46.4482 102.938C46.4482 104.016 45.5753 104.893 44.5023 104.893C43.4292 104.893 42.5562 104.016 42.5562 102.938C42.5562 101.86 43.4292 100.984 44.5023 100.984C45.5753 100.984 46.4482 101.86 46.4482 102.938Z" fill="#F7A902"/>
<path d="M28.2179 86.5831C28.4699 86.3316 28.6137 85.9827 28.6137 85.6269C28.6137 85.2712 28.4699 84.9236 28.2179 84.6707C27.9676 84.4194 27.6213 84.2744 27.2659 84.2744C26.9118 84.2744 26.5642 84.4192 26.3137 84.6707C26.0634 84.9223 25.9192 85.2712 25.9192 85.6269C25.9192 85.9839 26.0634 86.3316 26.3137 86.5831C26.5642 86.8346 26.9118 86.9794 27.2659 86.9794C27.6213 86.9794 27.9676 86.8346 28.2179 86.5831Z" fill="#F7A902"/>
<path d="M53.8311 72.3315C54.1868 72.3315 54.5342 72.188 54.7846 71.9351C55.0351 71.6834 55.1794 71.3357 55.1794 70.9787C55.1794 70.6228 55.0352 70.2738 54.7846 70.0222C54.5342 69.7707 54.1868 69.6257 53.8311 69.6257C53.4769 69.6257 53.1294 69.7705 52.8791 70.0222C52.6287 70.2738 52.4844 70.6228 52.4844 70.9787C52.4844 71.3357 52.6285 71.6834 52.8791 71.9351C53.1294 72.188 53.4769 72.3315 53.8311 72.3315Z" fill="#F7A902"/>
<path d="M304.836 112.178C302.97 112.703 302.97 114.547 302.317 115.853C297.117 126.063 292.966 128.152 281.795 125.538C275.265 124.021 269.05 124.884 263.045 127.486C255.932 130.567 253.576 135.001 254.952 142.807C255.769 147.357 254.323 149.901 249.6 150.507C242.557 151.429 236.832 154.766 232.191 160.145C230.582 161.989 229.159 164.287 225.696 164.544C223.842 164.019 222.082 162.689 221.044 160.705C220.787 158.535 223.306 158.477 223.446 156.831C223.562 155.385 220.834 155.455 222.093 152.876C224.297 149.224 226.221 144.545 227.317 139.598C229.568 129.482 222.023 120.007 212.007 120.054C208.031 120.077 205.372 121.746 203.868 125.398C202.282 129.272 203.775 132.072 206.666 134.639C209.523 137.171 213.476 138.384 215.68 141.92C213.406 146.237 210.269 149.166 205.174 150.251C205.594 145.432 208.124 141.208 205.955 136.447C202.387 133.869 197.221 132.165 197.618 126.25C199.519 124.581 201.629 123.321 202.947 121.489C206.457 116.577 210.386 116.285 215.54 118.922C223.318 122.913 231.876 123.636 240.47 123.753C249.787 123.869 258.625 122.959 261.855 112.061C279.218 119.984 295.449 118.899 301.268 107.989C287.229 112.925 274.565 105.539 261.191 107.873C249.297 100.335 248.096 100.382 237.24 109.693C233.404 112.995 229.451 112.913 225.521 110.264C222.968 108.549 220.857 106.146 218.35 104.326C210.946 98.9582 201.629 102.167 198.387 111.07C193.618 114.255 195.472 119.786 193.945 124.604C186.249 124.418 179.532 122.516 175.265 115.853C171.51 109.984 166.473 106.764 159.593 106.146C154.801 105.726 152.119 102.96 150.894 97.8731C156.923 97.2314 162.846 97.5347 167.324 93.5909C174.927 86.8702 182.378 88.3404 190.248 93.1126C200.65 99.4016 201.046 99.1566 205.547 88.3637C207.797 82.9497 212.322 81.1645 217.686 81.0362C222 80.9312 225.02 82.8797 226.617 87.0919C230.582 97.5464 230.978 97.6631 241.041 92.6342C247.466 89.4138 250.568 90.3006 254.416 96.6596C256.503 100.125 259.104 104.034 263.301 103.019C274.915 100.218 286.366 97.0097 299.017 101.887C298.796 94.5944 296.044 90.919 290.68 91.234C282.821 91.6891 276.921 89.3438 271.767 83.3348C268.537 79.566 263.441 79.0176 258.765 80.6978C251.314 83.3931 246.184 80.9779 241.811 74.7355C236.319 66.8829 233.264 66.3929 224.728 70.9084C218.91 73.9887 213.371 72.9386 208.322 69.3449C202.748 65.3778 199.752 59.8121 200.323 52.8463C200.591 49.5793 202.655 47.234 205.652 45.6939C213.348 41.7268 221.114 44.037 225.51 51.6795C230.267 59.9405 234.08 60.7922 241.846 55.2966C242.639 54.7366 243.385 54.1182 244.178 53.5464C250.696 48.9259 253.845 49.8243 256.97 57.3502C258.532 61.1073 259.605 65.0861 261.354 68.7498C264.421 75.1672 268.234 76.3923 274.554 73.452C282.238 69.8699 287.427 71.5385 291.508 78.866C293.98 83.2998 296.685 87.5353 301.723 91.9691C301.373 89.4838 301.454 88.6671 301.14 88.0603C296.58 79.181 289.153 71.9352 286.459 61.9474C286.063 60.5005 284.29 58.902 282.798 58.3536C271.953 54.3982 264.899 45.6005 256.655 38.3197C251.932 34.1659 246.872 30.5022 240.225 30.4555C234.127 30.4088 228.378 28.8336 222.525 27.3868C211.132 24.5631 199.81 23.513 190.015 32.194C188.126 33.8625 185.759 34.5743 183.509 33.6058C180.127 32.159 177.025 29.9654 173.131 32.1007C169.703 33.9675 168.758 37.3513 168.152 41.3184C162.87 34.3293 160.176 26.6167 154.614 20.7827C154.229 20.701 153.856 20.631 153.483 20.5494C153.518 20.9344 153.553 21.3194 153.6 21.6928C167.056 43.2903 179.614 65.5294 197.641 83.9999C198.178 76.7657 194.738 71.0134 191.391 65.2961C186.634 57.1402 179.591 50.9328 173.049 44.2937C170.484 41.6684 169.469 38.6931 172.163 35.4844C174.542 32.6724 177.364 32.2407 180.419 34.3176C184.43 37.0596 188.22 36.4178 191.601 33.4191C198.492 27.3518 206.55 26.36 215.097 27.8652C221.767 29.032 228.32 31.4589 235.001 31.8206C244.097 32.299 251.454 35.4844 257.763 41.8318C264.736 48.8559 271.65 55.8333 281.165 59.7421C285.386 61.469 287.369 65.7628 287.66 71.0834C282.984 69.5316 278.623 68.7381 274.507 71.3051C268.665 74.9572 265.015 72.6002 262.672 66.9646C261.028 63.0325 259.838 58.902 258.042 55.0516C254.824 48.1791 250.218 47.0474 243.98 51.3062C242.219 52.508 240.563 53.8731 238.744 54.9933C234.348 57.6886 230.687 57.2218 228.087 52.333C227.084 50.4661 226.069 48.5175 224.67 46.9423C220.169 41.8784 214.397 41.19 208.159 42.7185C203.028 43.9787 199.122 46.954 198.434 52.333C197.466 59.8821 200.731 66.0545 206.701 70.5C212.263 74.6538 218.35 76.4157 225.172 72.9153C233.777 68.4931 235.083 68.8315 240.972 76.8241C245.542 83.0081 251.046 85.5517 258.649 82.7747C263.896 80.8612 268.77 82.0046 272.315 86.4035C276.653 91.8057 282.086 93.6376 288.791 92.9375C292.872 92.5175 295.764 94.3727 297.245 98.3281C294.773 100.02 292.791 98.4332 290.878 97.9781C283.847 96.2863 277.107 96.648 270.414 99.5766C262.473 103.054 260.188 102.202 255.652 94.8628C251.664 88.3987 247.863 87.3136 241.03 90.4523C237.975 91.8524 235.246 94.7111 231.083 92.9842C230.617 92.1441 229.789 91.199 229.568 90.1255C228.157 83.1831 224.635 78.901 216.916 79.216C209.29 79.5194 205.547 82.5997 202.655 91.1873C202.235 92.4125 201.373 93.4743 200.859 94.3844C196.032 95.7029 193.117 92.5175 189.875 90.6623C181.9 86.0768 174.355 85.2483 166.729 91.549C161.832 95.5978 155.92 96.4029 149.95 95.4111C145.845 91.2457 143.56 85.0733 136.867 85.2483C134.989 86.7185 133.975 88.0603 134.336 90.4173C137.147 95.8779 143.292 96.0295 148.667 98.0831C150.311 105.084 155.197 108.083 162.135 108.619C166.006 108.911 169.434 110.801 171.405 114.022C176.792 122.796 184.581 126.821 194.936 126.681C196.417 132.165 199.81 135.946 204.486 137.638C206.375 142.993 202.014 147.135 203.343 151.756C211.366 152.141 217.464 146.459 216.636 139.563C213.325 136.389 208.73 134.697 205.908 131.01C205.197 123.309 208.812 120.276 215.808 122.516C222.443 124.639 226.431 130.788 225.486 137.859C224.659 144.137 222.186 149.772 218.152 154.883C213.01 155.548 207.984 156.726 203.553 158.943C201.291 157.998 203.203 154.673 200.183 154.404C197.466 158.687 197.303 164.136 201.174 166.341C209.08 170.845 212.462 161.37 218.28 158.943C221.615 167.589 227.061 168.803 233.159 161.942C237.602 156.936 242.767 153.319 249.379 152.491C256.06 151.651 258.042 147.882 256.713 141.955C255.349 135.922 257.949 132.165 263.01 129.715C268.91 126.856 275.113 125.328 281.585 127.545C287.683 129.622 293.269 128.968 298.493 125.27C294.75 132.865 288.406 137.089 280.361 139.003C272.525 140.881 265.937 144.498 264.141 152.981C261.727 164.322 254.031 169.258 243.677 171.801C240.738 172.525 237.298 171.871 234.232 174.427C251.373 174.893 261.086 168.406 265.902 153.424C267.931 147.089 272.035 143.227 278.355 141.64C283.089 140.45 287.66 138.968 291.706 136.109C299.717 130.462 306.119 118.864 304.836 112.178ZM295.099 111.443C285.305 118.035 271.965 117.23 263.779 108.888C274.985 109.331 284.862 113.018 295.099 111.443ZM195.227 79.286C186.086 68.4348 177.41 57.2685 170.612 44.7371C181.002 54.6899 191.38 64.6427 195.227 79.286ZM137.87 86.9635C141.508 88.1303 143.805 90.6506 145.729 94.046C138.534 93.8943 136.027 91.6307 137.87 86.9635ZM198.411 111.093C198.702 111.303 198.982 111.455 199.262 111.56C199.029 111.361 198.761 111.198 198.446 111.081C200.545 111 201.011 108.969 202.177 107.838C207.716 102.482 212.532 102.179 218.583 107.032C219.936 108.129 221.195 109.343 222.548 110.44C228.821 115.562 234.057 115.34 239.98 109.739C247.361 102.762 252.527 102.879 259.896 110.335C258.544 117.627 254.02 121.174 246.673 121.489C235.759 121.956 224.973 121.664 214.91 116.577C209.908 114.045 205.582 114.745 202.165 119.482C200.941 121.186 199.67 122.924 197.023 123.251C195.064 118.899 198.679 115.177 198.411 111.093ZM200.335 163.937C205.197 161.16 208.695 157.356 214.397 158.698C210.328 161.184 207.902 168.021 200.335 163.937ZM194.738 212.989C178.46 226.058 158.893 226.956 139.479 227.329C124.798 227.609 119.656 219.36 124.553 205.557C124.856 204.682 124.833 203.69 124.973 202.733C123.644 201.158 122.419 199.711 121.172 198.218C123.189 196.678 124.88 194.939 126.92 193.959C129.124 192.897 131.655 192.547 133.987 191.905C135.479 184.811 130.698 181.323 116.578 179.199C116.251 174.73 119.947 174.847 122.653 173.68C125.44 172.478 128.961 171.428 128.46 167.426C127.993 163.704 125.556 161.242 120.904 158.453C123.142 163.552 125.241 166.994 120.88 169.993C118.432 167.659 115.925 165.594 112.228 167.461C109.348 168.908 110.549 171.451 110.806 173.598C100.789 174.205 97.7575 169.993 101.489 161.359C104.719 153.879 107.459 146.272 109.605 138.373C110.864 133.717 114.094 129.552 116.752 125.363C118 123.403 120.029 123.648 121.731 125.223C120.635 136.307 123.154 141.418 131.118 143.682C132.354 139.96 134.395 136.949 138.732 136.109C142.347 135.421 146.475 136.051 150.066 132.049C142.172 128.712 134.5 126.67 126.734 124.534C138.208 119.086 148.142 130.345 160.316 127.988C154.696 120.544 147.28 117.732 139.689 115.888C128.774 113.252 119.108 116.098 110.491 126.67C112.286 111.828 114.362 99.2033 114.409 86.8235C120.064 84.8633 124.425 84.1866 128.926 84.4199C132.156 84.5833 135.537 84.1165 137.461 81.5496C141.543 76.1006 146.172 76.8474 151.361 79.2743C155.36 81.1412 159.838 82.483 163.511 79.4377C170.111 73.9654 176.384 75.6222 182.914 79.0876C185.864 80.6512 188.488 83.0081 192.534 82.378C184.15 77.3841 175.778 72.3902 167.394 67.408C167.091 67.3497 166.776 67.2913 166.449 67.233C166.123 67.618 166.543 67.9681 166.543 68.3298C168.443 69.9166 170.344 71.5035 172.408 73.2186C170.251 73.8371 167.837 73.8137 166.648 75.0038C160.817 80.8145 154.894 79.0176 148.551 76.1706C145.915 74.9922 141.927 74.3388 140.225 76.544C134.978 83.3931 127.632 82.273 120.635 83.0664C116.461 83.5331 111.785 84.7116 112.1 89.9622C112.8 101.735 109.057 113.053 109.022 124.651C108.998 136.004 105.78 146.4 101.396 156.586C94.7958 171.941 97.2445 175.71 113.826 175.395C113.989 175.395 114.152 175.57 114.432 175.734C115.598 180.109 109.115 185.523 116.099 188.977C115.761 191.345 114.572 193.341 116.216 197.121C117.627 198.264 120.332 200.446 122.175 201.928C123.002 205.697 121.428 207.704 120.892 209.932C118.968 217.832 121.382 223.129 128.658 226.641C132.949 228.718 137.461 229.593 142.196 229.301C148.177 228.916 154.148 228.461 160.677 227.994C157.949 230.69 158.462 233.408 159.197 236.267C163.348 252.602 162.8 268.902 158.882 285.214C157.063 292.787 156.107 300.488 157.343 308.305C158.579 316.146 163.173 320.533 170.682 321C180.629 312.016 184.302 295.039 179.358 280.01C178.168 276.405 177.877 272.986 178.39 269.182C179.684 259.801 184.407 252.112 189.537 244.54C189.607 244.166 189.677 243.781 189.747 243.408C189.374 243.501 189.012 243.606 188.639 243.7C179.089 255.239 173.329 267.432 178.145 283.184C182.168 296.381 179.101 308.737 170.309 319.285C164.281 318.491 161.342 315.236 159.908 310.359C158.089 304.245 158.334 298.014 159.71 291.935C164.117 272.379 165.983 252.859 160.526 233.187C160.351 232.545 160.759 231.74 160.957 230.701C166.17 229.756 171.289 228.916 176.384 227.878C181.328 226.874 186.272 225.673 190.598 222.966C194.889 220.27 199.075 217.353 199.74 211.554C197.233 211.064 195.892 212.056 194.738 212.989ZM126.092 166.271C126.676 168.931 126.197 170.261 123.749 170.483L123.702 170.518C124.402 169.281 125.09 168.044 126.092 166.271ZM123.469 131.489C122.478 130.31 123.142 129.587 123.772 128.852C123.679 129.668 123.585 130.508 123.469 131.489ZM147.186 132.585C142.336 133.437 139.514 133.927 136.704 134.417C135.701 131.045 131.608 131.244 129.218 127.533C135.153 129.19 140.12 130.59 147.186 132.585ZM132.238 133.425C130.442 134.779 129.124 135.771 127.69 136.844C125.743 134.534 125.3 132.317 126.466 129.738C128.844 129.925 130.115 131.64 132.238 133.425ZM156.433 126.121C149.682 126.145 143.688 123.111 137.426 121.279C132.587 119.856 128.273 119.716 124.285 123.624C122.769 122.924 121.277 122.236 119.901 121.594C120.845 113.73 143.793 116.845 156.433 126.121ZM112.182 169.433C115.353 168.161 117.091 168.546 118.63 171.405C116.484 171.475 114.619 171.743 112.182 169.433ZM116.181 183.458C122.314 180.599 127.34 182.058 131.806 188.008C123.683 187.433 118.474 185.916 116.181 183.458ZM127.702 190.669C124.856 192.594 123.142 195.522 119.026 195.803C119.015 190.237 121.37 188.883 127.702 190.669ZM176.641 225.404C183.066 221.95 189.491 218.508 195.904 215.066C191.601 222.464 184.267 224.202 176.641 225.404ZM166.274 48.7859C169.026 51.4112 171.254 54.3749 172.163 58.342C160.071 50.2094 149.892 39.2181 135.328 35.2627C133.229 38.378 135.736 41.4 133.963 44.9354C133.334 45.6355 132.063 47.024 130.71 48.5175C131.888 50.3144 132.937 51.8896 134.266 53.9315C128.436 60.2205 119.726 56.8251 113.266 60.4072C113.581 63.0325 117.51 63.4992 116.717 67.6297C115.82 70.2083 111.377 69.8583 109.173 73.4753C108.357 76.1123 107.774 79.4027 111.703 82.028C116.414 80.2428 118.432 76.4273 118.863 71.8185C119.318 67.0229 121.533 64.351 126.349 63.7559C131.095 63.1608 134.605 60.7339 136.832 56.4284C139.887 50.5244 144.458 50.2094 149.367 53.6981C155.524 58.0619 161.389 62.8225 167.382 67.408C167.091 67.723 166.811 68.0264 166.519 68.3414C161.832 64.9344 157.144 61.5273 152.457 58.1203C149.495 55.9734 146.65 53.5698 143.012 53.4297C140.388 54.0481 139.211 55.8684 138.243 57.7702C135.934 62.2741 132.156 65.0277 127.34 65.5178C122.921 65.9728 121.312 68.2248 120.787 72.1452C120.052 77.6758 117.51 81.958 112.286 84.2216C103.506 80.0678 104.357 74.2921 114.782 66.3345C114.444 63.6976 110.724 63.3009 110.712 59.7421C116.449 54.8299 124.717 57.7236 131.106 54.3165C131.538 51.7729 128.553 50.8861 128.588 49.9644C128.646 45.8806 131.783 45.4372 133.205 42.0068C133.94 40.4433 130.85 37.7013 132.377 34.7843C135.689 32.6607 138.756 34.0375 141.741 35.391C150.649 39.4398 158.287 45.3788 165.703 51.6329L165.68 51.5862C165.528 50.9561 165.388 50.3377 165.237 49.7077C165.19 49.3226 165.155 48.9492 165.108 48.5642C165.482 48.6459 165.855 48.7159 166.24 48.7976L166.274 48.7859ZM165.272 49.696C158.334 42.4268 151.594 35.1693 141.356 32.019C135.188 30.1171 132.168 22.1362 134.686 17.8657C137.566 12.9652 144.889 12.6851 151.023 17.2473C151.104 17.609 151.197 17.9824 151.279 18.3441C150.906 18.2858 150.533 18.2274 150.16 18.1691C143.303 14.8904 137.473 15.5671 135.934 19.8143C134.488 23.8047 138.849 29.4987 144.994 31.5173C154.288 34.5626 160.584 41.295 166.274 48.7742C165.936 49.0776 165.61 49.381 165.272 49.6843V49.696ZM188.639 243.7C196.662 232.743 208.8 226.746 219.143 218.567C210.2 228.286 198.352 234.692 189.537 244.54C189.234 244.26 188.942 243.98 188.639 243.7Z" fill="white"/>
</svg>
