<svg width="306" height="336" viewBox="0 0 306 336" fill="none" xmlns="http://www.w3.org/2000/svg">
<path d="M171.264 104.353C172.664 103.872 174.063 103.3 175.477 102.683C174.033 103.135 172.633 103.691 171.264 104.353ZM171.264 104.353C172.664 103.872 174.063 103.3 175.477 102.683C174.033 103.135 172.633 103.691 171.264 104.353ZM171.264 104.353C172.664 103.872 174.063 103.3 175.477 102.683C174.033 103.135 172.633 103.691 171.264 104.353ZM171.264 104.353C172.664 103.872 174.063 103.3 175.477 102.683C174.033 103.135 172.633 103.691 171.264 104.353ZM171.264 104.353C172.664 103.872 174.063 103.3 175.477 102.683C174.033 103.135 172.633 103.691 171.264 104.353ZM171.264 104.353C172.664 103.872 174.063 103.3 175.477 102.683C174.033 103.135 172.633 103.691 171.264 104.353ZM171.264 104.353C172.664 103.872 174.063 103.3 175.477 102.683C174.033 103.135 172.633 103.691 171.264 104.353ZM171.264 104.353C172.664 103.872 174.063 103.3 175.477 102.683C174.033 103.135 172.633 103.691 171.264 104.353ZM171.264 104.353C172.664 103.872 174.063 103.3 175.477 102.683C174.033 103.135 172.633 103.691 171.264 104.353ZM171.264 104.353C172.664 103.872 174.063 103.3 175.477 102.683C174.033 103.135 172.633 103.691 171.264 104.353ZM171.264 104.353C172.664 103.872 174.063 103.3 175.477 102.683C174.033 103.135 172.633 103.691 171.264 104.353ZM171.264 104.353C172.664 103.872 174.063 103.3 175.477 102.683C174.033 103.135 172.633 103.691 171.264 104.353ZM171.264 104.353C172.664 103.872 174.063 103.3 175.477 102.683C174.033 103.135 172.633 103.691 171.264 104.353ZM171.264 104.353C172.664 103.872 174.063 103.3 175.477 102.683C174.033 103.135 172.633 103.691 171.264 104.353ZM171.264 104.353C172.664 103.872 174.063 103.3 175.477 102.683C174.033 103.135 172.633 103.691 171.264 104.353ZM171.264 104.353C172.664 103.872 174.063 103.3 175.477 102.683C174.033 103.135 172.633 103.691 171.264 104.353ZM171.264 104.353C172.664 103.872 174.063 103.3 175.477 102.683C174.033 103.135 172.633 103.691 171.264 104.353ZM171.264 104.353C172.664 103.872 174.063 103.3 175.477 102.683C174.033 103.135 172.633 103.691 171.264 104.353ZM171.264 104.353C172.664 103.872 174.063 103.3 175.477 102.683C174.033 103.135 172.633 103.691 171.264 104.353ZM171.264 104.353C172.664 103.872 174.063 103.3 175.477 102.683C174.033 103.135 172.633 103.691 171.264 104.353ZM171.264 104.353C172.664 103.872 174.063 103.3 175.477 102.683C174.033 103.135 172.633 103.691 171.264 104.353ZM171.264 104.353C172.664 103.872 174.063 103.3 175.477 102.683C174.033 103.135 172.633 103.691 171.264 104.353ZM171.264 104.353C172.664 103.872 174.063 103.3 175.477 102.683C174.033 103.135 172.633 103.691 171.264 104.353ZM171.264 104.353C172.664 103.872 174.063 103.3 175.477 102.683C174.033 103.135 172.633 103.691 171.264 104.353ZM171.264 104.353C172.664 103.872 174.063 103.3 175.477 102.683C174.033 103.135 172.633 103.691 171.264 104.353ZM171.264 104.353C172.664 103.872 174.063 103.3 175.477 102.683C174.033 103.135 172.633 103.691 171.264 104.353ZM171.264 104.353C172.664 103.872 174.063 103.3 175.477 102.683C174.033 103.135 172.633 103.691 171.264 104.353ZM171.264 104.353C172.664 103.872 174.063 103.3 175.477 102.683C174.033 103.135 172.633 103.691 171.264 104.353ZM171.264 104.353C172.664 103.872 174.063 103.3 175.477 102.683C174.033 103.135 172.633 103.691 171.264 104.353ZM171.264 104.353C172.664 103.872 174.063 103.3 175.477 102.683C174.033 103.135 172.633 103.691 171.264 104.353ZM171.264 104.353C172.664 103.872 174.063 103.3 175.477 102.683C174.033 103.135 172.633 103.691 171.264 104.353ZM171.264 104.353C172.664 103.872 174.063 103.3 175.477 102.683C174.033 103.135 172.633 103.691 171.264 104.353ZM171.264 104.353C172.664 103.872 174.063 103.3 175.477 102.683C174.033 103.135 172.633 103.691 171.264 104.353ZM171.264 104.353C172.664 103.872 174.063 103.3 175.477 102.683C174.033 103.135 172.633 103.691 171.264 104.353ZM171.264 104.353C172.664 103.872 174.063 103.3 175.477 102.683C174.033 103.135 172.633 103.691 171.264 104.353ZM171.264 104.353C172.664 103.872 174.063 103.3 175.477 102.683C174.033 103.135 172.633 103.691 171.264 104.353ZM171.264 104.353C172.664 103.872 174.063 103.3 175.477 102.683C174.033 103.135 172.633 103.691 171.264 104.353ZM171.264 104.353C172.664 103.872 174.063 103.3 175.477 102.683C174.033 103.135 172.633 103.691 171.264 104.353ZM171.264 104.353C172.664 103.872 174.063 103.3 175.477 102.683C174.033 103.135 172.633 103.691 171.264 104.353ZM171.264 104.353C172.664 103.872 174.063 103.3 175.477 102.683C174.033 103.135 172.633 103.691 171.264 104.353ZM171.264 104.353C172.664 103.872 174.063 103.3 175.477 102.683C174.033 103.135 172.633 103.691 171.264 104.353ZM171.264 104.353C172.664 103.872 174.063 103.3 175.477 102.683C174.033 103.135 172.633 103.691 171.264 104.353ZM171.264 104.353C172.664 103.872 174.063 103.3 175.477 102.683C174.033 103.135 172.633 103.691 171.264 104.353ZM171.264 104.353C172.664 103.872 174.063 103.3 175.477 102.683C174.033 103.135 172.633 103.691 171.264 104.353ZM171.264 104.353C172.664 103.872 174.063 103.3 175.477 102.683C174.033 103.135 172.633 103.691 171.264 104.353ZM171.264 104.353C172.664 103.872 174.063 103.3 175.477 102.683C174.033 103.135 172.633 103.691 171.264 104.353ZM171.264 104.353C172.664 103.872 174.063 103.3 175.477 102.683C174.033 103.135 172.633 103.691 171.264 104.353ZM171.264 104.353C172.664 103.872 174.063 103.3 175.477 102.683C174.033 103.135 172.633 103.691 171.264 104.353ZM302.031 167.468C298.3 160.863 297.969 154.529 300.015 147.654C288.024 147.759 277.554 152.618 266.947 158.26C258.883 155.658 252.234 156.485 250.94 167.935C247.54 165.226 247.796 161.826 246.396 158.306C264.555 153.326 278.998 136.941 298.661 141.094C301.835 144.374 299.308 145.923 300.09 147.578C304.272 143.606 303.881 140.913 298.811 138.672C295.171 137.062 290.793 138.265 286.625 135.286C290.191 114.975 275.192 113.486 260.929 111.996C260.644 108.837 260.809 106.7 264.269 105.271C271.009 108.476 277.448 115.096 286.625 112.688C287.979 109.92 289.394 107.242 288.416 104.534C286.415 100.411 281.796 100.487 279.133 97.4024V91.3843C277.328 88.9771 275.041 88.0894 272.89 88.1496C260.222 88.4204 252.339 80.958 244.982 71.9759C240.8 66.8756 235.354 62.4373 228.163 64.1374C219.226 66.2437 213.329 62.5877 208.409 55.8775C213.539 54.7792 216.669 60.4513 222.024 60.1805C223.078 56.043 228.358 52.2968 221.829 48.3549C221.739 49.5284 221.633 50.702 221.558 51.6799C218.519 56.028 214.216 47.723 211.238 52.7782C195.847 47.5124 189.197 50.6568 182.578 66.4393C181.359 69.3581 179.464 71.4644 176.726 72.984C166.646 78.5808 158.281 85.8326 154.354 97.267H136.376C136.767 88.4054 138.934 81.2288 147.253 77.3622C152.91 74.7142 158.702 72.3972 164.419 69.9147C170.828 67.1163 175.868 63.5356 177.418 55.7572C178.591 49.8594 184.233 47.5725 189.619 45.8123C200.691 42.2014 211.253 44.8945 221.769 48.2797C221.137 44.7892 217.932 44.383 215.51 43.8263C199.999 40.2004 185.15 39.8694 174.093 54.1473C167.594 48.9718 167.473 35.4611 173.792 28.4049C175.793 31.8352 174.318 36.6046 178.561 39.5384C187.091 40.0048 182.382 28.9616 188.761 27.8482C187.121 19.4379 182.217 15.4058 174.619 15.0297C166.194 14.6084 160.282 18.6857 157.062 26.5092C154.339 33.1441 155.393 40.2756 154.911 48.0389C145.253 47.4371 136.121 47.8283 132.796 58.3299C118.88 59.3981 103.67 56.5245 100.255 75.4664C96.8545 74.5487 94.0563 73.7964 88.7305 72.3521C93.5598 68.2447 97.6067 65.2959 101.067 61.7753C108.243 54.4633 111.869 45.9326 107.295 35.8523C102.963 26.3286 94.4173 23.8913 84.8942 23.8161C74.694 23.7409 71.7152 28.5403 75.7471 38.3047C78.3649 40.8774 81.4941 40.0198 84.9844 38.6206C84.0968 44.052 78.0038 48.8063 85.0597 53.1393C88.1287 52.7782 90.3102 51.5445 90.912 48.3399C89.1668 48.9868 87.4216 49.6488 85.6765 50.2957C83.9915 43.721 86.3986 40.9978 92.8377 42.4421C92.2058 44.398 91.589 46.3539 90.9571 48.2947C97.4262 52.8233 91.3483 54.4332 88.7907 55.9076C78.3649 61.9709 70.3462 69.6439 69.0975 82.6129C66.0886 83.8767 63.1549 85.0954 60.0407 86.4043C54.7451 80.1907 52.1725 73.3902 52.1875 65.6269C52.1875 56.4793 61.831 58.0892 66.0585 53.6358C66.0134 49.4683 66.1638 45.5113 64.5089 42.0058C61.5301 39.4632 58.5814 39.3277 55.1513 40.1853C45.237 42.6678 38.1962 53.9216 38.9033 66.7703C39.49 77.3922 43.3865 87.1416 47.5689 96.8307C28.2969 100.126 20.9552 109.559 22.6101 127.568C11.7179 144.795 10.7852 155.071 18.2924 174.359C19.6163 177.759 20.9703 181.174 20.7747 185.402C13.4631 183.1 6.40723 180.979 0.509805 187.704C0.208916 191.766 -0.0919737 195.678 3.1125 199.966C5.29394 192.579 8.07717 197.634 10.9507 199.334C11.4321 197.845 11.8232 196.536 12.2294 195.272C12.0489 197.679 14.1551 199.62 14.2304 202.147C10.8303 207.308 7.70106 212.845 6.84352 219.088C5.97094 225.392 4.16561 232.012 9.04001 237.775C17.5401 247.78 25.1376 258.688 37.6245 264.149C34.5705 271.626 32.1333 278.728 37.9254 284.641C44.9963 291.877 53.4813 288.974 61.6505 285.619C62.4779 288.251 63.1248 290.373 63.6664 292.073C73.8967 294.691 83.5251 293.863 92.4615 289.079C102.917 283.467 103.67 273.913 100.42 262.975C116.187 275.237 109.492 290.087 108.228 304.245C113.178 295.323 113.734 285.649 112.997 274.305C137.836 293.186 162.599 287.77 187.678 276.411C189.769 281.466 191.665 286.265 193.741 290.99C196.193 296.556 197.276 302.093 193.034 307.239C188.821 312.339 183.044 314.009 176.786 312.7C172.423 311.782 168.225 309.977 164.073 308.262C152.97 303.643 141.522 301.536 129.606 303.989C119.767 306.02 109.958 308.397 102.286 317.8C113.072 322.57 122.761 320.855 132.405 319.907C124.205 317.484 115.299 320.674 106.934 316.642C109.492 313.046 112.847 311.857 116.021 310.518C132.916 303.447 149.57 304.169 166.164 311.842C175.417 316.13 184.985 318.237 193.515 310.383C201.624 302.906 197.622 294.33 194.854 286.025L194.824 285.995C205.31 287.559 211.884 280.774 218.624 274.244C231.292 286.22 245.78 291.155 261.321 282.805C279.269 273.161 281.646 256.356 277.478 238.121C288.009 226.084 289.348 212.86 283.797 198.657C282.639 195.678 282.503 193.361 286.159 191.841C289.108 191.932 292.628 196.355 295.502 191.285C293.456 190.427 290.913 191.751 288.145 188.742C296.51 176.676 290.462 164.986 284.925 153.25C288.325 150.151 291.996 151.31 296.645 151.279C294.93 159.584 298.405 166.189 301.7 172.824C305.747 180.994 299.082 185.568 295.577 191.21C305.521 186.892 308.214 178.376 302.031 167.468ZM283.526 157.283C281.901 157.538 280.878 156.906 280.111 155.176C282.232 154.514 283.225 155.191 283.526 157.283ZM272.905 165.708C272.965 167.634 273.221 169.62 271.024 171.5C264.585 170.898 262.735 162.789 255.363 161.901C263.667 156.199 267.444 164.294 272.905 165.708ZM261.576 169.018C264.555 171.154 267.519 173.291 270.799 175.623C267.444 181.129 263.457 185.793 256.973 188.592C254.626 180.648 258.567 175.006 261.576 169.018ZM273.777 177.849C274.048 180.828 272.453 181.821 270.031 182.032C271.084 180.573 271.445 178.451 273.777 177.849ZM270.046 144.509C270.758 140.347 274.424 138.857 281.044 140.041C277.463 141.5 273.898 142.944 270.046 144.509ZM282.954 134.835C279.615 135.933 276.2 135.798 272.228 134.835C272.228 127.327 268.211 121.46 262.389 115.261C280.592 115.848 287.528 122.949 282.954 134.835ZM261.636 118.526C268.933 124.86 270.648 132.458 267.052 141.395C263.261 150.798 254.686 152.528 246.863 155.116C244.411 152.919 244.621 151.249 245.765 149.248C256.627 130.156 256.792 128.877 251.361 108.852C253.558 107.257 255.483 106.264 258.537 106.324C256.882 111.139 257.905 115.291 261.636 118.526ZM285.858 105.737C281.916 110.071 276.997 103.27 273.13 106.776C262.434 100.833 253.302 101.901 245.915 109.995C253.272 114.464 251.903 121.866 251.737 128.546C251.376 143.035 240.74 154.364 226.011 156.184C224.341 151.761 227.275 147.548 226.553 142.974C233.082 138.822 233.067 132.338 232.435 125.341C237.55 120.933 242.53 116.194 245.855 110.04C241.853 109.965 240.664 113.516 238.679 115.848C231.457 124.318 223.499 124.529 216.172 115.743C209.853 108.175 203.129 101.269 193.997 96.9812C195.08 93.7916 196.103 90.7675 197.216 87.4876C208.499 94.7093 217.571 105.196 229.381 111.109C243.734 97.1768 273.687 94.7093 285.858 105.737ZM227.26 138.687C226.417 136.069 227.591 135.016 229.351 134.263C229.411 135.888 229.095 137.363 227.26 138.687ZM229.471 133.992C229.562 132.984 229.652 131.946 229.772 130.397C230.72 132.172 230.209 133.12 229.471 133.992ZM257.65 96.1236C259.034 94.3934 260.493 94.0323 264.42 96.4696C260.628 96.274 259.199 96.1988 257.65 96.1236ZM237.55 93.7464C235.459 95.8377 238.98 96.4245 238.664 98.5308C234.933 100.878 232.149 104.699 228.809 109.017C217.526 99.9451 206.739 91.264 196.389 82.959C195.095 75.2859 198.284 70.5918 204.212 68.5456C210.726 66.2888 216.037 69.2828 219.286 75.1806C221.107 78.4755 222.822 81.7704 225.53 84.4334C227.877 86.7353 228.448 89.0373 224.793 91.8658C217.616 88.601 210.892 84.945 211.343 74.8045C208.274 80.2057 208.545 82.7032 213.434 87.3973C218.579 92.3322 223.649 95.8377 232.014 93.0393C243.132 89.3231 254.611 90.271 266.06 91.3843C256.536 92.0162 247.134 96.1386 237.55 93.7464ZM224.326 80.7473C230.84 81.5598 234.03 83.5307 237.475 86.0583C235.865 88.8718 233.067 88.8417 230.69 90.0303C229.772 86.7353 229.456 83.5006 224.326 80.7473ZM201.398 54.719C205.31 57.8033 209.131 61.023 213.148 63.9418C217.3 66.9659 221.633 68.8315 227.109 66.9659C232.375 65.1755 236.708 67.658 240.71 71.1635C246.517 76.2488 250.037 83.621 259.034 87.7735C251.105 89.1576 245.373 89.6692 240.228 84.8096C238.272 82.959 235.76 81.4545 233.233 80.5217C227.35 78.3551 222.491 75.6019 218.369 70.2608C212.757 62.9638 206.694 63.7011 195.245 70.8776C191.62 66.0481 193.651 61.008 194.644 56.028C194.674 55.9828 194.704 55.9528 194.734 55.9076C197.051 56.7201 198.811 53.6358 201.398 54.719ZM192.974 55.7572C188.445 61.8655 190.371 67.8235 193.35 73.7964L193.289 73.7212C190.777 71.4795 188.265 69.2528 185.933 67.1765C185.903 61.4142 188.671 58.0892 192.974 55.7572ZM146.11 99.7946C149.676 99.3583 153.437 100.517 157.108 100.953C157.694 93.8517 160.763 88.9771 167.022 84.614C173.115 80.3712 178.095 74.3381 184.819 70.1856C189.95 73.2849 192.297 78.4003 193.876 83.9821C195.26 88.8116 194.027 94.3031 190.01 95.9129C184.985 97.9441 180.171 100.622 175.477 102.683C186.504 99.1627 199.217 101.525 207.567 109.845C213.028 115.276 217.451 121.716 224.371 125.672C226.508 126.891 227.982 129.103 226.026 133.165C221.573 127.327 216.503 123.461 210.967 120.106C203.866 115.788 197.216 114.178 189.528 119.73C182.894 124.529 172.664 122.453 162.132 115.818C161.185 113.456 162.749 111.605 163.486 109.649C165.818 107.468 168.451 105.692 171.264 104.353C169.519 104.955 167.804 105.407 166.089 105.647C161.23 105.196 161.034 100.171 157.183 101.028C162.885 111.364 160.673 115.592 147.344 119.88C138.934 122.603 130.659 123.987 123.604 116.69C114.833 107.648 109.778 97.1617 111.372 84.2378C111.538 82.8988 112.787 81.6952 113.449 80.5818C119.858 78.1595 122.866 82.0563 124.597 86.6752C128.418 96.8608 135.233 101.134 146.11 99.7946ZM213.976 232.268C210.305 226.942 216.413 197.784 222.596 191.089C225.259 197.032 218.94 227.213 213.976 232.268ZM194.794 186.26C184.624 186.23 175.326 185.417 166.104 181.325C174.138 172.719 184.88 174.645 194.794 186.26ZM176.214 172.448C183.631 169.845 188.52 174.223 193.259 179.023C187.558 176.856 182.578 172.734 176.214 172.448ZM163.923 177.037V170.267C178.305 163.421 192.402 170.327 206.604 170.658C209.357 176.781 208.996 184.379 215.826 187.975C207.552 188.471 200.962 186.666 195.757 178.782C187.121 165.708 176.62 165.437 163.923 177.037ZM169.429 155.974C180.351 154.439 188.716 160.698 197.472 166.084C186.76 165.873 176.259 163.03 165.337 166.385C164.75 161.826 166.781 159.133 169.429 155.974ZM211.012 154.8C213.494 138.657 207.13 129.208 191.213 126.184C189.769 125.898 188.37 125.357 186.083 124.679C200.24 116.705 211.809 119.218 221.242 131.39C224.131 135.121 224.025 139.288 223.694 143.561C222.822 154.665 221.934 165.768 221.062 176.751C223.89 177.263 223.093 174.87 224.732 174.509C224.266 179.685 222.551 183.657 216.503 185.598C207.657 176.54 209.372 165.542 211.012 154.8ZM113.283 154.905C106.498 157.975 99.8333 161.345 92.5217 168.055C107.942 167.799 121.151 164.053 135.022 164.534C136.181 167.724 136.632 170.312 135.82 173.14C118.865 163.286 113.945 164.64 101.458 180.663C96.3581 187.193 91.0624 193.421 88.1287 203.471C80.3959 182.002 94.1917 165.843 95.9218 147.894C107.22 141.109 117.014 133.075 124.1 121.114C132.013 125.913 140.243 125.447 151.165 120.858C144.756 134.745 148.036 148.842 139.551 160.592C128.689 148.932 127.259 148.586 113.283 154.905ZM133.864 161.044C123.423 163.406 112.591 162.383 102.075 164.64C110.635 159.148 118.895 153.115 129.471 153.642C132.811 155.101 133.578 157.568 133.864 161.044ZM111.989 173.2C115.946 168.807 120.504 168.07 126.492 170.778C121.091 171.681 116.548 172.448 112.004 173.2H111.989ZM134.451 178.948C124.597 184.093 114.878 184.018 104.572 183.627C112.486 173.321 125.635 171.139 134.451 178.948ZM35.0067 172.373C39.6705 176.194 42.6945 178.677 46.2751 181.611C37.444 184.785 36.3307 190.247 39.9263 198.085C43.2511 205.292 39.1289 210.693 33.2616 217.102C31.1403 201.395 37.5041 187.945 35.0067 172.373ZM40.3626 189.389C47.6441 182.589 52.4884 183.01 57.6637 189.765C54.1583 188.652 50.653 187.539 47.1627 186.44C44.8458 186.019 43.5821 188.577 40.3626 189.389ZM46.2901 189.224C50.0362 190.563 46.5458 194.369 49.7052 195.723C52.1273 195.798 50.7884 191.586 53.5114 191.495C56.761 191.405 57.5885 193.662 58.1752 196.746C53.9327 198.326 50.1565 200.884 47.2379 204.389C44.0635 202.84 43.9281 199.831 42.6493 197.574C47.268 196.611 44.9511 192.007 46.2901 189.224ZM33.5324 161.164C32.4943 157.117 30.5235 153.175 32.1934 148.767C33.7129 144.735 35.8041 141.651 40.6936 141.696C45.5228 141.726 48.4114 144.66 49.2388 148.752C50.322 154.228 50.2317 160.307 57.4832 161.059C64.4488 161.781 69.0674 157.267 73.2197 152.393C74.5135 150.873 75.7622 149.324 77.733 146.931C82.1561 150.196 87.0907 149.158 91.589 149.865C93.0633 164.354 81.434 178.888 66.4196 181.746C51.7663 184.514 37.2183 175.457 33.5324 161.164ZM48.5016 117.307C52.022 119.925 53.4362 122.724 54.2787 126.334C48.9831 130.081 49.0131 135.813 49.4946 141.635C47.268 141.756 46.0494 140.552 44.7706 139.228C45.9591 136.204 46.4857 133.09 46.26 130.397C43.9582 125.537 37.3988 126.665 35.8793 121.039C39.1741 116.946 44.0635 117.939 48.5016 117.307ZM36.8572 115.968C37.7148 110.793 41.8068 110.146 45.4777 109.093C47.2529 110.687 47.0273 112.117 46.606 113.681C43.5821 115.261 40.3024 115.923 36.8572 115.968ZM54.4141 128.802C56.1292 134.248 57.1973 137.423 53.6167 140.236C56.1292 143.847 57.092 147.789 55.7982 153.235C53.4212 145.231 49.6751 138.461 54.4141 128.802ZM48.5468 111.56C60.6425 110.462 67.9692 120.181 75.3109 145.337C71.7152 150.753 67.9391 156.154 60.0859 158.366C57.438 141.771 61.6204 124.845 48.5468 111.56ZM44.4246 131.134C40.3776 133.782 35.7439 131.299 33.9536 135.271C29.6509 134.083 27.7854 131.36 26.7473 127.914C27.6199 125.176 29.8916 124.078 32.3288 122.197C35.1722 126.365 39.8059 128.125 44.4246 131.134ZM85.526 173.968C84.3977 179.956 83.5251 184.514 82.6074 189.314C80.2454 190.653 78.2897 186.681 76.7551 187.945C72.1214 190.593 71.8506 194.52 70.8577 198.838C67.1718 194.489 65.1258 190.307 65.2461 184.785C72.4975 182.92 79.1321 179.926 85.526 173.968ZM81.6446 196.882C81.5393 200.538 80.1251 203.186 75.1153 202.704C74.1524 198.627 73.5657 195.031 76.1233 191.631C80.2304 191.179 81.7348 193.391 81.6446 196.882ZM71.1285 203.547C74.2427 210.934 79.072 217.509 80.1251 225.949C81.1632 234.239 83.3145 235.894 91.604 236.571C92.7624 239.776 94.4474 242.89 93.62 246.997C88.1438 251.165 83.8712 248.336 82.2464 243.176C78.3649 230.899 76.6799 217.87 68.0745 207.413C67.0815 206.21 68.4506 204.194 71.1285 203.547ZM81.8552 221.165C80.5614 216.471 78.1242 212.077 76.033 207.218C78.5905 205.006 82.126 204.148 84.4428 200.146C86.3384 211.746 88.0385 222.128 89.9642 233.908C81.464 231.26 83.0738 225.633 81.8552 221.165ZM132.976 94.8146C127.876 89.4886 125.003 85.2007 129.922 79.8898C132.751 79.0171 134.631 79.8897 136.421 82.1616C136.662 86.2088 134.451 89.7895 132.976 94.8146ZM180.276 37.6728C177.839 34.7089 176.635 32.7229 177.734 29.759C182.578 30.6617 181.69 33.4601 180.276 37.6728ZM171.881 17.5573C179.178 16.5492 184.413 20.5513 185.03 27.9535C180.231 29.3979 178.907 24.463 174.71 23.7108C164.284 29.443 167.925 40.0951 166.871 49.2426C163.682 50.4161 161.124 48.8664 158.567 47.6026C154.716 31.7149 160.297 19.1671 171.881 17.5573ZM173.145 58.706C166.54 60.7371 163.486 60.0451 149.345 53.2897C151.341 56.4192 157.9 59.7592 169.023 63.3099C160.357 71.8556 158.266 71.5697 136.376 58.5857C141.206 47.0761 164.404 47.4522 173.145 58.706ZM107.656 65.6419C118.007 56.5094 142.59 60.6017 149.736 73.0442C146.08 75.647 141.958 76.4594 139.069 80.0703C134.24 76.6099 129.441 74.4133 125.665 80.6721C114.848 75.0903 113.283 75.4364 107.702 84.3582C101.94 78.4755 101.909 70.6971 107.656 65.6419ZM89.1367 77.994C92.0553 75.662 95.3802 75.7523 97.9829 78.2047C101.594 81.5899 104.753 85.4715 108.424 89.4736C108.905 93.1747 109.341 96.5599 109.823 100.171C105.595 100.742 101.729 101.269 97.6218 101.841C94.4624 96.7254 91.3182 91.7003 88.219 86.6451C86.3234 83.5457 86.0225 80.4765 89.1367 77.994ZM80.5915 64.7241C84.8641 60.0752 91.7244 58.9317 95.666 53.4552C95.9067 48.7009 95.1545 43.5254 99.2767 39.5835C95.4102 27.7429 83.9163 34.9646 77.0109 28.9465C84.7287 23.4851 91.7394 26.2384 98.1032 29.4882C105.325 33.1893 107.807 39.9597 106.348 47.8584C105.099 54.5987 100.405 59.2326 95.6209 63.7311C90.3403 68.7111 85.0747 73.7362 84.0216 81.8456C80.2304 81.5598 76.6047 81.289 72.5728 80.9881C72.2719 73.8416 76.4091 69.2828 80.5915 64.7241ZM46.9671 48.4151C50.984 43.4501 55.7681 40.6066 62.8089 43.736C60.5222 48.8363 53.3309 48.069 52.0672 54.0721C53.9176 53.4552 55.3769 52.9587 57.0469 52.4021C56.9265 53.2747 57.0318 53.9517 56.7761 54.1172C47.7795 60.4362 48.8477 68.9368 51.9318 77.633C53.5114 82.0412 55.8734 86.1636 57.8894 90.4064C61.4248 88.8417 64.885 87.0513 68.5258 85.7574C81.118 81.319 88.4296 86.1185 93.7102 102.142C89.3022 96.6803 84.6535 91.61 76.5896 92.8738C74.002 93.28 70.8878 92.8888 69.9249 96.4245C85.857 93.6562 88.2792 95.5669 98.028 118.752C95.5005 122.317 91.7695 124.108 87.7225 125.372C82.4269 120.497 81.5694 113.546 79.0268 106.986C74.3029 107.784 69.94 107.723 67.0815 102.909C67.9541 100.893 68.9019 98.6963 69.8497 96.4997C66.2842 96.1838 66.1036 99.915 63.4859 101.72C60.7328 100.712 57.6035 99.5539 54.5645 98.4255C53.7371 94.7545 58.2655 93.6712 57.8141 90.4816C54.2035 90.286 53.8575 94.7545 50.8486 95.4014C40.1068 79.98 38.3316 59.0671 46.9671 48.4151ZM47.96 100.065C61.9965 101.299 76.9507 111.695 83.4349 124.755C83.9614 127.869 79.5835 130.141 83.8712 133.03C88.911 125.672 99.5776 125.026 103.85 115.788C97.6067 115.562 97.351 110.597 95.7864 106.354C100.45 103.345 105.31 103.044 110.515 103.345C114.141 108.461 117.736 113.531 121.858 119.338C114.848 132.307 104.256 141.741 90.1748 146.901C83.4198 149.399 77.6427 145.276 75.8825 137.573C73.4905 127.207 68.8568 118.27 60.1611 111.891C48.5317 103.345 39.8812 105.211 32.6899 117.563C31.1253 120.241 28.6881 121.836 26.0102 123.295C23.3323 110.597 34.4952 98.8919 47.96 100.065ZM24.25 129.795C27.1235 135.016 30.7191 137.498 35.9846 139.138C28.2518 145.638 28.5075 153.1 30.7492 161.646C34.7209 176.736 34.1944 186.305 29.7261 200.101C23.7986 177.579 6.52759 156.169 24.25 129.795ZM2.27001 190.141C9.73206 182.649 20.6242 185.402 25.3482 195.708C27.8606 201.2 28.7633 207.173 28.989 213.221C29.2447 220.142 31.5766 226.235 37.3988 232.9C37.113 227.183 32.9607 224.625 33.6828 219.901C37.0678 216.741 41.2652 213.115 42.8299 206.781C50.2017 210.648 51.2247 199.469 58.3257 200.869C59.5593 206.21 57.6787 210.889 55.8885 215.041C50.1114 218.953 47.2529 213.131 43.0104 213.341C42.1679 217.764 46.8618 217.479 48.0954 220.021C48.7574 229.485 39.836 240.844 30.5385 241.852C25.4084 242.424 21.903 239.836 20.5189 234.796C19.1048 229.65 19.4056 224.429 19.9322 219.149C20.6844 211.641 21.2862 204.073 15.6897 197.514C16.5171 195.693 17.2994 193.963 17.9764 192.458C13.5985 186.169 6.37714 199.169 2.27001 190.141ZM55.738 241.13C53.2406 237.218 51.2397 234.089 49.1786 230.869C50.2468 227.393 51.33 223.888 52.5787 219.811C58.3708 223.301 61.7257 227.875 63.5611 233.938C60.9885 236.481 57.2876 237.278 55.738 241.13ZM61.6054 254.866C54.5645 250.533 54.8955 243.853 63.0797 238.166C64.3134 244.395 63.5762 249.675 61.6054 254.866ZM52.4884 244.199C46.9821 245.989 43.883 244.289 41.6414 240.423C42.198 237.308 45.0715 236.255 46.7565 233.788C50.7733 236.225 51.9919 239.655 52.4884 244.199ZM9.04001 233.141C6.0913 226.566 10.2135 211.686 16.8481 205.292C18.2021 216.034 15.81 226.461 17.841 236.737C13.2525 238.632 10.6197 236.676 9.04001 233.141ZM16.3215 240.152C23.588 243.025 30.4633 247.012 38.0156 241.551C42.4838 245.944 47.2529 248.923 53.7371 246.922C54.4442 249.886 55.046 252.459 55.8132 255.678C49.7955 257.228 44.4246 258.372 39.7758 262.073C29.5456 257.394 21.572 250.638 16.3215 240.152ZM59.4089 282.971C53.2256 288.342 42.1529 287.123 38.5422 281.451C34.5103 275.087 38.0608 265.172 45.9591 261.305C50.0362 259.319 54.384 258.251 59.7549 259.41C58.4009 265.187 54.9407 267.925 52.1875 268.632C47.5237 269.535 47.5839 266.662 45.9591 265.037C44.3644 269.866 45.7936 271.657 49.7503 271.506C54.053 271.326 57.2876 269.069 59.8301 265.759C68.4957 254.49 67.8939 232.223 58.6566 221.225C58.0549 220.488 57.5283 219.66 57.0017 218.938C59.7098 215.508 62.2824 212.258 64.855 208.993C83.9614 230.869 83.4198 262.088 59.4089 282.971ZM75.8374 266.767C77.402 264.134 78.8914 265.127 81.0428 267.173C78.8012 267.985 77.2065 268.723 75.8374 266.767ZM85.1349 271.235C86.8199 273.868 86.173 275.944 83.6605 278.126C78.7259 276.652 73.4905 277.87 67.247 278.863C69.4134 275.749 70.9329 273.567 72.4374 271.431C76.8303 270.513 80.9525 270.528 85.1349 271.235ZM98.2386 279.42C92.8226 289.214 83.9313 293.713 64.539 285.017C71.6551 279.661 77.9286 277.449 84.3375 284.385C91.2279 272.71 90.4305 269.731 78.6658 261.847C78.8162 258.296 79.5534 254.791 81.2534 251.481C95.5607 259.56 102.827 271.115 98.2386 279.42ZM95.5908 257.935C97.4713 258.703 99.051 259.199 98.8855 261.531C96.6138 261.381 95.7412 260.267 95.5908 257.935ZM189.393 271.551C168.887 284.43 139.656 291.351 116.172 273.643C113.479 271.596 111.688 269.249 110.485 266.015C108.138 259.726 105.114 253.723 99.5174 249.931C95.9669 250.774 98.72 253.723 96.8545 255.317C94.2217 254.67 91.4385 253.978 88.6703 253.301C97.9829 250.999 97.6218 245.372 95.1695 238.256C91.7093 228.236 90.8668 217.704 90.8819 207.188C90.912 199.048 94.5828 192.263 100.375 186.169C108.755 187.569 117.18 186.741 125.499 184.936C139.445 181.912 140.754 179.67 138.272 163.782C146.892 159.63 147.269 151.114 148.292 142.914C149.254 135.241 150.473 127.658 154.896 119.699C169.218 125.778 184.774 125.808 198.976 131.299C206.664 134.278 209.553 141.064 209.116 148.932C208.77 154.89 207.507 160.803 206.514 167.724C197.156 162.172 188.942 156.861 179.479 154.153C169.67 151.355 166.586 153.296 162.734 162.473C157.649 174.539 149.901 185.733 152.323 199.891C153.121 204.57 153.602 209.309 153.948 214.048C154.189 217.313 153.933 220.593 150.729 222.398C146.682 222.413 147.464 218.065 144.049 216.305C140.875 214.56 139.731 219.013 136.722 220.939C136.361 218.411 136.075 216.365 135.519 212.499C128.448 221.526 141.281 234.028 128.297 238.993C128.042 250.819 137.219 251.812 144.395 253.948C156.115 257.424 167.217 252.323 172.017 242.273C162.749 233.968 157.032 232.464 137.414 233.276C135.504 230.839 137.113 227.995 136.316 225.558C138.467 223.09 141.416 221.887 142.093 219.073C145.749 219.495 144.35 223.376 145.854 223.647C151.601 226.295 154.339 223.557 156.641 219.901C159.575 220.187 158.762 224.7 163.171 224.219C168.225 221.857 167.308 218.201 163.772 213.612C161.711 216.365 165.909 218.562 163.607 220.804C153.422 214.289 151.3 187.493 160.508 174.524C161.124 177.353 161.636 179.64 162.072 181.671C177.929 193 197.427 184.379 214.261 192.203C209.116 217.072 207.792 242.785 194.944 265.533C193.636 267.865 191.635 270.137 189.393 271.551ZM134.3 240.272C135.669 235.819 139.957 236.827 143.146 234.555C149.54 240.031 158.642 232.659 164.344 240.603C154.309 243.943 144.561 241.355 134.3 240.272ZM168.707 243.597C157.709 255.122 143.853 255.032 130.223 243.371C143.673 243.702 155.332 245.117 168.707 243.597ZM197.261 267.624C199.638 262.028 201.474 257.695 203.324 253.346C205.445 259.395 204.317 264.044 197.261 267.624ZM217.03 270.062C212.471 280.187 201.609 285.528 193.726 281.526C194.162 278.216 194.613 274.801 195.05 271.446C205.611 267.7 209.161 261.666 206.423 250.518C204.949 244.485 208.259 240.077 209.628 234.555C223.439 237.79 224.732 252.925 217.03 270.062ZM275.086 262.389C271.521 273.718 264.044 281.466 252.023 283.557C239.1 285.829 228.524 281.285 219.783 270.919C223.514 259.53 227.651 247.975 220.234 236.887C224.371 220.518 233.248 204.931 224.07 188.366C220.941 185.793 218.263 193.692 216.172 188.065C223.755 187.839 225.319 181.641 227.636 176.27C239.311 178.752 244.125 186.35 242.244 198.928C240.499 210.648 235.549 221.42 232.36 232.704C230.434 239.505 229.276 246.29 230.329 253.422C231.668 262.494 237.535 268.632 246.366 269.625C254.821 270.558 261.817 266.165 264.961 257.634C268.391 248.366 268.406 238.993 265.021 229.71C263.863 226.521 262.539 223.602 267.143 220.698C273.326 234.028 279.9 247.088 275.086 262.389ZM253.317 245.192C253.106 241.1 254.114 237.429 255.694 232.96C258.071 232.599 260.222 232.253 262.464 231.907C264.36 235.473 265.157 238.933 264.781 242.709C261.531 245.854 257.665 245.598 253.317 245.192ZM254.535 265.774C247.224 268.888 240.544 266.842 234.782 260.072C241.086 257.033 247.058 254.52 250.443 249.104C255.032 248.472 259.199 247.9 263.953 247.238C264.344 255.483 262.298 262.464 254.535 265.774ZM254.43 228.717C256.13 226.942 257.544 229.425 259.019 228.853C257.529 230.869 256.085 230.493 254.43 228.717ZM262.569 217.373C260.102 220.653 257.153 219.645 254.144 218.652C253.392 212.077 259.184 216.079 260.929 213.868C262.99 214.319 264.194 215.222 262.569 217.373ZM255.95 203.547C251.196 204.284 250.383 208.557 248.924 212.153C247.179 209.821 245.434 207.504 243.824 205.352C244.29 201.937 244.681 199.033 245.193 195.362C253.001 198.627 260.568 200.748 268.437 200.718C272.514 205.773 272.363 210.964 270.227 217.373C268.136 214.665 266.406 212.514 264.781 210.302C262.494 207.158 261.035 202.749 255.95 203.547ZM250.323 242.589C247.75 250.307 242.635 255.152 233.895 256.401C232.089 252.263 232.33 248.818 232.856 244.921C239.747 239.445 242.891 232.99 238.949 223.557C237.204 219.404 241.236 214.846 242.921 209.038C250.338 220.292 254.355 230.583 250.323 242.589ZM233.925 239.234C234.015 235.563 234.707 232.072 237.701 227.77C238.558 233.291 238.257 236.917 233.925 239.234ZM276.184 234.074C272.89 228.055 269.851 222.368 273.627 215.297C276.35 210.152 273.627 205.096 272.002 199.8C274.59 198.762 277.072 197.769 279.479 196.806C287.347 209.414 285.948 225.362 276.184 234.074ZM289.454 172.328C290.988 190.096 273.522 202.117 254.671 196.175C251.617 195.212 248.758 193.632 246.321 192.579C241.703 181.28 236.572 171.305 225.364 165.512C224.702 163.993 224.642 162.112 225.771 160.322C231.111 158.125 236.377 155.974 241.913 153.702C245.674 162.398 246.381 172.373 253.347 178.993C254.295 183.356 251.512 188.095 256.702 191.676C262.103 189.209 267.624 185.959 273.401 183.386C278.276 181.22 277.554 169.62 273.04 165.753H273.025C272.243 163.707 271.461 161.676 270.678 159.63C280.262 156.455 288.581 162.157 289.454 172.328ZM175.477 102.683C174.033 103.135 172.633 103.691 171.264 104.353C172.664 103.872 174.063 103.3 175.477 102.683ZM171.264 104.353C172.664 103.872 174.063 103.3 175.477 102.683C174.033 103.135 172.633 103.691 171.264 104.353ZM171.264 104.353C172.664 103.872 174.063 103.3 175.477 102.683C174.033 103.135 172.633 103.691 171.264 104.353ZM171.264 104.353C172.664 103.872 174.063 103.3 175.477 102.683C174.033 103.135 172.633 103.691 171.264 104.353ZM171.264 104.353C172.664 103.872 174.063 103.3 175.477 102.683C174.033 103.135 172.633 103.691 171.264 104.353ZM171.264 104.353C172.664 103.872 174.063 103.3 175.477 102.683C174.033 103.135 172.633 103.691 171.264 104.353ZM171.264 104.353C172.664 103.872 174.063 103.3 175.477 102.683C174.033 103.135 172.633 103.691 171.264 104.353ZM171.264 104.353C172.664 103.872 174.063 103.3 175.477 102.683C174.033 103.135 172.633 103.691 171.264 104.353ZM171.264 104.353C172.664 103.872 174.063 103.3 175.477 102.683C174.033 103.135 172.633 103.691 171.264 104.353ZM171.264 104.353C172.664 103.872 174.063 103.3 175.477 102.683C174.033 103.135 172.633 103.691 171.264 104.353ZM171.264 104.353C172.664 103.872 174.063 103.3 175.477 102.683C174.033 103.135 172.633 103.691 171.264 104.353ZM171.264 104.353C172.664 103.872 174.063 103.3 175.477 102.683C174.033 103.135 172.633 103.691 171.264 104.353ZM171.264 104.353C172.664 103.872 174.063 103.3 175.477 102.683C174.033 103.135 172.633 103.691 171.264 104.353ZM171.264 104.353C172.664 103.872 174.063 103.3 175.477 102.683C174.033 103.135 172.633 103.691 171.264 104.353ZM171.264 104.353C172.664 103.872 174.063 103.3 175.477 102.683C174.033 103.135 172.633 103.691 171.264 104.353ZM171.264 104.353C172.664 103.872 174.063 103.3 175.477 102.683C174.033 103.135 172.633 103.691 171.264 104.353ZM171.264 104.353C172.664 103.872 174.063 103.3 175.477 102.683C174.033 103.135 172.633 103.691 171.264 104.353ZM171.264 104.353C172.664 103.872 174.063 103.3 175.477 102.683C174.033 103.135 172.633 103.691 171.264 104.353ZM171.264 104.353C172.664 103.872 174.063 103.3 175.477 102.683C174.033 103.135 172.633 103.691 171.264 104.353ZM171.264 104.353C172.664 103.872 174.063 103.3 175.477 102.683C174.033 103.135 172.633 103.691 171.264 104.353ZM171.264 104.353C172.664 103.872 174.063 103.3 175.477 102.683C174.033 103.135 172.633 103.691 171.264 104.353ZM171.264 104.353C172.664 103.872 174.063 103.3 175.477 102.683C174.033 103.135 172.633 103.691 171.264 104.353ZM171.264 104.353C172.664 103.872 174.063 103.3 175.477 102.683C174.033 103.135 172.633 103.691 171.264 104.353ZM171.264 104.353C172.664 103.872 174.063 103.3 175.477 102.683C174.033 103.135 172.633 103.691 171.264 104.353ZM171.264 104.353C172.664 103.872 174.063 103.3 175.477 102.683C174.033 103.135 172.633 103.691 171.264 104.353ZM171.264 104.353C172.664 103.872 174.063 103.3 175.477 102.683C174.033 103.135 172.633 103.691 171.264 104.353ZM171.264 104.353C172.664 103.872 174.063 103.3 175.477 102.683C174.033 103.135 172.633 103.691 171.264 104.353ZM171.264 104.353C172.664 103.872 174.063 103.3 175.477 102.683C174.033 103.135 172.633 103.691 171.264 104.353ZM171.264 104.353C172.664 103.872 174.063 103.3 175.477 102.683C174.033 103.135 172.633 103.691 171.264 104.353ZM171.264 104.353C172.664 103.872 174.063 103.3 175.477 102.683C174.033 103.135 172.633 103.691 171.264 104.353ZM171.264 104.353C172.664 103.872 174.063 103.3 175.477 102.683C174.033 103.135 172.633 103.691 171.264 104.353ZM171.264 104.353C172.664 103.872 174.063 103.3 175.477 102.683C174.033 103.135 172.633 103.691 171.264 104.353ZM171.264 104.353C172.664 103.872 174.063 103.3 175.477 102.683C174.033 103.135 172.633 103.691 171.264 104.353ZM171.264 104.353C172.664 103.872 174.063 103.3 175.477 102.683C174.033 103.135 172.633 103.691 171.264 104.353ZM171.264 104.353C172.664 103.872 174.063 103.3 175.477 102.683C174.033 103.135 172.633 103.691 171.264 104.353ZM171.264 104.353C172.664 103.872 174.063 103.3 175.477 102.683C174.033 103.135 172.633 103.691 171.264 104.353ZM171.264 104.353C172.664 103.872 174.063 103.3 175.477 102.683C174.033 103.135 172.633 103.691 171.264 104.353ZM171.264 104.353C172.664 103.872 174.063 103.3 175.477 102.683C174.033 103.135 172.633 103.691 171.264 104.353ZM171.264 104.353C172.664 103.872 174.063 103.3 175.477 102.683C174.033 103.135 172.633 103.691 171.264 104.353ZM171.264 104.353C172.664 103.872 174.063 103.3 175.477 102.683C174.033 103.135 172.633 103.691 171.264 104.353ZM171.264 104.353C172.664 103.872 174.063 103.3 175.477 102.683C174.033 103.135 172.633 103.691 171.264 104.353ZM171.264 104.353C172.664 103.872 174.063 103.3 175.477 102.683C174.033 103.135 172.633 103.691 171.264 104.353ZM171.264 104.353C172.664 103.872 174.063 103.3 175.477 102.683C174.033 103.135 172.633 103.691 171.264 104.353ZM171.264 104.353C172.664 103.872 174.063 103.3 175.477 102.683C174.033 103.135 172.633 103.691 171.264 104.353ZM171.264 104.353C172.664 103.872 174.063 103.3 175.477 102.683C174.033 103.135 172.633 103.691 171.264 104.353ZM171.264 104.353C172.664 103.872 174.063 103.3 175.477 102.683C174.033 103.135 172.633 103.691 171.264 104.353ZM171.264 104.353C172.664 103.872 174.063 103.3 175.477 102.683C174.033 103.135 172.633 103.691 171.264 104.353Z" fill="white"/>
</svg>
