<svg width="27" height="27" viewBox="0 0 27 27" fill="none" xmlns="http://www.w3.org/2000/svg">
<path d="M3.03145 0.311434L2.87145 0.462822L2.84287 2.28578L2.8143 4.10244L1.79715 4.13398L0.774288 4.16551L0.637144 4.34213L0.5 4.51875V13.1542V21.7896L0.637144 21.9662L0.774288 22.1428L1.79715 22.1744L2.8143 22.2059L2.84287 24.0225L2.87145 25.8455L3.03145 25.9969C3.30573 26.2555 3.77431 26.1546 3.91717 25.8014C3.96288 25.6878 3.98574 25.1138 3.98574 23.909V22.1744H4.97432C5.82004 22.1744 5.97432 22.1554 6.07718 22.0608C6.27147 21.8905 6.32861 21.7076 6.32861 21.2976V20.9128H13.5001H20.6716V21.2913C20.6716 21.7076 20.7744 22.004 20.9516 22.1113C21.0144 22.1491 21.4773 22.1744 22.0373 22.1744H23.0144V23.909C23.0144 25.7572 23.0373 25.9275 23.2944 26.0852C23.5173 26.2114 23.8145 26.1609 23.9916 25.9654L24.1573 25.7824V23.9784V22.1744H25.163H26.1688L26.3345 21.9914L26.5002 21.8085V13.1542V4.49983L26.3345 4.3169L26.1688 4.13398H25.163H24.1573V2.32994V0.5259L23.9916 0.342974C23.8145 0.14743 23.5173 0.0969677 23.2944 0.223125C23.0373 0.380821 23.0144 0.551132 23.0144 2.39932V4.13398H22.0373C21.4773 4.13398 21.0144 4.15921 20.9516 4.19705C20.7744 4.30429 20.6716 4.60075 20.6716 5.01707V5.39554H13.5001H6.32861V5.01707C6.32861 4.21598 6.2029 4.13398 4.9286 4.13398H3.98574V2.39932C3.98574 1.19453 3.96288 0.620518 3.91717 0.506977C3.77431 0.153738 3.30573 0.0528145 3.03145 0.311434ZM5.15718 13.1542V20.8812L3.40288 20.9002L1.64287 20.9128V13.1542V5.39554L3.40288 5.40816L5.15718 5.42708V13.1542ZM25.3573 13.1542V20.9128H23.5859H21.8144V13.1542V5.39554H23.5859H25.3573V13.1542ZM14.3172 6.72018H20.6716V13.1479V19.5818L13.6887 19.6008C9.84292 19.6134 6.6829 19.6134 6.66004 19.6008C6.6029 19.5755 6.6029 6.75803 6.66004 6.68864C6.6829 6.66341 6.98576 6.6571 7.32862 6.68234C7.67719 6.70126 10.8201 6.72018 14.3172 6.72018Z" fill="white"/>
<path d="M9.12299 8.79441C8.99156 8.93949 8.95728 9.03411 8.95728 9.24226C8.95728 9.45042 8.99156 9.54504 9.12299 9.69012L9.28871 9.87305H13.643H17.9973L18.1631 9.69012C18.2945 9.54504 18.3288 9.45042 18.3288 9.24226C18.3288 9.03411 18.2945 8.93949 18.1631 8.79441L17.9973 8.61148H13.643H9.28871L9.12299 8.79441Z" fill="white"/>
<path d="M9.27728 11.2938C9.04299 11.4326 8.96299 11.5713 8.95728 11.8489C8.95728 12.1453 9.08299 12.3661 9.31156 12.4544C9.55728 12.549 17.7288 12.549 17.9745 12.4544C18.1973 12.3724 18.3288 12.1517 18.3288 11.8615C18.3288 11.5713 18.1973 11.3506 17.9745 11.2686C17.8545 11.2181 16.4545 11.1992 13.6202 11.1992C10.003 11.1992 9.42014 11.2118 9.27728 11.2938Z" fill="white"/>
<path d="M9.30013 13.8551C9.0887 13.9497 8.95728 14.1642 8.95728 14.4354C8.95728 14.7319 9.08299 14.9526 9.31156 15.041C9.54014 15.1293 17.7402 15.1356 17.9459 15.0536C18.1859 14.9526 18.3288 14.7319 18.3288 14.4669C18.3288 14.1579 18.2031 13.9434 17.9745 13.8551C17.7402 13.7668 9.50585 13.7668 9.30013 13.8551Z" fill="white"/>
<path d="M9.12298 16.617C8.90583 16.863 8.89441 17.2288 9.09441 17.4874L9.23155 17.6641H13.643H18.0545L18.1916 17.4874C18.3916 17.2288 18.3802 16.863 18.163 16.617L17.9973 16.434H13.643H9.28869L9.12298 16.617Z" fill="white"/>
</svg>
