<svg width="315" height="337" viewBox="0 0 315 337" fill="none" xmlns="http://www.w3.org/2000/svg">
<path d="M81.6285 87.0203L81.6272 87.0207C61.6541 93.7194 43.4484 99.8648 30.2057 104.366C23.5841 106.617 18.2045 108.456 14.4656 109.748C13.8595 109.957 13.2967 110.152 12.779 110.332H14.1352H15.1352V111.332V117.785V123.238H20.8956H27.656H28.656V124.238V129.77V134.301H157.333H286.01V129.77V124.3V123.326L286.984 123.3L293.929 123.116L299.866 122.957L300.023 117.572L300.208 111.303L300.236 110.332H301.207H301.969C301.193 110.072 300.312 109.779 299.334 109.454C295.169 108.071 289.249 106.125 282.157 103.805C267.975 99.1653 249.112 93.0313 230.237 86.9164C211.362 80.8015 192.476 74.7059 178.248 70.143C171.134 67.8615 165.185 65.9636 160.985 64.6381C158.885 63.9753 157.224 63.4564 156.074 63.1044C155.498 62.9282 155.054 62.7951 154.749 62.7071C154.662 62.6821 154.589 62.6613 154.528 62.6446C154.483 62.6585 154.431 62.6747 154.371 62.6934C154.108 62.7757 153.723 62.8991 153.22 63.0624C152.214 63.3886 150.748 63.8702 148.871 64.4909C145.117 65.732 139.723 67.5274 133.09 69.7436C119.823 74.176 101.602 80.2908 81.6285 87.0203Z" stroke="white" stroke-width="2"/>
<path d="M47.4598 147.166L47.4591 147.176C47.2757 149.62 46.1089 171.066 44.9867 192.103C44.4259 202.616 43.8767 213.019 43.4676 220.883C43.2631 224.814 43.0936 228.11 42.9753 230.468C42.9162 231.646 42.8698 232.589 42.8383 233.26C42.8332 233.368 42.8285 233.469 42.8242 233.563C43.3568 233.616 44.1263 233.667 45.0866 233.711C47.073 233.802 49.8229 233.863 52.8535 233.863C57.0677 233.863 59.7986 233.817 61.4706 233.697C62.1353 233.649 62.5929 233.592 62.894 233.533C62.888 233.396 62.8808 233.234 62.8725 233.049C62.8434 232.4 62.8004 231.464 62.7452 230.273C62.6348 227.892 62.4754 224.493 62.2795 220.329C62.1117 216.763 61.9171 212.634 61.7035 208.105C61.4186 202.059 61.0998 195.298 60.7661 188.202C60.4674 181.85 60.1805 175.763 59.9189 170.214C59.2421 155.854 58.7351 145.099 58.6329 142.686C58.5006 142.659 58.32 142.629 58.079 142.601C57.1366 142.493 55.5919 142.447 53.2223 142.447H47.7675L47.4598 147.166ZM58.6139 142.184C58.6139 142.195 58.6142 142.207 58.6146 142.218C58.6142 142.202 58.6139 142.191 58.6139 142.184Z" stroke="white" stroke-width="2"/>
<path d="M99.9015 142.526C100.165 142.514 100.488 142.502 100.864 142.492C102.019 142.462 103.622 142.447 105.401 142.447C107.77 142.447 109.331 142.493 110.29 142.602C110.544 142.63 110.735 142.661 110.873 142.69C110.971 144.968 111.432 154.619 112.056 167.688C112.345 173.722 112.668 180.485 113.006 187.588C113.59 199.849 114.127 211.142 114.519 219.461C114.715 223.621 114.875 227.037 114.985 229.459C115.04 230.67 115.083 231.632 115.112 232.314C115.127 232.655 115.138 232.924 115.145 233.12C115.149 233.218 115.152 233.295 115.153 233.354L115.155 233.423L115.156 233.443C115.156 233.448 115.156 233.45 115.156 233.45V233.863H105.093C102.059 233.863 99.3083 233.817 97.3225 233.734C96.3625 233.693 95.5973 233.644 95.0697 233.59C95.0728 233.529 95.0761 233.463 95.0796 233.394C95.1125 232.75 95.161 231.815 95.2234 230.62C95.3482 228.23 95.5287 224.802 95.7515 220.589C96.1971 212.161 96.8116 200.592 97.4877 187.901L99.9015 142.526ZM99.9015 142.526C99.6792 146.776 98.6768 165.633 97.4877 187.901L99.9015 142.526ZM99.9474 141.631C99.9474 141.635 99.9458 141.669 99.9426 141.732C99.9458 141.699 99.9474 141.666 99.9474 141.631ZM94.4562 233.5C94.4562 233.5 94.4573 233.5 94.4596 233.501C94.4574 233.5 94.4562 233.5 94.4562 233.5ZM110.854 142.184C110.854 142.195 110.854 142.206 110.854 142.217C110.854 142.202 110.854 142.191 110.854 142.184ZM111.162 142.774C111.167 142.776 111.169 142.777 111.169 142.777C111.17 142.777 111.167 142.776 111.162 142.774ZM99.2271 142.577C99.2239 142.577 99.2223 142.578 99.2221 142.578C99.2219 142.578 99.2237 142.577 99.2271 142.577Z" stroke="white" stroke-width="2"/>
<path d="M147.513 229.838L147.222 233.863H157.271H167.395V233.327C167.395 230.721 163.771 153.25 163.342 147.171L163.341 147.166L163.033 142.447H157.579C155.842 142.447 154.265 142.492 153.129 142.56C152.744 142.583 152.417 142.608 152.156 142.634C151.767 151.435 147.808 226.107 147.513 229.838ZM151.569 142.715C151.569 142.715 151.571 142.714 151.575 142.713C151.575 142.713 151.574 142.713 151.574 142.713C151.571 142.714 151.569 142.714 151.569 142.715Z" stroke="white" stroke-width="2"/>
<path d="M205.395 142.604C204.989 142.639 204.656 142.678 204.401 142.717C204.043 151.001 200.108 225.787 199.815 229.834C199.815 229.834 199.815 229.834 199.815 229.835L199.523 233.863H209.511H219.635V233.204C219.635 230.291 215.95 151.851 215.581 146.557C215.581 146.557 215.581 146.556 215.581 146.556L215.28 142.447H209.818C208.086 142.447 206.518 142.507 205.395 142.604Z" stroke="white" stroke-width="2"/>
<path d="M252.054 230.459L251.774 233.863H261.812H271.875V233.02C271.875 229.92 268.251 151.957 267.822 146.565L267.821 146.559L267.52 142.447H262.058C260.55 142.447 259.412 142.45 258.547 142.475C257.668 142.5 257.132 142.545 256.8 142.612C256.746 142.622 256.703 142.633 256.668 142.642C256.667 142.669 256.666 142.7 256.666 142.737C256.666 145.113 252.423 225.962 252.054 230.459Z" stroke="white" stroke-width="2"/>
<path d="M28.6558 254.53V255.53H27.6558H21.5099H16.3641V261.29V268.051V269.051H15.3641H9.52556H4.68701V271.738V274.426H157.333H309.979V271.738V269.051H305.14H299.302H298.302V268.051V261.29V255.53H293.156H287.01H286.01V254.53V247.462V241.395H157.333H28.6558V247.462V254.53Z" stroke="white" stroke-width="2"/>
</svg>
