<svg width="306" height="337" viewBox="0 0 306 337" fill="none" xmlns="http://www.w3.org/2000/svg">
<path d="M94.2249 27.6621L94.225 27.662C98.9131 21.4217 104.775 18.1543 110.948 18.1543C117.122 18.1543 122.984 21.4217 127.672 27.662L127.672 27.6621C132.358 33.8988 135.506 42.9603 135.506 53.1325C135.506 63.3047 132.358 72.3662 127.672 78.6029L127.672 78.603C122.984 84.8433 117.122 88.1107 110.948 88.1107C104.775 88.1107 98.9131 84.8433 94.225 78.603L94.2249 78.6029C89.5386 72.3662 86.3914 63.3047 86.3914 53.1325C86.3914 42.9603 89.5386 33.8988 94.2249 27.6621ZM242.321 39.4866L242.868 39.7074L243.326 39.3357L255.111 29.7675L288.642 44.196L278.502 64.9912L224.098 42.0224L228.258 33.8084L242.321 39.4866ZM149.301 82.091C152.363 82.5267 155.182 83.0826 157.786 83.7391V165.3H64.1109V83.7391C66.7145 83.0826 69.5342 82.5267 72.5958 82.091V119.57V120.188L73.1492 120.465L76.4093 122.092L76.4094 122.092C99.0668 133.401 122.83 133.401 145.488 122.092L145.488 122.092L148.748 120.464L149.301 120.188V119.569V82.091ZM226.358 178.685V197.167V197.96L227.131 198.141C239.783 201.098 252.095 207.17 264.661 218.053C252.072 228.85 239.527 236.715 227.025 241.135L226.358 241.371V242.078V260.151H185.643H184.195L184.708 261.505C192.374 281.729 206.471 298.304 225.401 312.704L225.669 312.909H226.006H242.988V323.154H58.6548V312.909H74.3226H74.6985L74.9814 312.661C91.4125 298.271 105.568 281.696 113.587 261.521L114.132 260.152H112.658H75.2845V239.585V238.792L74.5129 238.611C50.5498 232.991 28.1152 216.301 17.5109 191.994H74.2819H75.2819V190.994V178.685H226.358ZM261.431 72.7379L226.552 147.337L216.993 142.955L251.996 68.7552L261.431 72.7379ZM33.7597 112.369C36.0827 103.094 40.3187 95.7654 48.5875 90.2624C49.154 89.8875 49.7302 89.5274 50.3153 89.1825V165.3H33.4607C33.2724 162.118 33.0469 158.917 32.8216 155.718C32.4008 149.742 31.9804 143.773 31.803 137.944C31.5218 128.703 31.8596 119.956 33.7597 112.369ZM188.436 165.3H171.582V89.1825C172.167 89.5278 172.744 89.8884 173.311 90.2638C181.578 95.7667 185.814 103.094 188.137 112.369C190.037 119.956 190.375 128.703 190.094 137.944C189.917 143.773 189.496 149.742 189.075 155.718C188.85 158.917 188.625 162.118 188.436 165.3ZM135.506 111.445C118.9 118.684 102.997 118.684 86.3914 111.445V90.6524C92.8591 97.4639 101.422 101.885 110.948 101.885C120.475 101.885 129.038 97.4639 135.506 90.6524V111.445Z" stroke="white" stroke-width="2"/>
</svg>
