<svg width="306" height="337" viewBox="0 0 306 337" fill="none" xmlns="http://www.w3.org/2000/svg">
<g clip-path="url(#clip0_299_943)">
<path fill-rule="evenodd" clip-rule="evenodd" d="M120.385 93.518C120.684 93.3986 126.891 81.4024 134.112 66.7802C145.392 43.9815 147.541 40.1022 149.272 38.9085C150.406 38.1923 152.017 37.5955 152.912 37.5955C153.808 37.5955 155.419 38.1923 156.553 38.9085C158.284 40.1022 160.432 44.0412 171.712 66.8399C179.113 81.7008 185.26 93.4583 185.738 93.518C186.008 93.5854 190.36 94.2253 196.919 95.1893C201.96 95.9304 208.305 96.8631 215.101 97.8748C234.319 100.68 244.047 102.291 245.062 102.948C247.211 104.38 248.583 107.663 248.106 110.289C248.066 110.522 248.037 110.725 247.994 110.925C247.58 112.826 245.854 114.442 221.07 138.578L204.776 154.394L209.551 182.504C212.237 197.903 214.385 211.51 214.385 212.704C214.385 216.583 211.222 219.627 207.223 219.627C205.91 219.627 197.197 215.389 179.113 205.84L152.972 192.054L126.712 205.84C108.628 215.389 99.9144 219.627 98.661 219.627C94.5429 219.627 91.4395 216.703 91.4395 212.883C91.4395 211.57 93.588 197.903 96.2737 182.445L101.108 154.334L96.0947 149.5C63.0306 117.51 58.1367 112.497 57.7189 110.289C57.2414 107.722 58.6141 104.38 60.7627 102.948C61.7176 102.351 71.6846 100.62 91.0217 97.8748C106.838 95.5471 120.027 93.5776 120.385 93.518ZM61.7537 104.695C61.8059 104.678 61.9062 104.645 62.0713 104.6C62.4185 104.505 62.9185 104.387 63.5869 104.246C64.9191 103.965 66.8283 103.613 69.3324 103.189C74.3353 102.343 81.6415 101.227 91.3028 99.8549L91.3129 99.8535C107.111 97.5284 120.331 95.5545 120.714 95.4907L120.927 95.4552L121.128 95.3749C121.53 95.2144 121.778 94.9586 121.823 94.913L121.827 94.9085C121.912 94.8225 121.975 94.744 122.01 94.6999C122.081 94.6073 122.143 94.5148 122.187 94.4477C122.279 94.3055 122.385 94.1277 122.497 93.9342C122.725 93.54 123.031 92.9836 123.402 92.2933C124.147 90.9079 125.183 88.9281 126.431 86.5028C128.929 81.65 132.29 74.9858 135.905 67.6669C141.55 56.2574 144.888 49.6267 147.029 45.6997C148.101 43.7324 148.842 42.5018 149.398 41.7074C149.919 40.9628 150.214 40.6946 150.379 40.575C150.805 40.3106 151.343 40.0529 151.865 39.863C152.447 39.6516 152.813 39.5955 152.912 39.5955C153.011 39.5955 153.378 39.6516 153.96 39.863C154.482 40.0528 155.019 40.3105 155.445 40.5748C155.606 40.6919 155.901 40.9603 156.423 41.7119C156.98 42.5125 157.721 43.7512 158.794 45.7268C160.936 49.6701 164.274 56.3167 169.92 67.7268L169.922 67.7314C173.626 75.1693 177.02 81.8375 179.55 86.6588C180.814 89.0669 181.87 91.0282 182.644 92.3983C183.029 93.079 183.359 93.6395 183.618 94.043C183.743 94.2388 183.878 94.4386 184.01 94.6071C184.072 94.6866 184.173 94.8094 184.302 94.9316C184.367 94.9924 184.476 95.0896 184.624 95.1855C184.735 95.2569 184.992 95.4114 185.359 95.4819C185.559 95.5224 185.881 95.5724 186.188 95.6202C186.632 95.6893 187.255 95.7835 188.033 95.8998C189.589 96.1324 191.781 96.4554 194.444 96.847C195.139 96.9491 195.865 97.056 196.622 97.1671C201.664 97.9084 208.01 98.8412 214.807 99.853L214.813 99.8538C224.419 101.256 231.638 102.358 236.576 103.189C239.048 103.606 240.927 103.951 242.24 104.229C242.9 104.369 243.391 104.486 243.732 104.582C243.905 104.631 244.005 104.665 244.052 104.681C244.691 105.143 245.307 105.939 245.722 106.938C246.158 107.986 246.295 109.07 246.138 109.931L246.136 109.942L246.134 109.952C246.121 110.031 246.109 110.101 246.099 110.163C246.022 110.623 246.013 110.68 245.848 110.952C245.561 111.425 244.908 112.24 243.259 113.964C240.25 117.11 234.358 122.847 222.617 134.28C221.674 135.198 220.694 136.152 219.674 137.145L202.628 153.692L207.579 182.839L207.581 182.848C208.922 190.539 210.129 197.781 211 203.246C211.436 205.979 211.787 208.262 212.028 209.933C212.149 210.769 212.241 211.444 212.303 211.941C212.372 212.495 212.385 212.704 212.385 212.704C212.385 215.379 210.238 217.573 207.332 217.626C207.288 217.615 207.189 217.588 207.019 217.531C206.689 217.42 206.224 217.239 205.603 216.975C204.368 216.449 202.627 215.639 200.336 214.518C195.762 212.279 189.084 208.844 180.047 204.072L152.974 189.794L125.778 204.072C116.741 208.844 110.063 212.279 105.495 214.519C103.208 215.64 101.471 216.451 100.242 216.977C99.6252 217.241 99.1632 217.422 98.8376 217.534C98.681 217.587 98.5863 217.614 98.5406 217.626C95.4686 217.572 93.4395 215.443 93.4395 212.883C93.4395 212.888 93.4395 212.887 93.4399 212.88C93.4409 212.862 93.4444 212.801 93.4556 212.68C93.4697 212.529 93.4918 212.327 93.5226 212.072C93.5841 211.563 93.6763 210.876 93.7971 210.029C94.0385 208.336 94.3892 206.033 94.8249 203.281C95.6959 197.779 96.9028 190.508 98.2442 182.787L98.2448 182.784L103.259 153.63L97.4854 148.063C97.4848 148.062 97.4842 148.062 97.4836 148.061C80.9452 132.06 71.479 122.831 66.094 117.328C63.3948 114.569 61.7678 112.793 60.7976 111.592C60.3139 110.993 60.0286 110.58 59.8616 110.292C59.7156 110.04 59.687 109.93 59.6841 109.917C59.533 109.097 59.6655 108.018 60.1043 106.957C60.5188 105.954 61.1281 105.156 61.7537 104.695Z" fill="white"/>
<path d="M281.34 55.5347C281.409 55.2829 281.472 55.0388 281.53 54.8089C281.23 54.934 280.902 55.0739 280.56 55.2224C276.913 56.867 273.847 60.2323 272.04 64.0534C270.226 67.8889 269.765 71.9966 271.051 75.1094C271.805 76.8896 273.461 78.1579 275.433 78.676C277.406 79.1941 279.596 78.9324 281.329 77.7686L281.329 77.7686L281.334 77.7651C283.437 76.372 284.496 74.7949 284.727 72.6648C284.967 70.4374 284.318 67.4818 282.631 63.3391L282.631 63.3391L282.627 63.3288C281.802 61.2373 281.296 59.8847 281.096 58.7753C280.88 57.5795 281.02 56.6853 281.34 55.5347Z" stroke="white" stroke-width="2"/>
<path d="M24.5429 55.6479L24.5478 55.6654L24.5521 55.6831C24.8099 56.7466 24.9258 57.6269 24.7138 58.8105C24.5138 59.9271 24.0261 61.2863 23.1938 63.3372L23.1932 63.3388C20.6929 69.4705 20.5152 72.4216 21.7214 74.7335L21.7218 74.7342C23.0535 77.2911 25.7686 78.9707 28.4145 78.9707C30.3453 78.9707 31.864 78.3754 32.9895 77.403C34.1223 76.4243 34.917 75.0105 35.2931 73.2825C36.0483 69.8128 35.0846 65.1608 31.9041 60.8056L31.9037 60.805C30.9388 59.4818 29.2772 57.9241 27.6228 56.6905C26.801 56.0778 26.0067 55.5644 25.3309 55.2093C24.8864 54.9758 24.5485 54.8409 24.3149 54.7716C24.3656 54.9981 24.4405 55.2838 24.5429 55.6479Z" stroke="white" stroke-width="2"/>
<path d="M36.2304 79.295L36.2287 79.2957C32.5685 80.6791 30.0158 82.6274 28.6677 84.7333C27.3458 86.7984 27.1482 89.053 28.2371 91.2861C29.7462 94.3008 32.3587 95.8189 35.3545 95.509L35.3545 95.5089L35.3682 95.5077C37.1902 95.3445 38.5642 94.8152 39.8525 93.6969C41.1814 92.5435 42.4698 90.7201 44.0059 87.8547L44.0064 87.8538C45.3058 85.4363 46.5272 83.5691 47.6606 82.292C48.4321 81.4227 49.2599 80.7154 50.1295 80.3786C49.9156 80.2498 49.67 80.1131 49.3928 79.9705C48.1214 79.3512 45.5556 78.895 42.829 78.7546C41.4883 78.6856 40.1546 78.6953 38.985 78.7891C37.7984 78.8843 36.8454 79.0613 36.2304 79.295ZM51.4507 80.147C51.4506 80.1469 51.4486 80.1474 51.4449 80.1486C51.4489 80.1476 51.4508 80.147 51.4507 80.147Z" stroke="white" stroke-width="2"/>
<path d="M259.517 78.8763C259.496 78.8797 259.49 78.8807 259.495 78.8784L259.485 78.882C257.914 79.446 256.676 79.9814 255.819 80.4273C256.643 80.7812 257.43 81.4623 258.164 82.2904C259.298 83.5674 260.519 85.4346 261.819 87.8521L261.819 87.8531C263.355 90.7184 264.644 92.5418 265.973 93.6953C267.261 94.8135 268.635 95.3429 270.457 95.506L270.466 95.5069L270.475 95.5079C271.536 95.6226 272.212 95.61 272.79 95.4758C273.359 95.3435 273.914 95.0743 274.7 94.5406L274.7 94.5406L274.705 94.5373C277.493 92.6699 278.52 90.1116 278.138 87.635C277.749 85.1161 275.867 82.4722 272.401 80.6125L272.395 80.609L272.389 80.6054C271.091 79.8847 270.15 79.4817 269.083 79.2268C267.998 78.9675 266.74 78.8504 264.783 78.7613C263.487 78.732 262.211 78.7322 261.206 78.7614C260.7 78.776 260.273 78.7977 259.951 78.8253C259.698 78.8469 259.566 78.8683 259.517 78.8763Z" stroke="white" stroke-width="2"/>
<path d="M12.3349 102.945L12.3349 102.945L12.3381 102.949C14.5137 105.443 17.4129 106.16 20.4155 105.001L20.4177 105C23.5282 103.808 25.0117 101.077 24.8498 97.7312C24.686 94.3452 22.812 90.3597 19.1512 87.0413C17.7979 85.8294 16.121 84.748 14.4776 83.9725C12.8619 83.2102 11.3732 82.7881 10.3083 82.7637C10.9301 83.7975 11.1846 85.2829 11.2264 86.9296C11.2735 88.7807 11.0541 91.0314 10.5988 93.5204C9.79444 97.9448 10.4026 100.752 12.3349 102.945Z" stroke="white" stroke-width="2"/>
<path d="M285.407 104.998L285.407 104.998L285.411 105C289.564 106.609 293.781 104.394 295.191 99.6211L295.194 99.6137L295.196 99.6062C295.725 97.9133 295.749 96.6028 295.227 93.7588L295.225 93.7516L295.224 93.7443C294.771 91.0562 294.552 88.7482 294.599 86.8908C294.641 85.2316 294.897 83.7859 295.517 82.7611C295.49 82.761 295.462 82.761 295.434 82.761C295.058 82.761 294.36 82.8994 293.483 83.1769C292.635 83.4453 291.716 83.8134 290.931 84.2058C285.654 86.888 282.278 91.4615 281.262 95.6845C280.755 97.7925 280.846 99.7632 281.516 101.366C282.178 102.947 283.431 104.242 285.407 104.998Z" stroke="white" stroke-width="2"/>
<path d="M31.6499 102.109L31.6416 102.112L31.6333 102.115C26.3894 103.728 22.8523 106.699 21.3635 109.798C20.623 111.34 20.3893 112.906 20.6721 114.382C20.9538 115.854 21.7615 117.307 23.2236 118.609C24.0214 119.292 24.5718 119.65 25.1252 119.858C25.678 120.065 26.3155 120.152 27.3405 120.152C30.1711 120.152 31.928 119.508 33.3395 117.818C34.8419 116.019 36.0385 112.944 37.3529 107.776L37.3565 107.762L37.3605 107.747C37.8839 105.916 38.9877 104.026 40.3778 102.703L40.3821 102.698L41.108 102.015L40.6275 101.885L40.6275 101.885L40.6188 101.883C37.827 101.101 34.5674 101.155 31.6499 102.109Z" stroke="white" stroke-width="2"/>
<path d="M264.933 101.876L264.928 101.877L264.64 101.964L265.432 102.689L265.44 102.696L265.447 102.703C266.837 104.026 267.941 105.916 268.464 107.747L268.468 107.762L268.472 107.776C269.786 112.944 270.983 116.019 272.485 117.818C273.897 119.508 275.654 120.152 278.484 120.152C279.509 120.152 280.147 120.065 280.7 119.858C281.253 119.65 281.804 119.291 282.603 118.607C284.459 116.968 285.305 115.165 285.318 113.312C285.33 111.432 284.486 109.329 282.617 107.119C280.844 105.047 277.76 103.308 274.373 102.304C270.983 101.299 267.483 101.089 264.933 101.876Z" stroke="white" stroke-width="2"/>
<path d="M7.00688 111.728L7.00687 111.728L7.0001 111.726C6.13332 111.466 5.2066 111.235 4.4063 111.069C3.96637 110.978 3.58755 110.911 3.28786 110.869L3.43222 111.064C3.43272 111.064 3.43322 111.065 3.43371 111.066C4.13269 111.998 4.55947 112.774 4.77672 114.174C4.97772 115.468 5.00491 117.332 5.00491 120.437C5.00491 124.297 5.17487 126.601 5.66863 128.19C6.13151 129.68 6.88904 130.573 8.27968 131.555C9.4591 132.377 10.5594 132.822 11.6529 132.955C12.745 133.087 13.903 132.918 15.2122 132.4C16.7647 131.773 17.8526 130.918 18.5612 129.845C19.2712 128.771 19.6556 127.395 19.6563 125.634C19.5993 119.879 14.479 113.912 7.00688 111.728Z" stroke="white" stroke-width="2"/>
<path d="M302.393 111.064L302.515 110.899C302.15 110.939 301.639 111.026 301.031 111.157C300.197 111.336 299.258 111.582 298.423 111.841C292.374 113.812 288.194 118.221 286.686 122.507C285.934 124.647 285.864 126.699 286.479 128.399C287.085 130.074 288.392 131.511 290.611 132.399C291.921 132.917 293.08 133.088 294.172 132.955C295.266 132.822 296.366 132.377 297.545 131.555C298.936 130.573 299.693 129.68 300.156 128.19C300.65 126.601 300.82 124.297 300.82 120.437C300.82 117.332 300.847 115.468 301.048 114.174C301.265 112.775 301.692 111.998 302.391 111.066C302.392 111.065 302.392 111.064 302.393 111.064Z" stroke="white" stroke-width="2"/>
<path d="M15.4009 144.333C12.4493 142.12 7.80048 140.4 4.29861 140.174C4.29854 140.174 4.29847 140.174 4.29839 140.174L2.65751 140.07L2.66127 140.075C4.45565 142.472 5.24125 145.887 5.36241 150.37L5.36246 150.37L5.36263 150.38C5.41994 153.761 6.25029 156.359 7.61079 158.089C8.94761 159.79 10.8593 160.736 13.3151 160.736C16.543 160.736 18.8185 159.078 19.8467 156.764C20.8836 154.431 20.7027 151.304 18.6952 148.333C18.3001 147.755 17.9927 147.264 17.7924 146.872C17.6935 146.678 17.6028 146.475 17.5457 146.277C17.5223 146.196 17.4799 146.038 17.4788 145.845L16.7257 145.297L15.4127 144.342L15.4067 144.338L15.4009 144.333ZM18.2537 144.146L18.4538 144.697C18.5536 144.683 18.6427 144.684 18.7138 144.689C18.9844 144.709 19.2271 144.812 19.3883 144.89C19.7381 145.06 20.168 145.349 20.6519 145.712C20.8165 145.829 21.2501 146.015 21.9135 146.17C22.5487 146.319 23.2777 146.413 23.9386 146.413C26.4394 146.413 28.2437 145.627 29.5977 144.022C30.9976 142.364 32.0031 139.729 32.6189 135.86C33.0341 133.102 33.375 131.308 33.892 129.986C34.4383 128.59 35.1701 127.747 36.2347 126.842L36.2875 126.796C35.3059 126.573 34.5424 126.483 33.7042 126.501C32.7928 126.522 31.7572 126.672 30.2151 126.969C24.2897 128.108 19.2376 132.09 17.4114 136.731C16.8934 138.103 16.713 138.699 16.7022 139.227C16.6918 139.74 16.8403 140.267 17.2981 141.518L17.2987 141.52L18.2537 144.146ZM18.4563 146.664C18.4563 146.664 18.4576 146.665 18.4602 146.665C18.4575 146.664 18.4562 146.664 18.4563 146.664Z" stroke="white" stroke-width="2"/>
<path d="M287.111 144.689C287.15 144.686 287.195 144.685 287.244 144.686L287.472 144.154L288.364 142.073C288.951 140.635 289.149 139.857 289.081 139.06C289.01 138.222 288.636 137.246 287.736 135.446C286.196 132.365 282.478 129.185 278.692 127.826C277.288 127.35 275.427 126.975 273.645 126.779C271.936 126.591 270.417 126.582 269.488 126.752L269.59 126.842C270.655 127.747 271.386 128.59 271.933 129.986C272.45 131.308 272.791 133.103 273.206 135.86C273.822 139.729 274.827 142.364 276.227 144.022C277.581 145.627 279.385 146.413 281.886 146.413C282.547 146.413 283.276 146.319 283.911 146.17C284.575 146.015 285.008 145.829 285.173 145.712C285.657 145.349 286.087 145.06 286.436 144.89C286.598 144.812 286.84 144.709 287.111 144.689ZM288.963 145.369L288.345 145.798C288.352 146.013 288.304 146.189 288.279 146.277C288.222 146.475 288.131 146.678 288.032 146.872C287.832 147.264 287.525 147.755 287.13 148.333C285.122 151.304 284.941 154.431 285.978 156.764C287.006 159.078 289.282 160.736 292.51 160.736C294.965 160.736 296.877 159.79 298.214 158.089C299.574 156.359 300.405 153.761 300.462 150.38L300.462 150.37C300.584 145.885 301.37 142.47 303.165 140.073C303.166 140.071 303.168 140.07 303.169 140.068L303.195 140.032L301.238 140.174C301.238 140.174 301.237 140.174 301.237 140.174C297.452 140.456 293.984 141.808 290.345 144.407L290.345 144.407L290.335 144.414L288.963 145.369ZM287.368 146.664C287.369 146.664 287.367 146.664 287.365 146.665C287.367 146.665 287.368 146.664 287.368 146.664Z" stroke="white" stroke-width="2"/>
<path d="M32.2979 152.561L32.2979 152.561C33.2829 152.314 34.7768 152.14 36.0403 152.082C36.2875 152.071 36.52 152.064 36.7331 152.062C36.5872 152.277 36.4272 152.505 36.2627 152.729L32.2979 152.561ZM32.2979 152.561L32.29 152.562C29.0008 153.356 26.4051 154.764 23.8382 157.102M32.2979 152.561L23.8382 157.102M23.8382 157.102C19.4009 161.195 18.0863 165.91 19.8102 169.268C20.015 169.649 20.1856 169.972 20.3022 170.228C20.3609 170.357 20.4184 170.495 20.4599 170.631C20.4944 170.745 20.5549 170.969 20.5211 171.228C20.5021 171.374 20.4499 171.559 20.3215 171.737C20.1886 171.921 20.0139 172.043 19.8388 172.112C19.5355 172.233 19.2548 172.19 19.1426 172.17C18.8894 172.124 18.599 172.008 18.3654 171.912L18.3615 171.91C13.4966 169.883 9.37525 169.46 5.52963 170.517L23.8382 157.102Z" stroke="white" stroke-width="2"/>
<path d="M270.515 152.167L268.996 152.031C269.811 152.992 270.363 153.781 270.718 155.031C271.095 156.361 271.249 158.215 271.484 161.423L271.484 161.425C271.722 164.757 272.059 166.88 272.658 168.423C273.231 169.903 274.062 170.892 275.428 171.904C276.418 172.595 277.578 172.97 279.379 172.97H282.244H284.256L283.041 174.573L281.549 176.543L281.548 176.545C280.644 177.732 280.082 179.4 279.959 181.107C279.835 182.819 280.162 184.435 280.877 185.543L280.882 185.552L280.887 185.56C282.784 188.637 287.468 189.682 290.737 187.737C292.91 186.389 294.313 184.255 296.089 178.451L296.089 178.451L296.092 178.441C296.892 175.925 297.459 174.31 298.143 173.132C298.792 172.013 299.53 171.313 300.543 170.587L300.295 170.516C296.449 169.458 292.328 169.882 287.463 171.909L287.459 171.91C287.226 172.006 286.935 172.123 286.682 172.168C286.57 172.188 286.289 172.231 285.986 172.111C285.811 172.041 285.636 171.92 285.503 171.735C285.375 171.557 285.323 171.372 285.304 171.227C285.27 170.968 285.33 170.743 285.365 170.63C285.406 170.493 285.464 170.355 285.522 170.226C285.639 169.971 285.81 169.647 286.015 169.266C287.642 166.104 286.802 162.262 282.881 157.995L282.879 157.993C279.844 154.677 275.49 152.625 270.517 152.167C270.516 152.167 270.515 152.167 270.515 152.167Z" stroke="white" stroke-width="2"/>
<path d="M40.7952 182.597L40.7944 182.592C40.498 180.576 40.3469 179.258 40.397 178.206C40.4502 177.088 40.7281 176.299 41.176 175.339L41.1791 175.332L41.1824 175.325C41.2786 175.127 41.3627 174.952 41.4358 174.798C41.3257 174.815 41.2046 174.837 41.0741 174.863C40.6498 174.946 40.1882 175.058 39.7989 175.169C35.5402 176.469 31.8475 179.459 29.5397 182.946C27.2176 186.454 26.4031 190.286 27.5574 193.307C29.7543 198.949 38.0405 199.291 40.6407 193.896C41.6327 191.75 41.7501 188.864 40.7952 182.597ZM41.7956 173.937C41.7956 173.937 41.7954 173.937 41.7951 173.939C41.7955 173.937 41.7956 173.936 41.7956 173.937Z" stroke="white" stroke-width="2"/>
<path d="M264.754 174.954L264.406 174.89L264.585 175.271C265.062 176.256 265.358 177.062 265.42 178.191C265.479 179.255 265.327 180.577 265.031 182.592L265.03 182.597C264.075 188.864 264.192 191.75 265.184 193.896C267.784 199.29 276.067 198.95 278.266 193.31C279.472 190.077 278.419 185.945 275.78 182.302C273.155 178.679 269.111 175.765 264.755 174.955C264.754 174.955 264.754 174.955 264.754 174.954Z" stroke="white" stroke-width="2"/>
<path d="M39.244 209.851L39.2441 209.851L39.2413 209.864C38.9456 211.284 38.8352 212.133 38.8731 212.877C38.91 213.604 39.0914 214.294 39.4948 215.391C40.1942 217.149 41.0848 218.394 42.1324 219.201C43.1702 219.999 44.4269 220.418 45.9614 220.418C49.355 220.418 51.6071 218.913 52.6761 216.571C53.7741 214.166 53.7171 210.671 51.9657 206.594L51.9657 206.594L51.9629 206.587C50.7702 203.754 50.0052 201.709 49.6551 200.126C49.3213 198.616 49.3435 197.434 49.7877 196.341C49.5934 196.422 49.39 196.51 49.1813 196.605C44.5498 198.726 40.3226 204.288 39.244 209.851Z" stroke="white" stroke-width="2"/>
<path d="M256.124 196.376C256.088 196.361 256.053 196.345 256.018 196.33C256.296 197.239 256.397 198.125 256.26 199.203C256.078 200.635 255.476 202.374 254.468 204.954L254.467 204.958C252.096 210.944 251.894 214.333 253.172 216.844C254.079 218.579 255.953 219.819 258.069 220.279C260.182 220.738 262.345 220.377 263.81 219.167C264.19 218.832 264.681 218.233 265.164 217.508C265.64 216.794 266.065 216.023 266.334 215.383C267.976 210.955 265.996 204.742 260.722 199.641C259.334 198.311 257.291 196.854 256.142 196.384L256.133 196.38L256.124 196.376Z" stroke="white" stroke-width="2"/>
<path d="M20.0165 198.349L20.0027 198.352L19.9887 198.354C17.7404 198.738 15.3222 199.588 13.7788 200.353C14.6617 200.659 15.5019 201.263 16.3023 202.075C17.4931 203.282 18.7088 205.059 19.9808 207.391C21.6973 210.498 23.0956 212.394 24.5284 213.526C25.9096 214.616 27.3908 215.049 29.4293 215.049C33.3866 215.049 36.7252 211.763 36.7252 208.051C36.7252 206.448 35.9662 204.687 34.5963 203.103C33.2334 201.526 31.3221 200.195 29.1619 199.447L29.1545 199.445L29.1472 199.442C27.9341 199.001 26.1228 198.625 24.3357 198.414C22.5261 198.199 20.8976 198.173 20.0165 198.349Z" stroke="white" stroke-width="2"/>
<path d="M280.816 198.351L280.816 198.351L280.809 198.353C277.281 198.984 274.32 200.353 272.262 202.106C270.203 203.86 269.1 205.945 269.1 208.051C269.1 211.763 272.438 215.049 276.395 215.049C278.434 215.049 279.915 214.616 281.296 213.526C282.729 212.394 284.127 210.498 285.844 207.391C287.116 205.059 288.332 203.282 289.522 202.075C290.349 201.237 291.217 200.621 292.132 200.325C291.875 200.19 291.573 200.053 291.231 199.916C290.272 199.533 289.06 199.176 287.765 198.889C285.135 198.307 282.373 198.061 280.816 198.351Z" stroke="white" stroke-width="2"/>
<path d="M61.3437 215.88C61.0996 216.079 60.8414 216.291 60.5754 216.511C59.2734 217.655 57.5599 220.034 56.4648 222.224C55.6711 223.812 55.2337 224.88 54.9766 225.962C54.7193 227.046 54.6305 228.194 54.6008 229.962C54.602 232.845 55.1885 235.136 56.2345 236.829C57.2688 238.502 58.7864 239.647 60.7857 240.209C62.8103 240.737 64.9953 240.128 66.7046 238.766C68.4151 237.403 69.5506 235.362 69.5506 233.177C69.5506 230.52 68.633 228.292 65.6505 224.549C64.0977 222.6 62.9261 220.783 62.2017 219.183C61.6786 218.028 61.3491 216.899 61.3437 215.88Z" stroke="white" stroke-width="2"/>
<path d="M247.975 219.69C246.856 217.905 245.607 216.469 244.433 215.593C244.503 216.688 244.176 217.903 243.617 219.15C242.9 220.752 241.728 222.569 240.179 224.543L240.179 224.543L240.174 224.549C237.192 228.292 236.274 230.52 236.274 233.177C236.274 235.362 237.41 237.403 239.12 238.766C240.831 240.129 243.018 240.738 245.044 240.208C249.636 238.967 252.32 233.576 250.946 226.874C250.436 224.439 249.338 221.864 247.975 219.69Z" stroke="white" stroke-width="2"/>
<path d="M36.2464 224.25L36.2519 224.249C42.2375 223.04 46.2752 224.042 49.4319 227.199C50.5836 228.35 51.0788 228.934 51.3359 229.487C51.577 230.006 51.6457 230.58 51.6457 231.863C51.6457 233.488 51.3159 234.816 50.7031 235.888C50.0932 236.955 49.1698 237.828 47.8868 238.496L36.2464 224.25ZM36.2464 224.25C34.8539 224.523 32.9791 225.254 31.2039 226.178M36.2464 224.25L31.2039 226.178M31.2039 226.178C29.5887 227.018 28.1634 227.963 27.3065 228.774M31.2039 226.178L27.3065 228.774M27.3065 228.774C27.819 228.778 28.3157 228.813 28.8253 228.942C29.3711 229.081 29.8846 229.316 30.4358 229.674C31.4922 230.359 32.7749 231.556 34.7822 233.534C37.9948 236.627 40.3105 238.357 42.296 239.077C44.1789 239.76 45.8403 239.56 47.8866 238.496L27.3065 228.774Z" stroke="white" stroke-width="2"/>
<path d="M256.183 227.407L256.191 227.398C257.611 225.814 259.057 224.957 260.912 224.41C263.651 223.665 267.194 223.805 270.553 224.663C273.811 225.495 276.743 226.963 278.526 228.774C278.011 228.777 277.511 228.812 276.999 228.942C276.453 229.081 275.94 229.316 275.389 229.674C274.332 230.359 273.049 231.556 271.042 233.534C267.83 236.627 265.514 238.357 263.528 239.077C261.645 239.76 259.984 239.56 257.938 238.496L256.183 227.407ZM256.183 227.407L256.174 227.416M256.183 227.407L256.174 227.416M256.174 227.416C255.19 228.46 254.736 229.051 254.491 229.613M256.174 227.416L254.491 229.613M254.491 229.613C254.257 230.153 254.179 230.753 254.179 231.923M254.491 229.613L254.179 231.923M254.179 231.923C254.179 233.515 254.507 234.827 255.12 235.893M254.179 231.923L255.12 235.893M255.12 235.893C255.73 236.955 256.654 237.828 257.938 238.496L255.12 235.893Z" stroke="white" stroke-width="2"/>
<path d="M78.6141 237.148L78.6141 237.148L78.6074 237.155C75.26 240.588 73.399 245.179 73.1301 249.397C72.8596 253.64 74.1962 257.293 76.9559 259.141L76.9671 259.149L76.9782 259.157L78.8283 260.47L80.0871 261.363L78.7573 262.147L75.4167 264.115C75.4163 264.115 75.416 264.116 75.4157 264.116C74.062 264.917 72.2983 266.428 70.8596 267.918C70.1448 268.658 69.5352 269.368 69.1118 269.952C69.0472 270.041 68.9883 270.125 68.9349 270.204C69.3499 270.252 69.8684 270.29 70.4502 270.312C72.9314 270.315 74.682 271.037 78.5113 273.251L78.5113 273.251L78.5155 273.254C80.4564 274.388 81.7019 275.048 82.7378 275.432C83.734 275.802 84.5532 275.922 85.6502 275.922C87.8187 275.922 89.5727 275.394 90.8671 274.473C92.1511 273.56 93.05 272.213 93.4477 270.437L93.4482 270.434C93.8972 268.453 93.5387 266.63 92.5517 265.133C91.5596 263.629 89.8915 262.396 87.6331 261.706L85.3721 261.052L83.8208 260.603L84.9143 259.414L86.2869 257.922L86.2901 257.919C86.5891 257.597 86.9273 257.077 87.2251 256.481C87.5168 255.898 87.734 255.314 87.8328 254.88C88.1557 253.062 88.0601 251.594 87.273 249.73C86.454 247.791 84.8841 245.418 82.1677 241.836L82.1645 241.832C80.6562 239.821 79.995 238.301 79.995 236.278C79.995 236.111 79.9927 235.949 79.9885 235.794C79.5715 236.18 79.0934 236.647 78.6141 237.148ZM68.1154 270.056C68.1153 270.056 68.1173 270.057 68.1217 270.059C68.1177 270.057 68.1155 270.056 68.1154 270.056Z" stroke="white" stroke-width="2"/>
<path d="M227.304 273.317C225.002 274.68 223.876 275.307 222.895 275.608C221.967 275.893 221.134 275.894 219.332 275.804C217.717 275.715 216.856 275.598 216.223 275.365C215.636 275.149 215.177 274.807 214.436 274.067C212.298 271.928 211.753 269.307 212.434 267.017C213.119 264.717 215.08 262.636 218.189 261.708C218.743 261.547 219.211 261.409 219.559 261.275C219.734 261.208 219.917 261.128 220.083 261.027C220.241 260.93 220.456 260.77 220.609 260.513C221.005 259.846 220.646 259.234 220.477 258.996C220.295 258.738 220.015 258.458 219.756 258.2L219.748 258.191C217.701 256.144 217.12 252.144 218.622 249.14C219.111 248.161 220.668 245.901 222.099 244.053L222.1 244.052C223.638 242.062 224.699 240.431 225.308 239.017C225.791 237.896 226.007 236.873 225.932 235.894C226.292 236.227 226.718 236.646 227.217 237.156L227.304 273.317ZM227.304 273.317C231.14 271.039 232.891 270.316 235.434 270.312C235.987 270.291 236.487 270.254 236.891 270.206C236.837 270.126 236.778 270.042 236.713 269.952C236.29 269.368 235.68 268.659 234.965 267.919C233.526 266.429 231.763 264.917 230.409 264.116C230.409 264.116 230.408 264.116 230.408 264.116L227.068 262.147L225.738 261.363L226.997 260.47L228.847 259.157L228.858 259.149L228.869 259.142C231.629 257.293 232.965 253.64 232.695 249.398C232.426 245.18 230.565 240.589 227.219 237.157L227.304 273.317ZM237.708 270.057C237.708 270.057 237.706 270.058 237.702 270.06C237.706 270.058 237.708 270.057 237.708 270.057Z" stroke="white" stroke-width="2"/>
<path d="M53.0695 253.252L53.0717 253.255C55.4515 255.753 57.1128 257.227 58.6188 258.09C60.075 258.924 61.4308 259.211 63.2694 259.211C64.6118 259.211 65.3017 259.145 65.8723 258.936C66.4309 258.732 66.9655 258.356 67.9037 257.506C68.8145 256.653 69.2378 256.155 69.493 255.6C69.7527 255.036 69.8816 254.318 69.9705 252.926L69.9714 252.912L69.9727 252.897C70.1372 251.115 69.8577 249.673 69.1817 248.486C68.5037 247.294 67.3745 246.267 65.6811 245.406L65.6733 245.402L65.6655 245.398C64.3968 244.725 62.1247 244.257 59.6473 244.118C57.1874 243.98 54.7318 244.176 53.1362 244.689C50.4654 245.58 47.5361 247.263 46.1307 248.677C46.2897 248.709 46.4715 248.744 46.6798 248.783C48.6982 249.145 50.328 250.392 53.0695 253.252ZM45.5872 249.339C45.5873 249.339 45.5885 249.336 45.5905 249.332C45.5881 249.337 45.5871 249.339 45.5872 249.339Z" stroke="white" stroke-width="2"/>
<path d="M242.14 244.513L242.133 244.515L242.126 244.517C239.885 245.19 238.294 246.226 237.259 247.566C236.227 248.9 235.677 250.626 235.677 252.81C235.677 254.017 235.758 254.587 235.988 255.083C236.231 255.609 236.686 256.15 237.712 257.176L237.712 257.176L237.722 257.186C238.783 258.277 239.293 258.708 239.824 258.931C240.356 259.154 241.005 259.211 242.496 259.211C244.366 259.211 245.721 258.923 247.176 258.09C248.683 257.227 250.344 255.753 252.756 253.251C255.499 250.39 257.129 249.143 259.208 248.782L259.643 248.7L259.551 248.6C257.263 246.209 252.646 244.313 248.187 244.141L248.187 244.141L248.175 244.141C247.022 244.083 245.747 244.097 244.627 244.17C243.478 244.244 242.583 244.373 242.14 244.513Z" stroke="white" stroke-width="2"/>
<path d="M110.757 263.244L110.757 263.244L110.756 263.236C110.181 260.675 108.52 258.532 104.218 255.35C102.064 253.793 100.574 252.554 99.624 251.415C98.7964 250.424 98.3529 249.478 98.2323 248.452C98.0264 248.734 97.7926 249.074 97.529 249.478C95.0093 253.342 94.3421 258.408 95.2179 262.822C96.0997 267.267 98.4717 270.761 101.719 271.855C106.847 273.508 112.022 268.672 110.757 263.244Z" stroke="white" stroke-width="2"/>
<path d="M195.072 263.221L195.07 263.233L195.067 263.244C193.802 268.672 198.978 273.508 204.105 271.855C207.353 270.761 209.725 267.267 210.607 262.822C211.483 258.408 210.815 253.342 208.296 249.478L208.296 249.478L208.29 249.47C208.029 249.061 207.798 248.718 207.594 248.435C207.455 249.536 206.881 250.605 205.979 251.668C204.936 252.897 203.38 254.207 201.294 255.658C197.423 258.415 195.591 260.731 195.072 263.221Z" stroke="white" stroke-width="2"/>
<path d="M134.861 271.919L134.861 271.917C134.618 270.628 133.679 269.137 132.137 267.714C130.612 266.309 128.578 265.047 126.307 264.195C123.834 263.301 122.145 262.599 120.902 261.811C119.611 260.992 118.821 260.095 118.099 258.882L117.991 258.708C117.008 260.895 116.724 264.009 117.126 267.213C117.529 270.43 118.604 273.586 120.183 275.803C123.456 280.315 128.441 281.598 131.714 279.49C132.655 278.859 133.579 277.607 134.205 276.112C134.831 274.616 135.08 273.063 134.861 271.919Z" stroke="white" stroke-width="2"/>
<path d="M188.617 265.286C188.617 261.695 188.343 259.892 187.874 258.848C187.328 259.824 186.421 260.703 185.302 261.481C183.854 262.489 181.945 263.406 179.683 264.2L179.681 264.201C176.05 265.469 173.532 267.289 172.169 269.314C170.831 271.301 170.557 273.547 171.505 275.893L171.505 275.893L171.508 275.899C172.249 277.764 173.309 279.014 174.498 279.748C175.684 280.481 177.061 280.741 178.517 280.523C181.451 280.085 184.771 277.675 187.119 273.179L187.119 273.179L187.124 273.17C187.79 271.924 188.141 271.1 188.345 270.056C188.555 268.976 188.617 267.617 188.617 265.286Z" stroke="white" stroke-width="2"/>
<path d="M106.816 275.298L106.816 275.298L106.806 275.302C104.548 276.081 101.675 278.414 99.3305 281.147C98.1727 282.497 97.1801 283.902 96.4825 285.196C95.9651 286.156 95.6403 286.999 95.5015 287.682C95.5438 287.66 95.5877 287.638 95.6333 287.614L95.6333 287.614L95.6373 287.612C96.7717 287.028 97.722 286.687 99.1389 286.741C100.456 286.791 102.161 287.182 104.824 287.892C108.591 288.871 111.1 289.178 113.018 288.851C114.86 288.536 116.261 287.616 117.769 285.829C118.315 285.174 118.624 284.656 118.81 284.097C119 283.526 119.087 282.842 119.087 281.817C119.087 278.742 117.732 276.562 115.622 275.405C113.476 274.227 110.385 274.023 106.816 275.298ZM95.4328 288.607C95.4328 288.607 95.4327 288.607 95.4325 288.606L95.4328 288.607ZM94.6497 288.075C94.647 288.075 94.6456 288.076 94.6456 288.076C94.6455 288.076 94.6469 288.076 94.6497 288.075Z" stroke="white" stroke-width="2"/>
<path d="M210.237 287.607L210.252 287.614L210.266 287.622C210.276 287.627 210.286 287.632 210.295 287.638C210.223 287.34 210.112 286.995 209.957 286.606C209.654 285.847 209.21 284.986 208.662 284.093C207.562 282.303 206.084 280.455 204.583 279.096L204.583 279.096L204.578 279.092C199.668 274.587 194.318 273.359 190.418 275.253C188.586 276.171 187.316 278.009 186.856 280.073C186.395 282.137 186.772 284.293 188.055 285.829C189.564 287.616 190.965 288.536 192.807 288.851C194.725 289.178 197.233 288.871 201.001 287.892C203.664 287.182 205.369 286.79 206.694 286.741C208.115 286.688 209.078 287.027 210.237 287.607ZM211.2 288.077C211.2 288.077 211.198 288.077 211.196 288.077C211.199 288.077 211.2 288.078 211.2 288.077Z" stroke="white" stroke-width="2"/>
<path d="M131.397 283.846L131.397 283.846L131.391 283.848C127.603 285.714 124.659 288.767 122.842 292.628L122.841 292.629C122.463 293.43 122.185 294.099 121.999 294.639C121.924 294.857 121.868 295.045 121.826 295.205C124.386 294.21 127.395 294.465 131.806 295.653L131.809 295.653C137.22 297.124 140.329 296.78 142.387 295.176C146.488 291.924 146.19 285.674 142.065 283.147L142.059 283.144L142.053 283.14C139.553 281.558 135.665 281.711 131.397 283.846ZM121.731 295.862C121.731 295.862 121.73 295.854 121.728 295.842C121.729 295.857 121.73 295.863 121.731 295.862ZM121.195 295.454C121.195 295.455 121.2 295.455 121.212 295.452C121.201 295.453 121.195 295.454 121.195 295.454Z" stroke="white" stroke-width="2"/>
<path d="M174.017 295.653L174.019 295.653C178.411 294.47 181.404 294.215 183.997 295.186C183.845 294.621 183.527 293.779 182.984 292.629L182.982 292.626C181.089 288.585 177.625 285.343 173.913 283.562C170.175 281.768 166.4 281.543 163.758 283.148C159.635 285.675 159.338 291.925 163.438 295.176C165.496 296.78 168.605 297.124 174.017 295.653ZM184.682 295.457C184.682 295.456 184.674 295.454 184.661 295.453C184.676 295.457 184.683 295.457 184.682 295.457ZM184.106 295.859C184.103 295.873 184.102 295.882 184.103 295.883C184.104 295.883 184.105 295.876 184.106 295.859Z" stroke="white" stroke-width="2"/>
</g>
<defs>
<clipPath id="clip0_299_943">
<rect width="305.574" height="305.574" fill="white" transform="translate(0.125 14.9141)"/>
</clipPath>
</defs>
</svg>
