<svg width="335" height="337" viewBox="0 0 335 337" fill="none" xmlns="http://www.w3.org/2000/svg">
<path d="M218.564 26.3328L218.556 26.3289C216.34 25.3403 213.731 24.629 211.609 24.3223C210.554 24.1697 209.567 24.1093 208.785 24.1859C208.399 24.2238 208.002 24.3005 207.658 24.4548C207.32 24.6066 206.896 24.8989 206.726 25.4341C206.726 25.4348 206.726 25.4355 206.726 25.4362L207.679 25.7373C207.221 27.1768 202.052 61.8545 202.052 63.4248C202.052 64.5371 202.641 64.9297 205.389 65.584L218.564 26.3328ZM218.564 26.3328C232.127 32.535 236.209 49.0098 226.612 59.6444M218.564 26.3328L205.157 66.5565C212.794 68.4129 221.211 65.6602 226.612 59.6444M226.612 59.6444C226.613 59.6441 226.613 59.6439 226.613 59.6436L225.869 58.9756L226.611 59.6456C226.612 59.6452 226.612 59.6448 226.612 59.6444ZM129.431 38.4028L129.432 38.4072C130.577 45.7359 131.608 52.3948 132.344 57.2302C132.712 59.6476 133.007 61.6109 133.206 62.9749C133.305 63.6562 133.381 64.1914 133.43 64.56C133.455 64.743 133.473 64.8916 133.485 64.9985C133.491 65.0498 133.496 65.1039 133.499 65.1516C133.501 65.1723 133.503 65.2132 133.502 65.26C133.502 65.2802 133.501 65.3314 133.492 65.3946C133.487 65.4253 133.477 65.4863 133.454 65.5601C133.438 65.6094 133.378 65.7935 133.208 65.9639C133.083 66.0887 132.95 66.1521 132.931 66.161L132.93 66.1618C132.887 66.1828 132.849 66.198 132.826 66.2069C132.778 66.2255 132.728 66.242 132.686 66.2553C132.599 66.2829 132.488 66.315 132.361 66.3499C132.104 66.4204 131.748 66.5125 131.32 66.6196C130.463 66.8339 129.297 67.113 128.018 67.4081C125.632 67.9737 120.802 69.8361 117.441 71.5165L117.432 71.521C114.834 72.7875 113.115 73.7377 111.437 74.9761C109.753 76.2198 108.081 77.7763 105.601 80.2884L105.596 80.293C98.9689 86.9206 95.9238 92.0715 93.6838 100.199C92.5415 104.388 92.3473 106.373 92.6062 112.652C92.8642 118.713 93.861 123.687 95.8597 128.24C97.8589 132.794 100.885 136.981 105.274 141.435L105.277 141.437C111.054 147.343 117.063 151.048 124.621 153.418L124.621 153.418L124.632 153.421C126.245 153.948 127.705 154.462 128.769 154.881C129.298 155.089 129.75 155.282 130.079 155.447C130.239 155.528 130.405 155.618 130.542 155.716C130.609 155.763 130.706 155.837 130.796 155.939C130.858 156.008 131.08 156.265 131.08 156.662C131.08 156.8 131.051 156.926 131.042 156.966L131.041 156.969C131.026 157.034 131.007 157.104 130.987 157.174C130.946 157.314 130.89 157.493 130.821 157.699C130.682 158.113 130.484 158.671 130.241 159.331C129.754 160.65 129.08 162.394 128.323 164.236C127.625 165.967 126.969 167.628 126.446 168.951L126.332 169.24L126.329 169.247C126.103 169.818 125.901 170.331 125.733 170.75C125.876 170.765 126.039 170.781 126.222 170.796C127.506 170.904 129.615 170.989 132.824 171.055C139.232 171.185 149.936 171.234 166.982 171.234C178.789 171.234 189.515 171.169 197.288 171.071C201.175 171.022 204.32 170.965 206.491 170.904C207.346 170.879 208.046 170.855 208.578 170.83C208.449 170.466 208.288 170.026 208.101 169.527C207.565 168.099 206.818 166.197 205.972 164.181L205.972 164.181L205.967 164.168C205.146 162.133 204.422 160.257 203.918 158.878C203.667 158.191 203.467 157.616 203.337 157.204C203.273 157.001 203.219 156.817 203.185 156.669C203.17 156.602 203.149 156.503 203.141 156.399C203.137 156.353 203.13 156.246 203.152 156.118L203.152 156.116C203.162 156.058 203.223 155.694 203.568 155.453C203.657 155.388 203.734 155.352 203.751 155.343C203.811 155.314 203.872 155.288 203.923 155.269C204.027 155.228 204.154 155.184 204.291 155.14C204.568 155.05 204.942 154.94 205.379 154.817C206.255 154.569 207.424 154.256 208.668 153.928L208.674 153.927C211.131 153.297 215.771 151.433 218.937 149.817L218.945 149.813L218.954 149.809C223.543 147.578 225.679 145.95 229.806 141.824C235.599 135.965 238.395 131.572 240.893 124.654C241.634 122.592 242.033 121.228 242.265 119.473C242.501 117.688 242.567 115.475 242.6 111.707C242.6 104.56 242.34 102.65 241.145 98.9364C239.165 92.9335 235.385 86.7164 230.905 82.0447L230.902 82.0413L227.172 78.1155L226.394 77.2963L227.302 76.6234L231.096 73.8099L231.105 73.8035C239.878 67.4462 244.89 57.6694 244.89 47.002C244.89 42.0675 244.154 37.9204 242.533 34.1113C240.911 30.2999 238.379 26.772 234.714 23.1075C229.6 17.9927 224.904 15.199 217.798 13.0865C216.171 12.6045 214.213 12.3097 207.504 12.1216C200.812 11.9339 189.49 11.8521 169.202 11.7539C153.827 11.6885 142.579 11.6885 135.177 11.762C131.474 11.7988 128.743 11.8539 126.941 11.9279C126.251 11.9562 125.708 11.9869 125.304 12.0193C125.358 12.3911 125.428 12.8683 125.513 13.4422C125.728 14.8769 126.038 16.9072 126.422 19.3846C127.191 24.3388 128.254 31.0763 129.431 38.4028ZM124.575 12.1066C124.575 12.1067 124.577 12.1061 124.581 12.1048C124.577 12.1059 124.575 12.1065 124.575 12.1066Z" stroke="white" stroke-width="2"/>
<path d="M79.5214 201.144L79.5215 201.148L79.7068 218.018H167.702H255.697L255.883 201.148L255.883 201.144L256.006 184.358H167.702H79.398L79.5214 201.144Z" stroke="white" stroke-width="2"/>
<path d="M242.798 229.887L242.799 229.886L242.934 227.541H167.768H92.4766V230.14V232.737L167.569 232.607L167.57 232.607L242.655 232.414L242.798 229.887Z" stroke="white" stroke-width="2"/>
<path d="M100.328 239.954V242.553H167.702H235.076V239.954V237.355H167.702H100.328V239.954Z" stroke="white" stroke-width="2"/>
<path d="M92.4766 250.425V253.023H167.702H242.928V250.425V247.826H167.702H92.4766V250.425Z" stroke="white" stroke-width="2"/>
<path d="M153.326 303.16V323.687H157.888H162.449V303.422C162.449 296.025 162.515 290.581 162.646 286.833C162.712 284.961 162.794 283.499 162.895 282.424C162.946 281.887 163.002 281.433 163.065 281.067C163.125 280.72 163.202 280.381 163.321 280.115L163.322 280.112C163.877 278.873 164.98 278.003 166.146 277.585C167.302 277.17 168.687 277.144 169.802 277.841L169.806 277.844C170.507 278.286 171.148 278.8 171.629 279.732C172.084 280.612 172.357 281.79 172.54 283.48C172.908 286.861 172.955 292.753 172.955 303.553V323.687H177.517H182.078V302.898C182.078 293.583 182.111 288.061 182.259 284.714C182.333 283.043 182.437 281.872 182.591 281.024C182.744 280.178 182.961 279.568 183.315 279.084C185.046 276.669 188.755 276.695 190.759 278.939C191.149 279.372 191.454 279.848 191.673 280.654C191.876 281.403 192.005 282.438 192.1 283.994C192.29 287.118 192.355 292.632 192.453 302.823L192.453 302.824L192.64 323.687H197.211H201.707V302.898C201.707 290.945 201.736 284.669 202.251 281.404C202.505 279.794 202.912 278.623 203.76 277.933C204.612 277.24 205.689 277.231 206.567 277.231C206.592 277.231 206.618 277.231 206.643 277.231C207.446 277.231 208.463 277.23 209.273 277.853C210.119 278.503 210.519 279.636 210.776 281.184C211.299 284.331 211.396 290.475 211.559 302.361L211.871 323.391L217.003 323.556L217.003 323.556L221.99 323.719V292.299V260.911H167.702H113.414V292.299V323.687H118.237H123.135L123.322 302.824L123.322 302.823C123.42 292.632 123.486 287.118 123.676 283.994C123.77 282.438 123.899 281.403 124.102 280.654C124.322 279.847 124.628 279.37 125.018 278.937L125.02 278.935C126.525 277.272 129.154 276.679 131.021 277.919C131.667 278.337 132.205 278.868 132.598 279.8C132.963 280.67 133.188 281.856 133.342 283.556C133.649 286.965 133.697 292.844 133.697 303.356V323.687H138.259H142.764L142.951 302.824L142.951 302.823C143.049 292.632 143.115 287.118 143.305 283.994C143.399 282.438 143.528 281.403 143.731 280.654C143.95 279.847 144.257 279.371 144.647 278.937C145.658 277.809 146.922 277.209 148.263 277.299C149.586 277.388 150.789 278.137 151.731 279.305L151.738 279.314L151.745 279.323C152.108 279.796 152.438 280.275 152.677 281.077C152.902 281.829 153.037 282.829 153.128 284.347C153.31 287.386 153.326 292.808 153.326 303.16Z" stroke="white" stroke-width="2"/>
</svg>
