<svg width="41" height="50" viewBox="0 0 41 50" fill="none" xmlns="http://www.w3.org/2000/svg">
<path d="M37.9508 4.03249C38.0971 3.74867 38.2434 3.46485 38.3875 3.18758C36.2305 1.51306 34.7699 1.60475 33.0015 3.50633C32.7242 3.80543 32.4491 4.11327 32.2221 4.45166C31.6937 5.23762 31.1938 6.04541 30.6829 6.84447C31.1108 4.694 32.1828 2.89067 33.877 1.27509C32.7198 1.0131 31.7352 0.825344 30.7681 0.561175C29.5695 0.233693 28.5128 0.216227 27.8666 1.51961C27.8404 1.572 27.7399 1.58947 27.5849 1.66807C27.6592 1.15064 27.7225 0.711817 27.7858 0.283907C26.2684 -0.21605 25.6899 -0.113439 24.8537 1.05895C24.1791 2.00646 23.6551 3.06096 23.0657 4.0696C22.9652 4.23989 22.8735 4.41673 22.7797 4.58921C22.6967 4.56083 22.6137 4.53026 22.5286 4.50188C22.9478 3.02821 23.3648 1.55454 23.7992 0.0306536C21.4828 0.0503025 19.1926 0.34722 16.9439 0.938871C16.7169 1 16.4658 1.36678 16.4134 1.62877C16.2497 2.43437 16.1754 3.25963 16.0685 4.07834C16.0095 4.08052 15.9506 4.08488 15.8938 4.08707C15.7366 3.19632 15.5794 2.30556 15.407 1.32312C14.049 2.03048 12.0164 1.74448 12.1168 4.09143C11.9335 3.73775 11.7501 3.38407 11.5689 3.03476C10.069 3.56965 9.85285 3.86001 9.87468 5.30749C9.87905 5.5782 9.89215 5.85329 9.93363 6.12183C10.0799 7.04533 10.2415 7.96664 10.3965 8.88796C10.3179 8.90979 10.2371 8.93381 10.1585 8.95782C9.72841 7.53 9.29831 6.10436 8.81801 4.51279C7.73295 5.90787 5.55847 6.41001 5.99074 8.76133C5.99511 8.78316 5.92088 8.82028 5.85102 8.87486C5.62178 8.72203 5.38163 8.56266 5.04978 8.34434C4.62405 9.00367 4.22452 9.64553 3.79661 10.2678C3.53681 10.6433 3.54554 10.9293 3.88176 11.2633C4.20487 11.5864 4.45594 11.9816 4.73758 12.344C4.6961 12.3767 4.65462 12.4073 4.61313 12.4401C4.15248 12.13 3.69182 11.8222 3.03249 11.3812C2.50197 13.095 1.97799 14.6364 1.55227 16.2039C1.17894 17.5903 1.22697 17.6034 2.41464 18.3522C2.54563 18.4352 2.66571 18.5312 2.79015 18.6229C2.77487 18.6535 2.75958 18.6862 2.7443 18.719C2.25963 18.5967 1.77277 18.4745 1.18549 18.3282C1.11562 18.9722 1.04358 19.5071 1.0021 20.0442C0.720461 23.8604 1.33176 27.609 1.88848 31.3642C2.43647 35.0429 2.836 38.7281 2.31421 42.4505C1.95616 45.0049 1.17675 47.4261 0 49.8232C0.172474 49.7578 0.253253 49.7468 0.303467 49.701C0.447559 49.5765 0.582919 49.4434 0.711728 49.3015C2.16575 47.7143 3.26391 45.9044 4.05641 43.9067C5.54318 40.1625 5.94271 36.248 5.89905 32.2593C5.88377 30.9799 5.92088 29.6918 6.03877 28.419C6.13702 27.3449 6.38809 26.2838 6.58676 25.1354C5.76151 26.1092 5.47987 27.227 5.41219 28.3688C5.24408 31.3096 5.16985 34.2569 5.02795 37.1999C4.97555 38.2478 4.83582 39.2914 4.73539 40.3372C4.61968 39.7783 4.70701 39.239 4.72011 38.6976C4.79216 35.5319 4.80307 32.3663 4.92315 29.2028C4.99301 27.3885 5.15021 25.5503 6.68719 24.2098C4.97118 24.6988 4.18086 26.1004 3.36434 27.5217C3.3425 27.4169 3.30757 27.358 3.32285 27.3187C3.99747 25.607 4.98646 24.1726 6.8291 23.5766C7.51244 23.3561 7.41638 22.7732 7.49716 22.3147C7.52554 22.1444 7.16095 21.817 6.91206 21.7056C5.73531 21.1795 4.50397 21.1074 3.24862 21.365C4.75068 20.662 6.24618 20.9459 7.71985 21.448C8.40538 20.1315 8.40101 20.0442 7.43603 19.1054C7.04742 18.7255 6.61951 18.3849 6.21125 18.0269C6.24836 17.9811 6.28548 17.9352 6.32259 17.8894C7.04524 18.3937 7.77006 18.898 8.49489 19.4023C9.24155 18.1513 9.97075 16.9244 10.724 15.6603C9.48607 15.2848 8.36172 14.7914 7.58667 13.7456C8.08226 14.001 8.53856 14.3198 9.02541 14.5862C10.689 15.4944 11.3746 15.3263 12.4945 13.75C10.879 12.916 9.52755 11.8004 8.71321 10.1411C8.92498 10.2918 9.05598 10.5319 9.25247 10.6891C10.3113 11.5275 11.3724 12.3615 12.4683 13.1496C12.6627 13.2915 13.0775 13.309 13.2936 13.1976C13.7652 12.9509 14.1756 12.5841 14.6013 12.2719C13.9791 11.5449 13.3918 10.8572 12.8046 10.1673C13.4006 10.4839 13.8656 10.9205 14.3503 11.3353C14.8983 11.8091 15.4681 12.1453 16.1012 11.3659C14.9572 9.9228 14.0424 8.37709 14.0119 6.46459C14.3874 8.09327 15.086 9.55602 16.2606 10.7612C16.4418 10.9489 16.7867 11.152 17.0007 11.1017C17.7277 10.9336 18.4307 10.6564 19.2036 10.4009C17.9526 8.36399 17.2518 6.2812 17.7714 3.94953C17.8129 4.29666 17.8085 4.64815 17.8129 5.00184C17.8369 6.80735 18.4198 8.4273 19.4961 9.86386C19.6402 10.056 19.924 10.2808 20.1292 10.2678C21.1248 10.2066 22.1182 10.0691 23.1508 9.95337C23.105 7.68064 23.4761 5.54109 24.5917 3.57838C24.559 3.81417 24.4673 4.03249 24.3909 4.25518C23.8342 5.92752 23.4979 7.63479 23.677 9.4032C23.6988 9.62589 23.9695 9.82238 24.1267 10.032C24.3167 9.85512 24.5808 9.71103 24.6834 9.49271C25.1201 8.55611 25.4738 7.58021 25.9279 6.65235C26.1549 6.18514 26.5326 5.79434 26.8448 5.36862C26.0763 6.86194 25.3362 8.32687 25.1332 10.032C26.4453 10.2481 27.6875 10.4097 28.9101 10.6695C29.4952 10.7939 29.7245 10.6236 29.9406 10.1018C30.6327 8.41638 31.6566 6.94271 32.96 5.66772C33.0888 5.54109 33.2569 5.45158 33.4054 5.3446C32.0256 7.03004 30.7724 8.73077 30.3423 10.9271C32.3029 8.7264 34.4708 6.84229 37.2304 5.75723C34.152 7.60859 31.5016 9.96428 31.1938 11.3201C34.0189 8.41638 37.0885 6.11964 40.813 4.6416C39.9157 3.7967 39.1014 3.16793 37.9508 4.03249ZM3.52371 31.7637C3.80534 33.7963 4.06296 35.6302 4.3184 37.4663C3.87521 35.6564 3.18531 33.8749 3.52371 31.7637ZM2.84255 44.6468C2.94079 43.5378 3.07833 42.4331 3.12636 41.3218C3.17658 40.2062 3.13728 39.0884 3.13728 37.9706C3.49314 40.2149 3.53899 42.4505 2.84255 44.6468ZM8.10846 16.479C6.48197 16.7388 5.67418 16.2039 4.76159 14.3089C5.63925 15.3983 6.52781 16.4746 8.10846 16.479ZM19.9611 4.79661C19.5376 3.53471 19.8694 2.33395 20.5375 1.27727C20.3498 2.43219 20.1511 3.64388 19.9611 4.79661ZM28.8359 6.37508C29.0979 4.93634 29.7834 3.62859 30.8554 2.56755C30.1873 3.82727 29.4931 5.13283 28.8359 6.37508ZM32.7701 30.4166C29.8511 31.6087 29.242 31.7397 28.1307 31.4559C26.4518 31.0301 25.1703 29.7006 25.0677 28.3928C26.6483 28.0828 28.2115 27.7553 29.7834 27.4802C30.3685 27.3776 30.9776 27.347 31.5737 27.3711C33.0233 27.4278 33.663 28.0653 33.9512 29.4757C34.2023 30.7005 34.5276 31.9143 34.8943 33.1107C35.0362 33.5758 35.3856 33.9775 35.6388 34.4076C35.713 34.3683 35.7873 34.3312 35.8615 34.294C35.0231 29.646 34.1826 24.9979 33.3246 20.2363C33.0473 20.4677 32.8989 20.5834 32.7613 20.7101C30.1677 23.0898 27.5151 25.3974 24.452 27.1746C22.378 28.3775 20.2406 29.3665 17.7517 29.2486C17.54 29.2399 17.2911 29.4691 17.1055 29.6394C16.0008 30.6437 14.9441 31.7047 13.8001 32.6632C13.1626 33.1981 12.3897 33.5692 11.5601 34.0866C13.2041 35.2219 13.4617 36.8222 13.0382 38.5426C12.8155 39.453 12.3788 40.3263 11.9313 41.1581C11.5558 41.8611 10.9292 42.2933 10.0384 42.1383C10.0341 42.2409 10.0319 42.3414 10.0275 42.444C10.3877 42.444 10.7611 42.5051 11.106 42.4331C12.9814 42.0488 14.6406 41.1777 16.2191 40.1232C17.2823 39.4115 17.8238 38.3941 17.7823 37.1431C17.7517 36.2262 17.54 35.3114 17.3915 34.3988C17.278 33.7002 17.0749 33.0103 17.0247 32.3073C16.9592 31.3729 17.3849 30.7441 18.0683 30.5738C18.9787 30.3446 20.0026 30.7725 20.3126 31.624C20.5135 32.1741 20.603 32.7898 20.6117 33.3793C20.6248 34.3595 20.4807 35.342 20.4982 36.3222C20.52 37.5929 20.9392 38.7434 22.1989 39.2609C26.4213 40.99 29.9166 43.7386 33.1237 46.9043C34.1389 47.9042 35.0952 48.9652 36.0798 50.0001C36.1235 49.9783 36.1693 49.9564 36.213 49.9346C35.0668 43.4439 33.9228 36.9532 32.7701 30.4166ZM33.1019 25.69C33.1412 25.762 33.1827 25.8363 33.2242 25.9083V24.7163C33.8267 25.7009 34.0079 26.727 33.5975 27.9059C31.9383 26.5131 30.1633 26.9803 28.3862 27.4169C27.4277 27.6527 26.4693 27.9627 25.5 27.609C28.0369 26.9672 30.5694 26.3297 33.1019 25.69ZM12.464 34.1543C13.8176 33.1871 15.1712 32.2178 16.4483 31.303C16.5051 32.041 16.5684 32.8357 16.6361 33.6893C16.4767 33.4928 16.3305 33.3138 16.0816 33.0038C16.123 33.4382 16.1492 33.7155 16.1907 34.163C15.9593 33.8356 15.8196 33.6369 15.5816 33.3007C15.5991 33.7068 15.61 33.9513 15.6275 34.3355C15.4157 34.0844 15.2694 33.9098 15.0598 33.6587V34.5691C14.848 34.3399 14.7171 34.1958 14.4944 33.9535C14.5271 34.3202 14.5468 34.5517 14.5817 34.9425C14.3546 34.6914 14.2171 34.5407 13.9857 34.2897C14.0119 34.6412 14.0272 34.8835 14.0555 35.2656C13.8416 35.0276 13.704 34.8704 13.5032 34.6455V35.5712C13.132 35.0647 12.8155 34.6324 12.464 34.1543ZM17.1557 36.8375C17.2387 36.8571 17.3238 36.8746 17.4068 36.8921C17.2278 37.5427 17.2059 38.309 16.8348 38.822C15.8261 40.2215 14.2193 40.7302 12.5164 41.4681C12.9028 40.4966 13.1997 39.7543 13.4945 39.012C13.5381 39.0076 13.5818 39.0054 13.6254 39.0011V39.7805C13.6604 39.787 13.6953 39.7957 13.7302 39.8045C13.8612 39.4923 13.9922 39.1779 14.1363 38.8373C14.228 38.9443 14.3066 39.0382 14.4332 39.1844C14.5446 38.9137 14.6406 38.6779 14.7651 38.3745C14.8546 38.5775 14.9135 38.7107 15.0074 38.929C15.1297 38.5928 15.2192 38.3439 15.3546 37.9662C15.4441 38.2238 15.4921 38.3636 15.5794 38.6168C15.7192 38.2588 15.8174 38.0121 15.9593 37.6518C16.0226 37.9378 16.0597 38.1059 16.1252 38.4094C16.2912 37.9902 16.4112 37.6846 16.5859 37.2414C16.6536 37.5383 16.695 37.7173 16.7715 38.0645C16.9352 37.5448 17.0444 37.1912 17.1557 36.8375ZM35.2043 48.4042C31.8007 44.5988 27.9648 41.3546 23.2403 39.2761C23.2774 39.2128 23.3167 39.1473 23.3539 39.084C24.5131 39.4595 25.6746 39.8372 26.8339 40.2127C26.8666 40.1494 26.8972 40.0861 26.9278 40.0228C27.0413 40.2062 27.1548 40.3874 27.3033 40.6275C27.4125 40.4376 27.4867 40.311 27.5871 40.1341C27.7072 40.3961 27.8076 40.6144 27.943 40.907C28.0652 40.7498 28.1482 40.6406 28.2399 40.5206C28.3709 40.7826 28.4997 41.0402 28.6984 41.4397C28.7617 41.1144 28.7988 40.931 28.8577 40.6319C29.0346 41.0336 29.1678 41.3371 29.3686 41.7934C29.445 41.4441 29.4909 41.2388 29.5542 40.9485C29.7332 41.3851 29.8839 41.7497 30.0323 42.1143C30.0716 42.1099 30.1109 42.1056 30.1502 42.1012C30.1633 41.8632 30.1786 41.6253 30.1917 41.3873C30.2288 41.3829 30.2659 41.3808 30.303 41.3764C30.4537 41.7694 30.6043 42.1645 30.755 42.5597C30.803 42.5575 30.8532 42.5531 30.9034 42.551C30.9187 42.2868 30.934 42.0226 30.9624 41.5467C31.1698 42.1449 31.3073 42.54 31.5234 43.1644C31.5999 42.6863 31.6413 42.4331 31.7047 42.0401C31.9273 42.6317 32.102 43.0968 32.2767 43.5596C32.3116 43.5487 32.3487 43.54 32.3836 43.529C32.3967 43.2605 32.4098 42.9942 32.4229 42.7256C32.4622 42.7147 32.5015 42.7016 32.5408 42.6907C32.6827 43.1186 32.8225 43.5465 33.0408 44.208C33.115 43.7408 33.1521 43.5028 33.2264 43.04C33.4578 43.6862 33.6193 44.136 33.7809 44.5879C33.8224 44.577 33.866 44.5683 33.9097 44.5595C33.5626 41.2301 33.2133 37.9029 32.8661 34.5735C32.9251 34.5669 32.9818 34.5582 33.0408 34.5517C33.8311 39.1233 34.6236 43.6928 35.4139 48.2622C35.3441 48.3103 35.2742 48.3583 35.2043 48.4042ZM12.2151 19.1818C8.03642 24.046 8.92717 30.6 11.2414 33.626C13.3831 32.5256 15.3371 31.1895 16.837 29.1613C16.5182 28.9954 16.2802 28.8731 16.0466 28.7487C14.0315 27.6854 13.1299 25.3538 13.9093 23.236C14.6035 21.3498 16.5553 20.2778 18.5115 20.7079C19.9786 21.031 20.8977 22.3584 20.662 23.8102C20.4545 25.0743 19.2057 25.9563 17.8805 25.7729C17.0771 25.6616 16.4593 24.8844 16.5379 24.0853C16.6099 23.3692 17.0509 23.0265 17.9417 23.0396C17.898 23.1989 17.7976 23.3649 17.8325 23.4915C17.8958 23.712 18.0421 23.9085 18.1513 24.1137C18.3739 23.9652 18.7407 23.8539 18.7931 23.6596C18.9372 23.1072 18.6468 22.6924 18.0967 22.5462C17.3347 22.3453 16.6841 22.5986 16.2082 23.212C15.2607 24.4346 15.9331 26.3668 17.4504 26.7598C18.815 27.1156 20.0004 26.6746 20.9872 25.7467C23.8101 23.092 25.6593 19.7451 27.6199 16.4048C23.0831 13.6932 16.3108 14.4115 12.2151 19.1818ZM14.0512 31.2812C13.1954 31.8226 12.3395 32.3641 11.5034 32.8924C9.90743 31.2637 9.31796 26.0109 10.4685 23.5875C10.141 25.7773 10.1039 27.8099 10.9204 29.7704C10.7895 28.8709 10.6563 27.9693 10.5253 27.0676C10.5602 27.061 10.5973 27.0545 10.6323 27.0479C10.8375 27.7881 11.0078 28.5391 11.2588 29.2639C11.416 29.7202 11.6518 30.1634 11.9225 30.5651C12.429 31.3074 13.1277 31.541 14.0512 31.2812ZM23.9521 21.3694C24.5524 20.1992 25.179 19.0399 25.7423 17.8544C26.2597 16.765 26.2357 16.7388 25.1244 16.2367C24.4913 15.9507 23.8342 15.7105 23.1879 15.4507C23.2119 15.3787 23.2381 15.3088 23.2622 15.2389C24.476 15.6363 25.6877 16.0336 27.0741 16.4855C26.013 18.278 25.0699 19.8717 24.1245 21.4655C24.0678 21.4327 24.0088 21.4021 23.9521 21.3694ZM29.1961 14.9595C28.8708 15.5031 28.5979 15.9332 28.3491 16.3786C26.5981 19.4984 24.7642 22.5593 22.3059 25.1944C21.3082 26.2642 20.21 27.1833 18.6578 27.3361C16.4505 27.5566 14.8764 25.8515 15.4004 23.7862C15.7301 22.485 17.1077 21.6663 18.3019 22.0877C18.9569 22.3169 19.4022 22.8081 19.2953 23.5024C19.2385 23.8888 18.9219 24.3779 18.5857 24.5482C18.0268 24.8298 17.5465 24.4958 17.254 23.9478C17.2452 23.9325 17.1623 23.9543 17.0684 23.9652C17.0618 24.5482 17.3871 24.9062 17.9046 24.9761C18.601 25.0721 19.3979 25.2992 19.8585 24.4892C19.9983 24.2425 20.0026 23.891 19.9895 23.5897C19.9786 23.2688 19.8083 22.9479 19.8236 22.6313C19.8542 21.9654 19.4699 21.6358 18.9503 21.3869C17.4439 20.662 15.4244 21.376 14.5926 22.9173C13.6778 24.6137 14.1167 26.7379 15.5663 27.6374C15.8589 27.3732 16.1296 27.1986 16.5335 27.5108C16.7562 27.6833 17.0815 27.7422 17.3697 27.8055C18.0355 27.9474 18.7058 28.061 19.3629 28.2531C18.0181 28.7509 16.7911 28.4998 15.6449 27.74C16.0357 28.002 16.3916 28.3644 16.8239 28.5129C18.1403 28.9626 19.459 28.7705 20.7536 28.3426C23.6748 27.3732 26.1658 25.6616 28.5237 23.7535C30.1044 22.4741 31.602 21.0921 33.1958 19.7036C31.8247 18.0749 30.5497 16.5641 29.1961 14.9595ZM25.1485 26.0655C25.0742 25.9804 25.0022 25.893 24.928 25.8079C25.393 25.4389 25.8624 25.0765 26.3208 24.7032C26.7859 24.3233 27.264 23.9587 27.6941 23.5461C28.873 22.4173 30.0236 21.2602 31.2025 20.1315C31.5649 19.7822 31.5715 19.4809 31.2964 19.0727C30.8336 18.3871 30.4187 17.6667 29.9865 16.9615C30.0345 16.9244 30.0847 16.8894 30.1349 16.8523C30.9231 17.7584 31.7134 18.6622 32.6478 19.7342C30.1022 21.8825 27.6264 23.974 25.1485 26.0655ZM25.7729 11.2022C25.5982 12.4772 25.4476 13.5731 25.2947 14.6778C24.1158 14.5163 23.0176 14.3656 21.8278 14.2019C21.7776 13.5753 21.6924 12.9051 21.6815 12.2348C21.6728 11.6868 22.3998 11.5471 23.3408 12.0449C22.8888 12.1409 22.6028 12.2021 22.2295 12.2829C22.2295 12.6256 22.1749 13.0077 22.2513 13.3592C22.2928 13.5469 22.5439 13.7893 22.736 13.8264C23.4019 13.9574 24.083 14.0098 24.8908 14.108C24.9956 13.3177 25.1703 12.523 25.1899 11.7261C25.2096 10.8594 25.5655 10.652 26.358 10.8267C27.6526 11.1127 28.9604 11.3506 30.4078 11.6366C29.8227 12.654 29.4385 13.5797 28.8228 14.3154C28.3622 14.8656 27.8753 14.2499 27.4343 14.036C27.4496 13.9508 27.4649 13.8679 27.4801 13.7827C27.7901 13.8308 28.1002 13.8788 28.5193 13.9421C28.8599 13.3679 29.2289 12.7457 29.7048 11.9466C28.3381 11.689 27.0872 11.4511 25.775 11.2022H25.7729ZM22.974 13.178C23.3604 12.833 23.8058 12.63 23.8735 12.3396C24.1726 11.0559 24.118 11.0297 22.7819 11.0581C21.4617 11.0843 20.8504 11.7487 20.948 13.0513C20.9763 13.4247 20.9982 13.8002 21.0265 14.2128C20.5179 14.2914 20.0659 14.3547 19.6162 14.4311C19.1926 14.5032 18.7691 14.5883 18.2822 14.6822C18.0508 14.0054 17.8369 13.3745 17.5902 12.6518C18.0203 12.5165 18.3805 12.4008 18.7407 12.2872C18.7757 12.3549 18.8084 12.4204 18.8433 12.4881C18.625 12.6453 18.4067 12.8046 18.1884 12.9618C18.3587 13.8206 19.1534 14.1124 20.5724 13.8373C20.5113 12.8942 20.4502 11.9335 20.3781 10.8136H24.4695C24.38 11.6192 24.2926 12.4204 24.1922 13.333C23.7316 13.274 23.3386 13.2238 22.974 13.178ZM17.7998 14.8263C16.9963 15.204 16.2628 15.5511 15.4266 15.9441C15.11 15.3677 14.8022 14.8067 14.4551 14.1757C14.8131 13.9596 15.1122 13.7805 15.4113 13.5993C15.4615 13.6605 15.5139 13.7194 15.5641 13.7805C15.4113 13.9596 15.2585 14.1364 15.1079 14.3154C15.5227 15.562 15.61 15.573 17.2234 14.5512C16.9287 13.7893 16.6274 13.0099 16.2584 12.0471C17.3806 11.6803 18.4635 11.3266 19.6751 10.9314C19.8018 11.7982 19.9066 12.5121 20.0245 13.3155C19.6206 13.3985 19.2712 13.4705 18.9241 13.5426C19.7057 12.9793 19.5878 12.3222 19.2472 11.4947C18.4678 11.7371 17.684 11.9838 16.7736 12.2676C17.1317 13.1605 17.4526 13.9574 17.7998 14.8241V14.8263ZM13.2849 13.9312C14.1385 13.3854 14.9288 12.8811 15.8152 12.3156C16.1296 13.0361 16.385 13.6255 16.6776 14.3001C16.3501 14.4442 16.0837 14.5621 16.0117 14.5927C15.9528 14.0185 15.8982 13.4924 15.8196 12.7239C14.9812 13.2544 14.3808 13.6321 13.7433 14.036C14.1996 14.7979 14.6013 15.4682 15.0205 16.1668C14.4725 16.5838 13.9791 16.9571 13.4311 17.3741C13.0491 16.9746 12.6801 16.5882 12.2435 16.1319C12.3963 15.9594 12.5557 15.7782 12.6801 15.6341C12.8853 16.0838 13.0644 16.4812 13.298 16.9964C13.7826 16.6493 14.1276 16.4026 14.5555 16.0969C14.1429 15.3961 13.7477 14.7259 13.2805 13.9334L13.2849 13.9312ZM12.7871 14.394C14.0097 15.5511 14.1079 15.8546 13.5163 16.2061C13.3394 15.7935 13.1582 15.3656 12.9028 14.7652C12.3876 15.311 12.0077 15.7105 11.5907 16.1515C12.1016 16.6864 12.5469 17.1536 13.0513 17.6819C12.5928 18.195 12.1671 18.6731 11.6955 19.2015C11.3069 18.8936 10.9532 18.612 10.534 18.2802C10.6825 18.0422 10.8156 17.8282 10.9379 17.6339C11.1409 18.0203 11.3222 18.3675 11.5623 18.826C11.9749 18.374 12.2435 18.0771 12.571 17.7191C12.0906 17.1973 11.6409 16.7039 11.1235 16.1406C11.6911 15.5468 12.2413 14.9682 12.7893 14.394H12.7871ZM28.063 15.6887C27.4365 15.4529 26.8055 15.2302 26.1899 14.966C26.1156 14.9333 26.1069 14.6713 26.1222 14.5228C26.1549 14.1975 26.2248 13.8766 26.275 13.5557C26.513 12.0733 26.799 11.9488 28.4517 12.8439C28.0172 12.8811 27.7749 12.9684 27.5849 12.9051C27.0631 12.7304 26.8601 12.8789 26.764 13.4247C26.561 14.5818 26.5348 14.5752 27.6373 15.0643C27.8229 15.1472 27.9932 15.2673 28.1722 15.3699C28.1351 15.4769 28.1002 15.5839 28.063 15.6887ZM10.8331 16.6275C12.0644 17.4855 12.1168 17.5859 11.702 18.0356C11.5034 17.7191 11.2894 17.3763 11.0755 17.0335C10.9838 17.0335 10.8899 17.0335 10.7982 17.0357C10.5842 17.4964 10.1148 18.0356 10.224 18.4002C10.3506 18.8281 10.9838 19.1054 11.4422 19.4853C11.1257 19.9678 10.8353 20.4132 10.5034 20.924C10.1236 20.5507 9.28303 20.6533 9.62361 19.7276C9.86377 20.0442 10.0537 20.2909 10.248 20.5485C11.189 19.6752 11.2108 19.5704 10.2873 18.9351C9.71531 18.5421 9.68911 18.1906 10.093 17.6885C10.3615 17.3523 10.5886 16.9833 10.8353 16.6296L10.8331 16.6275ZM10.3659 19.9962C10.1345 19.708 9.93581 19.4569 9.63671 19.0858C9.39001 19.6141 9.21317 19.9896 9.01886 20.4044C9.46642 20.6795 9.85285 20.9175 10.3244 21.2078C10.1279 21.6423 9.93363 22.0702 9.71749 22.5505C9.30923 22.3104 8.61497 22.4763 8.78526 21.6445C9.06034 21.8388 9.26775 21.9851 9.47734 22.1313C9.64763 21.8803 9.81574 21.627 10.0079 21.3454C9.52755 21.055 9.13894 20.8192 8.66955 20.5376C8.91407 19.9831 9.14986 19.4482 9.38346 18.922C10.3965 19.1644 10.6344 19.4329 10.3681 19.994L10.3659 19.9962ZM8.66082 20.828C9.03633 21.0856 9.34635 21.3017 9.65855 21.5157C9.61051 21.5855 9.5603 21.6554 9.51227 21.7231C9.27648 21.5572 9.04288 21.3912 8.73286 21.1707C8.5975 21.579 8.49053 21.9021 8.36827 22.2667C8.77871 22.4632 9.13676 22.6357 9.55593 22.8343C9.42276 23.2906 9.29832 23.7251 9.14331 24.2578C8.78526 23.998 8.09536 24.2905 8.24382 23.3976C8.46433 23.6006 8.63462 23.7557 8.90534 24.0024C9.04725 23.6094 9.15204 23.3212 9.25247 23.0439C8.40975 22.4938 8.21326 21.7544 8.663 20.8258L8.66082 20.828ZM7.72203 23.7993C7.80063 23.474 7.87922 23.1465 7.9993 22.6553C8.40538 22.902 8.70448 23.0854 9.0014 23.2666L8.86822 23.4435C8.64772 23.3474 8.33552 23.116 8.22417 23.1902C8.04733 23.3059 8.00148 23.6247 7.90106 23.8583C7.84211 23.8386 7.78316 23.819 7.72422 23.7993H7.72203Z" fill="#1D3772"/>
</svg>
