<svg width="27" height="20" viewBox="0 0 27 20" fill="none" xmlns="http://www.w3.org/2000/svg">
<path d="M13.4987 0.365505C13.4987 0.556284 13.4775 0.577482 13.2867 0.577482H13.0748V1.00144V1.42539H13.2867C13.4987 1.42539 13.4987 1.43246 13.4987 1.81402V2.20264H9.82443H6.15015V2.6266V3.05055H6.36213H6.57411V6.55525V10.0599L6.77195 10.0105C8.2558 9.63599 10.5805 9.30389 12.8133 9.16257L13.4987 9.11311V10.9573V12.8015H11.4496H9.40047V11.777V10.7524H9.01185C8.63029 10.7524 8.62322 10.7524 8.62322 10.9644V11.1764H8.19927H7.77531V10.9644C7.77531 10.7524 7.76825 10.7524 7.38669 10.7524C7.00513 10.7524 6.99806 10.7524 6.99806 10.9644V11.1764H6.57411H6.15015V10.9644C6.15015 10.7524 6.14309 10.7524 5.76153 10.7524H5.3729V11.777V12.8015H5.11146C4.50379 12.8015 4.52499 12.8369 4.52499 11.7346V10.7524H3.32378H2.12258V11.2117C2.12258 11.4802 2.09431 11.671 2.05192 11.671C2.00952 11.671 1.81874 11.5226 1.6209 11.3389C1.2888 11.028 1.2676 10.9856 1.31 10.7595C1.37359 10.4203 1.52904 10.1377 1.70569 10.0387C1.79048 9.99635 2.21443 9.89036 2.65252 9.79851C3.57109 9.60773 4.02331 9.40281 4.41194 8.99299L4.69457 8.70329L4.45433 8.45598C4.32008 8.32173 4.17876 8.20867 4.13636 8.20867C4.09397 8.20867 3.96678 8.30053 3.86079 8.41359C3.59229 8.68916 3.14007 8.87994 2.39108 9.01419C1.40185 9.1979 0.984964 9.44521 0.695262 10.0034C0.462086 10.4415 0.433823 11.5297 0.631668 12.2998C0.893107 13.3527 1.56437 14.4903 2.39815 15.3099C2.63132 15.5431 2.82917 15.7551 2.82917 15.7833C2.82917 15.8045 2.44761 16.2497 1.97419 16.7655L1.12628 17.6982L1.39479 17.9738C1.53611 18.1222 1.67742 18.2423 1.69862 18.2423C1.71982 18.2423 1.98832 17.9667 2.29216 17.6205C2.59599 17.2813 2.99875 16.8432 3.18953 16.6454L3.52163 16.285L4.14343 16.5959C4.48259 16.7655 4.94895 16.9563 5.17505 17.0199C5.40116 17.0835 5.58488 17.1612 5.58488 17.1965C5.58488 17.2319 5.44356 17.5004 5.27398 17.8042C4.7511 18.7369 4.76523 18.6309 5.13973 18.8499C5.53542 19.0761 5.46476 19.1397 6.08656 18.0091L6.51051 17.2531H7.03339C7.32309 17.2531 7.56334 17.2742 7.56334 17.3025C7.56334 17.3378 7.40082 17.6417 7.21004 17.9879C7.01219 18.3341 6.85674 18.6238 6.85674 18.638C6.85674 18.7016 7.50681 19.0266 7.5492 18.9913C7.57747 18.963 7.80358 18.5673 8.05795 18.1151L8.5243 17.2884L9.06838 17.2672C9.36514 17.2531 9.61245 17.2672 9.61245 17.2884C9.61245 17.3096 9.44994 17.6134 9.25209 17.9596C9.06131 18.3129 8.91999 18.6309 8.94119 18.6662C8.98359 18.7298 9.49233 19.0195 9.57006 19.0195C9.58419 19.0195 9.81736 18.638 10.0717 18.1646C10.3332 17.6982 10.5875 17.2954 10.637 17.2813C10.6794 17.2601 10.9338 17.2531 11.1882 17.2672L11.6616 17.2884L11.28 17.9808L10.8984 18.6662L11.2517 18.8499C11.5414 18.9983 11.6192 19.0125 11.6686 18.9347C11.704 18.8853 11.9301 18.4825 12.1703 18.0444L12.6084 17.2531H13.1242C13.6683 17.2531 13.7319 17.2954 13.5482 17.571C13.4916 17.6487 13.3362 17.9243 13.1949 18.1858L12.9334 18.6521L13.2585 18.8358C13.4422 18.9347 13.6047 19.0195 13.633 19.0195C13.6542 19.0195 13.8944 18.6238 14.1558 18.1363L14.6434 17.2531H15.1663C15.6821 17.2531 15.7951 17.3166 15.6256 17.5074C15.5973 17.5428 15.4348 17.8113 15.2723 18.108L14.9826 18.6521L15.3146 18.8499C15.7103 19.0761 15.6397 19.1397 16.2615 18.0091L16.6854 17.2531H17.2083C17.498 17.2531 17.7383 17.2742 17.7383 17.3025C17.7383 17.3378 17.5757 17.6417 17.385 17.9879C17.1871 18.3341 17.0317 18.6238 17.0317 18.638C17.0317 18.7016 17.6817 19.0266 17.7241 18.9913C17.7524 18.963 17.9785 18.5673 18.2329 18.1151L18.6992 17.2884L22.5996 17.2672L26.5 17.2531V16.8574C26.5 16.5535 26.4647 16.4122 26.3304 16.2426C26.2386 16.1154 26.0336 15.7692 25.8711 15.4654C25.6097 14.9637 25.5814 14.8577 25.5814 14.4055C25.5814 14.1228 25.6309 13.4657 25.6874 12.9428C25.8782 11.2117 25.8005 10.4556 25.3907 9.96809C25.1787 9.72078 24.8395 9.5512 24.5427 9.5512C24.3025 9.5512 23.6948 9.82677 23.3557 10.0882C23.0872 10.2861 23.0942 10.3214 23.4122 10.71L23.5747 10.9149L23.9633 10.6535C24.4438 10.3285 24.6911 10.3214 24.8395 10.6182C25.0586 11.028 24.9667 11.24 24.4014 11.6427C23.5111 12.2786 22.2675 12.7026 21.0804 12.7803L20.4233 12.8227V12.5118C20.4162 12.0879 20.2113 11.6639 19.8863 11.4166L19.6249 11.2117L18.3106 11.1905C17.2224 11.1693 16.9539 11.1905 16.6925 11.2823C16.2615 11.4519 15.993 11.8406 15.9294 12.3846L15.8799 12.8015H15.0815H14.276L14.2901 10.9785L14.3113 9.16257L15.0532 9.18377C16.5371 9.22617 19.0172 9.5512 20.5222 9.9045C20.8614 9.98222 21.1511 10.0458 21.1652 10.0458C21.1864 10.0458 21.2006 8.47011 21.2006 6.54818V3.05055H21.4125H21.6245V2.6266V2.20264H17.9502H14.276V1.81402C14.276 1.43246 14.276 1.42539 14.4879 1.42539H14.6999V1.00144V0.577482H14.4879C14.2972 0.577482 14.276 0.556284 14.276 0.365505C14.276 0.153526 14.2689 0.153526 13.8873 0.153526C13.5058 0.153526 13.4987 0.153526 13.4987 0.365505ZM9.03305 5.89105L9.01185 8.73155L8.2134 8.87994C7.78238 8.96473 7.40789 9.01419 7.38669 9.00006C7.36549 8.97886 7.35136 7.62927 7.35136 6.00411V3.05055H8.19927H9.04718L9.03305 5.89105ZM11.4496 5.72854V8.40652L11.2588 8.44892C11.1458 8.46305 10.8419 8.50544 10.5664 8.52664C10.2978 8.54784 10.0152 8.59023 9.95162 8.60437C9.8315 8.6397 9.82443 8.47718 9.82443 5.84866V3.05055H10.637H11.4496V5.72854ZM13.4987 5.70027V8.34999H12.8981H12.2975V5.70027V3.05055H12.8981H13.4987V5.70027ZM15.5478 5.70027V8.35706L14.9331 8.33586L14.3113 8.31466L14.2901 5.67908L14.276 3.05055H14.9119H15.5478V5.70027ZM17.9502 5.84866C17.9502 8.47718 17.9432 8.6397 17.8301 8.60437C17.7595 8.59023 17.4839 8.54784 17.2083 8.52664C16.9398 8.50544 16.6289 8.46305 16.5229 8.44892L16.3251 8.40652V5.72854V3.05055H17.1377H17.9502V5.84866ZM20.4233 6.03944V9.02832L19.6107 8.887L18.7981 8.73862V5.89812V3.05055H19.6107H20.4233V6.03944ZM3.74774 12.0596C3.74774 12.3352 3.71948 12.5189 3.67001 12.5189C3.62762 12.5189 3.43684 12.4482 3.24606 12.3705C2.90689 12.2221 2.89983 12.2151 2.89983 11.9112V11.6003H3.32378H3.74774V12.0596ZM8.62322 12.4129V12.8015H7.38669H6.15015V12.4129V12.0243H7.38669H8.62322V12.4129ZM19.4906 12.1091C19.5401 12.1585 19.5754 12.3281 19.5754 12.4977V12.8015H18.1622H16.749V12.526C16.749 12.0455 16.8126 12.0243 18.1905 12.0243C19.0384 12.0243 19.4341 12.0525 19.4906 12.1091ZM2.71611 13.0206C3.27432 13.282 4.30595 13.5788 4.65218 13.5788C4.73697 13.5788 4.80763 13.6 4.80763 13.6282C4.80056 13.6636 4.48259 14.0169 4.10103 14.4267L3.39444 15.1686L2.94222 14.7023C2.2639 13.9957 1.74808 13.1831 1.52197 12.4553C1.47251 12.2928 1.47958 12.2998 1.80461 12.5189C1.98126 12.6461 2.39815 12.8651 2.71611 13.0206ZM24.8748 12.9146C24.8395 13.2184 24.7971 13.7837 24.79 14.1582L24.7689 14.8506H24.4368H24.0976V15.2393V15.6208L24.5781 15.642L25.0515 15.6632L25.2423 16.0165C25.3483 16.2073 25.4401 16.391 25.4401 16.4263C25.4401 16.4546 24.7477 16.4687 23.9068 16.4617L22.3735 16.4405L22.1121 16.0942C21.7658 15.642 21.5963 15.0909 21.5963 14.4267C21.5892 13.5929 21.6104 13.5576 22.1545 13.4516C22.8257 13.3244 23.5111 13.07 24.2601 12.6743C24.6205 12.4836 24.9172 12.3352 24.9243 12.3422C24.9384 12.3493 24.9102 12.6037 24.8748 12.9146ZM20.7907 14.243C20.7554 14.9566 20.8543 15.4583 21.1299 16.0377L21.3348 16.4758H20.2396H19.1444L19.321 16.172C19.8368 15.2675 20.1477 14.6952 20.1265 14.6811C20.1124 14.6669 19.957 14.5751 19.7732 14.4691L19.4482 14.2783L19.0949 14.9001C18.9041 15.2393 18.6286 15.7339 18.4872 15.9953L18.2187 16.4758H17.6959C17.4062 16.4758 17.173 16.4546 17.173 16.4263C17.173 16.3981 17.385 15.9953 17.6393 15.536C18.1481 14.6175 18.141 14.6811 17.6535 14.4267L17.3991 14.2924L16.8056 15.3665L16.205 16.4405L15.6679 16.4617C15.3712 16.4758 15.1239 16.4617 15.1239 16.4405C15.1239 16.4193 15.3288 16.0236 15.5832 15.5643C15.8375 15.1121 16.0424 14.7164 16.0424 14.6881C16.0424 14.6599 15.887 14.5609 15.7033 14.4691L15.3641 14.2995L14.7706 15.3665L14.17 16.4405L13.6259 16.4617C13.3221 16.4758 13.0748 16.4687 13.0748 16.4546C13.0748 16.4334 13.2797 16.0518 13.534 15.5996C13.7884 15.1474 13.9933 14.7517 13.9933 14.7164C13.9933 14.6175 13.3362 14.2712 13.2938 14.349C13.2726 14.3843 12.997 14.8789 12.6861 15.4442L12.1209 16.4758H11.5697H11.0186L11.3153 15.9247C11.4849 15.6279 11.711 15.2251 11.81 15.0273L12.0078 14.6811L11.6757 14.4903C11.492 14.3843 11.3224 14.3136 11.3012 14.3278C11.2729 14.3419 10.9903 14.8294 10.6653 15.4159L10.0859 16.4758H9.52766H8.96945L9.1461 16.172C9.66191 15.2675 9.97281 14.6952 9.95162 14.6811C9.93748 14.6669 9.78203 14.5751 9.59832 14.4691L9.27329 14.2783L8.91999 14.9001C8.72921 15.2393 8.45364 15.7339 8.31232 15.9953L8.04382 16.4758H7.52094C7.23124 16.4758 6.99806 16.4546 6.99806 16.4263C6.99806 16.3981 7.21004 15.9953 7.46441 15.536C7.97316 14.6175 7.97316 14.6811 7.47854 14.4267L7.22417 14.2854L6.68716 15.2605C6.39039 15.7904 6.12895 16.2638 6.09362 16.3133C5.96644 16.5111 4.11517 15.8116 4.19996 15.5926C4.22116 15.529 4.61685 15.0697 5.06907 14.568L5.90284 13.6494H13.3574H20.8119L20.7907 14.243Z" fill="white"/>
</svg>
