<svg width="35" height="63" viewBox="0 0 35 63" fill="none" xmlns="http://www.w3.org/2000/svg">
<path d="M8.22992 -49.0219L8.22992 -64.2021L27.2 -64.2021L27.2 -41.3684L0.429889 -41.3684L0.42989 -71.9507L30.9497 -71.9507L30.9497 -75.5318L0.414071 -75.5318L0.414072 -106.114L27.2158 -106.114L27.2158 -83.2962L8.2141 -83.2962L8.2141 -98.5081L19.5107 -98.5081L19.5107 -91.124L15.9983 -91.124C15.9034 -92.3441 15.8084 -93.4533 15.6977 -94.7526C14.5269 -94.8002 13.4194 -94.8636 12.1537 -94.9269L12.1537 -87.115L23.3237 -87.115L23.3237 -102.359L4.41693 -102.359L4.41692 -79.414L30.9971 -79.414L30.9971 -136.997L4.43275 -136.997L4.43275 -114.29L23.3079 -114.29L23.3079 -129.296L12.122 -129.296L12.122 -121.96L15.7293 -121.96L15.7293 -125.477L19.5107 -125.477L19.5107 -118.093L8.27739 -118.093L8.27739 -133.274L27.1841 -133.274L27.1841 -110.266L0.414072 -110.266L0.414074 -141.086L30.9971 -141.086C31.0604 -142.417 31.1079 -143.542 31.1712 -144.793L35 -144.793L35 62.7221L0.461531 62.7221L0.461532 32.235L27.2158 32.235L27.2158 55.0528C26.9468 55.1162 26.662 55.2588 26.3614 55.2588C20.7922 55.2588 15.2389 55.1954 9.66968 55.2113C8.67292 55.2113 8.10334 54.9419 8.10334 53.8644C8.10334 49.2533 8.10334 44.6263 8.10334 39.8726L19.479 39.8726L19.479 47.2884L15.8875 47.2884C15.8401 46.1792 15.7768 45.07 15.7135 43.8023L12.0904 43.8023L12.0904 51.3132L23.2762 51.3132L23.2762 36.1013L4.43274 36.1013L4.43274 59.0301L30.9971 59.0301L30.9971 1.49426L4.49603 1.49426L4.49603 24.2646L23.3079 24.2646L23.3079 9.10022L12.1853 9.10022L12.1853 16.4685L15.7452 16.4685L15.7452 12.9032L19.5423 12.9032L19.5423 20.4616L8.27738 20.4616L8.27738 5.26555L27.1841 5.26555L27.1841 28.1943L0.461533 28.1943L0.461534 -2.64147L30.918 -2.64146L30.918 -6.47614L0.461534 -6.47614L0.461536 -37.1376L27.1841 -37.1376L27.1841 -14.3198L8.27738 -14.3198L8.27738 -29.5158L19.5107 -29.5158L19.5107 -22.0525L15.8559 -22.0525L15.8559 -25.6019L12.1378 -25.6019L12.1378 -18.1069L23.3553 -18.1069L23.3553 -33.2554L4.46439 -33.2554L4.46439 -10.5485L30.9971 -10.5485L30.9971 -68.0843L4.46439 -68.0843L4.46439 -45.2031L23.3079 -45.2031L23.3079 -60.2248L12.1062 -60.2248L12.1062 -52.8566L15.7768 -52.8566L15.7768 -56.406L19.5265 -56.406L19.5265 -49.0377L8.2141 -49.0377L8.22992 -49.0219Z" fill="white"/>
</svg>
